<?xml version="1.0" encoding="utf-8"?>
<!-- Generator: Adobe Illustrator 19.2.0, SVG Export Plug-In . SVG Version: 6.00 Build 0)  -->
<svg version="1.1" id="Layer_1" xmlns="http://www.w3.org/2000/svg" xmlns:xlink="http://www.w3.org/1999/xlink" x="0px" y="0px"
	 viewBox="0 0 140.5 125.6" style="enable-background:new 0 0 140.5 125.6;" xml:space="preserve">
<style type="text/css">
	.st0{fill:#FFFFFF;}
</style>
<symbol  id="Shopping_Cart" viewBox="-35.2 -31.5 70.5 63">
	<path class="st0" d="M31.8-10l-49.3,0v2.4l45.2,6c2.4,0.4,4.1,2.3,4.2,4.7v14.9c0,2.5-2,4.5-4.5,4.5h-44.9V26c0,3-2.5,5.5-5.5,5.5
		h-8.7c-1.9,0-3.5-1.6-3.5-3.5s1.6-3.5,3.5-3.5h7.2v-36c0-3,2.5-5.5,5.5-5.5h50.8c1.9,0,3.5,1.6,3.5,3.5C35.2-11.6,33.7-10,31.8-10z
		 M2.2,0.1l-8.6-1.1v18.6h8.6V0.1z M6.2,17.6h8.6V1.7L6.2,0.6V17.6z M26.9,3.3l-8.1-1.1v15.3h8.1V3.3z M-10.4,17.6V-1.6l-7.1-0.9
		v20.1H-10.4z"/>
	<circle class="st0" cx="-8.6" cy="-24.6" r="6.9"/>
	<circle class="st0" cx="24.8" cy="-24.6" r="6.9"/>
</symbol>
<use xlink:href="#Shopping_Cart"  width="70.5" height="63" id="XMLID_3_" x="-35.2" y="-31.5" transform="matrix(1.993 0 0 -1.993 70.2508 62.7816)" style="overflow:visible;"/>
</svg>
