<svg xmlns="http://www.w3.org/2000/svg" viewBox="0 0 494.4 539.5"><defs><style>.a{fill:#f1d2c3;}.b{fill:#960;}.c{fill:#f99;}.d{fill:#fe5f26;}.e{fill:#fe7f51;}.f{fill:#fff;}.g{fill:#b59e92;}.h{fill:#090;}</style></defs><title>Head_Jess</title><path class="a" d="M4156,1104.3c-11.8-10.2-22.1-8.7-35-5.5l-9.2,4.3c-13.4,9-12.1,31-4,45.5,10.7,19.1,23.6,27,38.9,22.8,6.9,0,13.5-6.2,18.9-6.2,18,58.3,65.8,97.8,131.7,120.1,27.8,12.5,63.4,18.1,93.3,3.9,33.8-14.9,63.8-37.1,90.9-64.6a93.5,93.5,0,0,0,31.3-40.4c6.2-24.2.2-49.5-8.1-85.4-6.3-22,2.8-93,0-107.9-6-12.5-17.2-17.3-31.3-17.8l-6.4,27c-23.4-35.1-53.5-51.5-87.4-56.8l13.5,57.6c-38.2-28.3-81.2-39.4-128.6-34.8l9.2,48.3-43.3-11.4c-16.8,3.9-22.3,56.2-9.9,77.4-13.7-7.7-31.8-39.7-28.7-4.7,0.7,7.4-1.6,32.7,3.1,46.6C4180.8,1119.1,4167.3,1114,4156,1104.3Z" transform="translate(-4061.6 -778)"/><path class="a" d="M4504.8,1098.8c-6.3-22,2.8-93,0-107.9-6-12.5-17.2-17.3-31.3-17.8l-6.4,27c-23.4-35.1-53.5-51.5-87.4-56.8l13.5,57.6c-38.2-28.3-81.2-39.4-128.6-34.8l9.2,48.3-43.3-11.4c-16.8,3.9-22.3,56.2-9.9,77.4-13.7-7.7-31.8-39.7-28.7-4.7,0.7,7.4-1.6,32.7,3.1,46.6-14.3-3.2-27.7-8.4-39.1-18s-22.1-8.7-35-5.5l-9.2,4.3c-13.4,9-12.1,31-4,45.5,10.1,18.1,69.4,41.9,69.5,42.2,12.7,59.9,54.2,72.3,120,94.5,27.8,12.5,63.4,18.1,93.3,3.9,33.8-14.9,63.8-37.1,90.9-64.6a93.5,93.5,0,0,0,31.3-40.4C4519.1,1160,4513.1,1134.8,4504.8,1098.8Z" transform="translate(-4061.6 -778)"/><path class="b" d="M4154.6,1122.6q-17.6-8.4-35.3,2.4c-2.1,11.2.3,17.9,6.2,21.2-1.8-11.6-1.6-18,2.8-13.5l8.6,5.5Z" transform="translate(-4061.6 -778)"/><path class="b" d="M4289.4,1029.8c25.6-25.1,46.3-25,64.2-10.4Q4321.5,1014.6,4289.4,1029.8Z" transform="translate(-4061.6 -778)"/><path class="b" d="M4480.5,1042.6c-19.9-26.9-35.9-26.8-49.8-11.1Q4455.6,1026.4,4480.5,1042.6Z" transform="translate(-4061.6 -778)"/><path class="b" d="M4384.6,1190.1a17.9,17.9,0,0,1,18.7.1,1.5,1.5,0,0,0,1.5-2.6,20.9,20.9,0,0,0-21.7-.1,1.5,1.5,0,0,0,1.5,2.6h0Z" transform="translate(-4061.6 -778)"/><path class="c" d="M4345.9,1247.1l51.7,5.1a6.2,6.2,0,0,1,3.6,1.1,2.8,2.8,0,0,1,.2,3.6,8.7,8.7,0,0,1-3.3,2.6,43,43,0,0,1-29.2,3.4c-9.7-2.3-18.2-8.3-22.8-16" transform="translate(-4061.6 -778)"/><path class="b" d="M4336.9,1228.6c23.3,6.5,48,6.3,71.4.9l-2.2-1.3c3.3,18.4-11,40.9-31.5,36-17.7-4.2-29.5-21.9-35.5-37.8-0.8-2.2-4.3-1.2-3.5,1,6.9,18.3,21.6,39.6,43.1,41.1s34.2-22.5,30.9-41.2a1.8,1.8,0,0,0-2.2-1.3c-22.8,5.3-46.8,5.5-69.5-.9-2.2-.6-3.2,2.8-1,3.5h0Z" transform="translate(-4061.6 -778)"/><path class="d" d="M4199.3,1127.1c-71.9-45.9-18.7,109.9,18.7,95.9,13.6-5.1-38,105.7-103,93.6-37.1-7-32.7-115.3-28.6-106.1,9.1,20.7,34.3,31.4,5.6-23.4-103.9-198.6,79.3-384.7,235.5-371.7,41.1,8.5,47.1,15.1,66.4,31.4,5.5-14.2-1.8-37.6-10.1-53.1,18.6,10.9,32.9,26.3,42.8,46.4,16.5-13.1,23.9-33.6,21.8-62.1,40.4,36.6,58.2,75.1,37.9,116.1,21.7-7.8,37.6-24.2,48.8-47.4,4.5,32.4-3.1,59.5-24.6,80.5,20.2-3.1,35.7-11.2,45.4-25.4-2.8,30.1-14.5,49.9-34.1,60.5,14.5,25,14.6,52,4.7,80.4-3.1-24.9-17.4-51.5-46.7-54.4-13.5,1.5-11.6,18.3-9.9,27-11.8-27.5-38.8-43.8-66-53,11.2,19.9.3,41.6-15.7,53-38.8-27.7-69.6-42.8-110.8-39.6-5.7,6.5-5.6,24.2,0,52.4-15.8-13.5-32.3-17-49.3-12.8-15.8,21.6-12.9,48.6-2.8,77.7-10.7-14.1-20.9-22.3-30.3-21.8C4205.3,1093,4208,1107.7,4199.3,1127.1Z" transform="translate(-4061.6 -778)"/><path class="e" d="M4278.3,841.8c39.4-7.9,78.7-2.8,92.3,21.7-38.2-8.1-94.1-.5-161.7,17.5Z" transform="translate(-4061.6 -778)"/><path class="e" d="M4100.6,1031.1c0.7-31.6,12.6-51.2,28.8-66.2-11.3,27.6-14.8,71.6-13,126.6Z" transform="translate(-4061.6 -778)"/><ellipse class="f" cx="391.5" cy="343.9" rx="42.6" ry="61"/><path class="g" d="M4495.5,1121.9c-0.2,21-7.6,46.1-27.4,56.8s-38.5-1.8-48-18.9c-11.3-20.2-12.2-46.4-3.8-67.8,7.1-18.1,24.5-36,45.7-29.6,24.1,7.3,33.3,37,33.6,59.4a0.3,0.3,0,0,0,.6,0c-0.2-21.4-8-47.5-28.7-57.9-18.4-9.2-37.1,1.7-46.8,17.9-12.6,20.9-13.7,49-4.3,71.4,7.3,17.6,24.2,34.3,44.8,28.9,25.1-6.6,34.9-37.3,35.1-60.3A0.3,0.3,0,0,0,4495.5,1121.9Z" transform="translate(-4061.6 -778)"/><ellipse class="h" cx="376.9" cy="359.6" rx="23.6" ry="35.5"/><ellipse cx="373.6" cy="360.7" rx="10.6" ry="14.8"/><ellipse class="f" cx="384" cy="373.4" rx="3.6" ry="5"/><ellipse class="f" cx="365.5" cy="339.3" rx="6.2" ry="8.5"/><ellipse class="f" cx="270.8" cy="342.4" rx="49.7" ry="76.5"/><path class="g" d="M4381.8,1120.4c-0.2,25.4-8.2,57.1-31.7,71.1s-45.2-2.5-56.1-22.9c-13.7-25.8-14.7-59.1-4.5-86.3,7.9-21.1,27.5-44.5,52.8-36.6,29.4,9.3,39.3,47.6,39.5,74.6a0.3,0.3,0,0,0,.6,0c-0.2-26-8.6-59.1-33.4-72.4-22.1-11.9-44,3.2-54.8,22.7-14.9,26.8-15.8,62.4-4.2,90.6,8.4,20.4,27.6,41.7,52,34.5,30-8.9,40.3-48,40.4-75.4A0.3,0.3,0,0,0,4381.8,1120.4Z" transform="translate(-4061.6 -778)"/><ellipse class="h" cx="252.6" cy="362.1" rx="27" ry="44.5"/><ellipse cx="248.8" cy="363.5" rx="13.7" ry="18.5"/><ellipse class="f" cx="261.3" cy="379.1" rx="4.7" ry="6.4"/><ellipse class="f" cx="236.3" cy="338.4" rx="7.1" ry="10.7"/><path class="g" d="M4490.6,1182.1a1.5,1.5,0,0,0,0-3,1.5,1.5,0,0,0,0,3h0Z" transform="translate(-4061.6 -778)"/><path class="g" d="M4495.6,1197.8a1.5,1.5,0,0,0,0-3,1.5,1.5,0,0,0,0,3h0Z" transform="translate(-4061.6 -778)"/><path class="g" d="M4479.3,1191.4a1.5,1.5,0,0,0,0-3,1.5,1.5,0,0,0,0,3h0Z" transform="translate(-4061.6 -778)"/><path class="g" d="M4283.2,1202.7a1.5,1.5,0,0,0,0-3,1.5,1.5,0,0,0,0,3h0Z" transform="translate(-4061.6 -778)"/><path class="g" d="M4272.5,1205.6a1.5,1.5,0,0,0,0-3,1.5,1.5,0,0,0,0,3h0Z" transform="translate(-4061.6 -778)"/><path class="g" d="M4253.3,1212a1.5,1.5,0,0,0,0-3,1.5,1.5,0,0,0,0,3h0Z" transform="translate(-4061.6 -778)"/><path class="g" d="M4247.6,1188.5a1.5,1.5,0,0,0,0-3,1.5,1.5,0,0,0,0,3h0Z" transform="translate(-4061.6 -778)"/><path class="g" d="M4260.4,1194.9a1.5,1.5,0,0,0,0-3,1.5,1.5,0,0,0,0,3h0Z" transform="translate(-4061.6 -778)"/><path class="g" d="M4273.2,1192.1a1.5,1.5,0,0,0,0-3,1.5,1.5,0,0,0,0,3h0Z" transform="translate(-4061.6 -778)"/><path class="g" d="M4267.5,1184.3a1.5,1.5,0,0,0,0-3,1.5,1.5,0,0,0,0,3h0Z" transform="translate(-4061.6 -778)"/></svg>