<svg xmlns="http://www.w3.org/2000/svg" width="73.3mm" height="37.3mm" viewBox="0 0 207.7 105.8">
  <defs>
    <style>
      .a {
        fill: #fff;
      }

      .b {
        fill: #c68c6d;
      }

      .c {
        fill: #754c23;
      }

      .d {
        fill: #99671c;
      }

      .e {
        fill: #f49799;
      }

      .f {
        fill: #b59e92;
      }

      .g {
        fill: #030303;
      }

      .h {
        fill: #42220f;
      }

      .i {
        fill: #f1d2c4;
      }

      .j {
        fill: #ed6130;
      }

      .k {
        fill: #f27e54;
      }

      .l {
        fill: #169b3c;
      }

      .m {
        fill: #a67d52;
      }

      .n {
        fill: #c69c6d;
      }

      .o {
        fill: #faf2a2;
      }

      .p {
        fill: #fdf8ce;
      }

      .q {
        fill: #4fc2f0;
      }
    </style>
  </defs>
  <title>logo-full-logo-biz-card</title>
  <g>
    <path class="a" d="M21.4,120.9v-8a1.7,1.7,0,0,1,1.9-1.9h5.3c2.4,0,3.5,1.6,3.5,3a2.6,2.6,0,0,1-2,2.7,2.8,2.8,0,0,1,2.2,2.9,3.2,3.2,0,0,1-3.5,3.2H23.2A1.7,1.7,0,0,1,21.4,120.9Zm6.3-5.5a0.7,0.7,0,0,0,.7-0.8,0.7,0.7,0,0,0-.7-0.7H24.9v1.5h2.8Zm0.1,4.5a0.8,0.8,0,0,0,.8-0.8,0.8,0.8,0,0,0-.8-0.8H24.9v1.6h2.9Z" transform="translate(-20.9 -17.3)"/>
    <path class="a" d="M44.7,121.2a1.8,1.8,0,0,1-3.5.5l-0.2-.6H36.6l-0.2.6a1.8,1.8,0,0,1-3.5-.5,1.8,1.8,0,0,1,.1-0.6l2.8-7.7a3.1,3.1,0,0,1,5.9,0l2.8,7.7A1.8,1.8,0,0,1,44.7,121.2ZM40,118.1l-1.3-3.9-1.3,3.9H40Z" transform="translate(-20.9 -17.3)"/>
    <path class="a" d="M56.2,121.2v-5.8l-2.5,6.9a1,1,0,0,1-1.9,0l-2.5-6.9v5.8a1.8,1.8,0,0,1-3.6,0v-7.5a2.8,2.8,0,0,1,5.5-.9l1.5,4.3,1.5-4.3a2.8,2.8,0,0,1,5.5.9v7.5A1.8,1.8,0,0,1,56.2,121.2Z" transform="translate(-20.9 -17.3)"/>
    <path class="a" d="M63.2,119.3a1.9,1.9,0,1,1-1.9,1.9A1.9,1.9,0,0,1,63.2,119.3Zm-1.5-2-0.3-4.4a1.8,1.8,0,0,1,1.8-1.9,1.8,1.8,0,0,1,1.8,1.9l-0.3,4.4A1.5,1.5,0,0,1,61.7,117.2Z" transform="translate(-20.9 -17.3)"/>
    <path class="a" d="M73.7,121.2v-7.1H71.9a1.6,1.6,0,1,1,0-3.1H79a1.6,1.6,0,1,1,0,3.1H77.2v7.1A1.8,1.8,0,0,1,73.7,121.2Z" transform="translate(-20.9 -17.3)"/>
    <path class="a" d="M89.4,121.2v-2.9H85.2v2.9a1.8,1.8,0,0,1-3.6,0v-8.6a1.8,1.8,0,0,1,3.6,0v2.6h4.2v-2.6a1.8,1.8,0,0,1,3.6,0v8.6A1.8,1.8,0,0,1,89.4,121.2Z" transform="translate(-20.9 -17.3)"/>
    <path class="a" d="M105.9,121.2a1.8,1.8,0,0,1-3.5.5l-0.2-.6H97.8l-0.2.6a1.8,1.8,0,0,1-3.5-.5,1.8,1.8,0,0,1,.1-0.6l2.8-7.7a3.1,3.1,0,0,1,5.9,0l2.8,7.7A1.8,1.8,0,0,1,105.9,121.2Zm-4.6-3.1-1.3-3.9-1.3,3.9h2.5Z" transform="translate(-20.9 -17.3)"/>
    <path class="a" d="M108,121.2v-7.1h-1.8a1.6,1.6,0,1,1,0-3.1h7.1a1.6,1.6,0,1,1,0,3.1h-1.8v7.1A1.8,1.8,0,0,1,108,121.2Z" transform="translate(-20.9 -17.3)"/>
    <path class="a" d="M117.2,116.9a0.8,0.8,0,0,1-.5-1.4,3.3,3.3,0,0,0,1-1.3h-0.5a1.5,1.5,0,0,1-1.5-1.6,1.9,1.9,0,0,1,1.8-1.9,2.1,2.1,0,0,1,2,2.3,4.7,4.7,0,0,1-1.8,3.6Z" transform="translate(-20.9 -17.3)"/>
    <path class="a" d="M120.5,120.7a1.6,1.6,0,0,1,1.6-1.6l0.8,0.2a5.4,5.4,0,0,0,2.8.8c0.7,0,1.3-.2,1.3-0.7s-0.5-.7-1.7-0.9-4.9-.8-4.9-3.8,1.7-3.8,5.1-3.8a9.3,9.3,0,0,1,3.7.7,1.6,1.6,0,0,1-.7,3h-0.7a7.3,7.3,0,0,0-2.5-.6c-1.1,0-1.3.3-1.3,0.6s0.5,0.6,1.7.8,4.8,0.9,4.8,3.6-1.9,4.1-5.1,4.1a8.4,8.4,0,0,1-4.2-1A1.6,1.6,0,0,1,120.5,120.7Z" transform="translate(-20.9 -17.3)"/>
    <path class="a" d="M136.2,120.9v-8a1.7,1.7,0,0,1,1.9-1.9h3.4c3.7,0,6.5,2.1,6.5,5.9s-2.8,5.9-6.4,5.9h-3.4A1.7,1.7,0,0,1,136.2,120.9Zm5.3-1.2a2.7,2.7,0,0,0,2.8-2.8,2.6,2.6,0,0,0-2.8-2.8h-1.7v5.6h1.7Z" transform="translate(-20.9 -17.3)"/>
    <path class="a" d="M149.2,120.9v-8a1.7,1.7,0,0,1,1.9-1.9h5.7a1.5,1.5,0,1,1,0,3h-4.1v1.4h3.9a1.5,1.5,0,0,1,0,3h-3.9v1.5h4.1a1.5,1.5,0,1,1,0,3h-5.7A1.7,1.7,0,0,1,149.2,120.9Z" transform="translate(-20.9 -17.3)"/>
    <path class="a" d="M159.7,120.9v-8.3a1.8,1.8,0,0,1,3.6,0v7.1h3.1a1.6,1.6,0,0,1,0,3.1h-4.8A1.7,1.7,0,0,1,159.7,120.9Z" transform="translate(-20.9 -17.3)"/>
    <path class="a" d="M169.2,121.2v-8.6a1.8,1.8,0,0,1,3.6,0v8.6A1.8,1.8,0,0,1,169.2,121.2Z" transform="translate(-20.9 -17.3)"/>
    <path class="a" d="M174,116.9c0-3.6,2.8-6.1,6.4-6.1a5.6,5.6,0,0,1,4.3,1.7,1.8,1.8,0,0,1,.5,1.1,1.7,1.7,0,0,1-1.7,1.7,1.6,1.6,0,0,1-1.3-.6,2.4,2.4,0,0,0-1.9-.9,3,3,0,0,0,0,5.9,2.4,2.4,0,0,0,1.9-.9,1.6,1.6,0,0,1,1.3-.6,1.7,1.7,0,0,1,1.2,2.8,5.7,5.7,0,0,1-4.3,1.8A6,6,0,0,1,174,116.9Z" transform="translate(-20.9 -17.3)"/>
    <path class="a" d="M186.8,121.2v-8.6a1.8,1.8,0,0,1,3.6,0v8.6A1.8,1.8,0,0,1,186.8,121.2Z" transform="translate(-20.9 -17.3)"/>
    <path class="a" d="M198,110.9c3.6,0,6.4,2.5,6.4,6.1s-2.8,6.1-6.4,6.1-6.4-2.5-6.4-6.1S194.4,110.9,198,110.9Zm0,3.1a2.9,2.9,0,1,0,2.8,2.9A2.8,2.8,0,0,0,198,114Z" transform="translate(-20.9 -17.3)"/>
    <path class="a" d="M205.7,112.7a1.8,1.8,0,0,1,3.6,0v5.2a2,2,0,0,0,4.1,0v-5.2a1.8,1.8,0,0,1,3.6,0V118c0,2.9-1.7,5.1-5.6,5.1s-5.7-2.1-5.7-5v-5.3Z" transform="translate(-20.9 -17.3)"/>
    <path class="a" d="M218.5,120.7a1.6,1.6,0,0,1,1.6-1.6l0.8,0.2a5.4,5.4,0,0,0,2.8.8c0.7,0,1.3-.2,1.3-0.7s-0.5-.7-1.7-0.9-4.9-.8-4.9-3.8,1.7-3.8,5.1-3.8a9.3,9.3,0,0,1,3.7.7,1.6,1.6,0,0,1-.7,3h-0.7a7.3,7.3,0,0,0-2.5-.6c-1.1,0-1.3.3-1.3,0.6s0.5,0.6,1.7.8,4.8,0.9,4.8,3.6-1.9,4.1-5.1,4.1a8.4,8.4,0,0,1-4.2-1A1.6,1.6,0,0,1,218.5,120.7Z" transform="translate(-20.9 -17.3)"/>
  </g>
  <g>
    <g>
      <path class="b" d="M196.4,63.3c-1.1-1-4.8,13.5-6,13.8l-0.9.4c-1.3.9-1.2,2.9-.4,4.3s4.4,3.1,6,2.9l0.3,0.5,0.3,0.6h0c1.2,5.7,5.2,6.9,11.4,9,2.6,1.2,6,1.7,8.9.4a28.2,28.2,0,0,0,8.7-6.1,8.9,8.9,0,0,0,3-3.8c0.6-2.3,0-4.7-.8-8.1s0.3-8.9,0-10.3-5.5-7.9-6.8-8" transform="translate(-20.9 -17.3)"/>
      <path class="c" d="M193.9,79.4a3.3,3.3,0,0,0-3.4.2c-0.2,1.1,0,1.7.6,2s-0.1-1.7.3-1.3l0.8,0.5Z" transform="translate(-20.9 -17.3)"/>
      <path class="c" d="M206.8,70.5c2.4-2.4,4.4-2.4,6.1-1A10.5,10.5,0,0,0,206.8,70.5Z" transform="translate(-20.9 -17.3)"/>
      <path class="c" d="M225,71.8c-1.9-2.6-3.4-2.5-4.7-1.1A6.2,6.2,0,0,1,225,71.8Z" transform="translate(-20.9 -17.3)"/>
      <path class="d" d="M215.9,85.8a1.7,1.7,0,0,1,1.8,0,0.1,0.1,0,0,0,.1-0.2,2,2,0,0,0-2.1,0,0.1,0.1,0,0,0,.1.2h0Z" transform="translate(-20.9 -17.3)"/>
      <path class="e" d="M212.2,91.2l4.9,0.5h0.3a0.3,0.3,0,0,1,0,.3l-0.3.2a4.1,4.1,0,0,1-2.8.3,3.5,3.5,0,0,1-2.2-1.5" transform="translate(-20.9 -17.3)"/>
      <path class="c" d="M211.3,89.5a13.5,13.5,0,0,0,3.4.5h2a1.9,1.9,0,0,1,1.3-.1c0.4,0.3-.4,1.8-0.6,2.1a2.4,2.4,0,0,1-3.2.7,6.1,6.1,0,0,1-2.6-3.3c-0.1-.2-0.4-0.1-0.3.1,0.7,1.7,2.1,3.8,4.2,3.9s3.1-2.1,2.9-3.9a0.2,0.2,0,0,0-.2-0.2,13.8,13.8,0,0,1-6.6-.1,0.2,0.2,0,0,0-.1.3h0Z" transform="translate(-20.9 -17.3)"/>
      <g>
        <ellipse class="a" cx="201.5" cy="62" rx="4.1" ry="5.8"/>
        <path class="f" d="M226.4,79.3c-0.1,2.3-1.1,5.8-4,5.8s-4-3.5-4-5.8,1.2-5.8,4-5.8,3.9,3.5,4,5.8h0.1c-0.1-2.3-1.2-5.8-4.1-5.8s-4.1,3.5-4.1,5.8,1.1,5.6,3.8,5.8,4.2-3.4,4.3-5.8h-0.1Z" transform="translate(-20.9 -17.3)"/>
      </g>
      <ellipse class="d" cx="200.1" cy="63.5" rx="2.2" ry="3.4"/>
      <ellipse class="g" cx="199.8" cy="63.6" rx="1" ry="1.4"/>
      <ellipse class="a" cx="200.8" cy="64.8" rx="0.3" ry="0.5"/>
      <ellipse class="a" cx="199" cy="61.6" rx="0.6" ry="0.8"/>
      <g>
        <ellipse class="a" cx="190" cy="61.9" rx="4.7" ry="7.3"/>
        <path class="f" d="M215.6,79.2c-0.1,2.7-1.2,7.3-4.7,7.3s-4.7-4.6-4.7-7.3,1.3-7.3,4.7-7.3,4.6,4.6,4.7,7.3h0.1c-0.1-2.7-1.2-7.3-4.8-7.3s-4.8,4.6-4.8,7.3,1.2,7,4.5,7.3,4.9-4.5,5.1-7.3h-0.1Z" transform="translate(-20.9 -17.3)"/>
      </g>
      <ellipse class="d" cx="188.2" cy="63.8" rx="2.6" ry="4.2"/>
      <ellipse class="g" cx="187.9" cy="63.9" rx="1.3" ry="1.8"/>
      <ellipse class="a" cx="189.1" cy="65.4" rx="0.4" ry="0.6"/>
      <ellipse class="a" cx="186.7" cy="61.5" rx="0.7" ry="1"/>
      <path class="h" d="M192.2,105.7c-13.8-28.2-3.7-50.2,12-52.1s21.5,1.9,23.6,16c-13.7-3.1-23.7-5.3-27.7-2.5-1.7,3.8-6.2,21.6,6.4,27.6" transform="translate(-20.9 -17.3)"/>
      <path class="c" d="M193.8,62.2c0.9-4.4,7.9-6.1,9.3-6.4" transform="translate(-20.9 -17.3)"/>
    </g>
    <g>
      <path class="i" d="M139.9,81.5a3.1,3.1,0,0,0-3.2-.5l-0.8.4c-1.2.8-1.1,2.8-.4,4.1s2.1,2.5,3.5,2.1,1.2-.6,1.7-0.6c1.6,5.3,6,8.9,12,10.9,2.5,1.1,5.8,1.6,8.5.4a26.9,26.9,0,0,0,8.3-5.9,8.6,8.6,0,0,0,2.8-3.7c0.6-2.2,0-4.5-.7-7.8s0.3-8.5,0-9.8a3,3,0,0,0-2.8-1.6l-0.6,2.5a11.2,11.2,0,0,0-7.9-5.2l1.2,5.2A16.3,16.3,0,0,0,149.7,69l0.8,4.4-3.9-1c-1.5.4-2,5.1-.9,7-1.2-.7-2.9-3.6-2.6-0.4a18.3,18.3,0,0,0,.3,4.2A8.2,8.2,0,0,1,139.9,81.5Z" transform="translate(-20.9 -17.3)"/>
      <path class="i" d="M171.6,81c-0.6-2,.3-8.5,0-9.8a3,3,0,0,0-2.8-1.6l-0.6,2.5a11.2,11.2,0,0,0-7.9-5.2l1.2,5.2A16.3,16.3,0,0,0,149.7,69l0.8,4.4-3.9-1c-1.5.4-2,5.1-.9,7-1.2-.7-2.9-3.6-2.6-0.4a18.3,18.3,0,0,0,.3,4.2,8.1,8.1,0,0,1-3.5-1.6,3.1,3.1,0,0,0-3.2-.5l-0.8.4c-1.2.8-1.1,2.8-.4,4.1s6.3,3.8,6.3,3.8c1.2,5.4,4.9,6.6,10.9,8.6,2.5,1.1,5.8,1.6,8.5.4a26.9,26.9,0,0,0,8.3-5.9,8.6,8.6,0,0,0,2.8-3.7C172.9,86.6,172.3,84.3,171.6,81Z" transform="translate(-20.9 -17.3)"/>
      <path class="d" d="M139.7,83.2a3.2,3.2,0,0,0-3.2.2c-0.2,1,0,1.6.6,1.9s-0.1-1.6.3-1.2l0.8,0.5Z" transform="translate(-20.9 -17.3)"/>
      <path class="d" d="M152,74.7c2.3-2.3,4.2-2.3,5.8-.9A10.1,10.1,0,0,0,152,74.7Z" transform="translate(-20.9 -17.3)"/>
      <path class="d" d="M169.4,75.9c-1.8-2.4-3.3-2.4-4.5-1A5.9,5.9,0,0,1,169.4,75.9Z" transform="translate(-20.9 -17.3)"/>
      <path class="d" d="M160.7,89.3a1.6,1.6,0,0,1,1.7,0,0.2,0.2,0,0,0,.2-0.3,2,2,0,0,0-2,0,0.2,0.2,0,0,0,.2.3h0Z" transform="translate(-20.9 -17.3)"/>
      <path class="e" d="M157.1,94.5l4.7,0.5h0.3a0.2,0.2,0,0,1,0,.3l-0.3.2a3.9,3.9,0,0,1-2.7.3,3.3,3.3,0,0,1-2.1-1.5" transform="translate(-20.9 -17.3)"/>
      <path class="d" d="M156.3,92.9a13.1,13.1,0,0,0,6.5.1h-0.2c0.3,1.6-1,3.7-2.8,3.2s-2.7-2-3.2-3.4-0.5-.1-0.4.1,2,3.7,4,3.8,3.1-2.1,2.8-3.8h-0.2a12.8,12.8,0,0,1-6.3-.1,0.2,0.2,0,0,0-.1.4h0Z" transform="translate(-20.9 -17.3)"/>
      <path class="j" d="M143.8,83.6c-6.5-4.2-1.7,10,1.7,8.7,1.2-.5-3.5,9.6-9.4,8.5-3.4-.6-3-10.5-2.6-9.6s3.1,2.8.5-2.1c-9.4-18.1,7.2-35,21.4-33.8,3.7,0.8,4.3,1.4,6,2.9,0.5-1.3-.2-3.4-0.9-4.8a9.7,9.7,0,0,1,3.9,4.2c1.5-1.2,2.2-3.1,2-5.6,3.7,3.3,5.3,6.8,3.4,10.6a7.9,7.9,0,0,0,4.4-4.3,8.1,8.1,0,0,1-2.2,7.3,5.8,5.8,0,0,0,4.1-2.3c-0.3,2.7-1.3,4.5-3.1,5.5a8.4,8.4,0,0,1,.4,7.3c-0.3-2.3-1.6-4.7-4.2-4.9s-1.1,1.7-.9,2.5c-1.1-2.5-3.5-4-6-4.8a3.7,3.7,0,0,1-1.4,4.8c-3.5-2.5-6.3-3.9-10.1-3.6-0.5.6-.5,2.2,0,4.8a4.8,4.8,0,0,0-4.5-1.2c-1.4,2-1.2,4.4-.3,7.1-1-1.3-1.9-2-2.8-2C144.3,80.5,144.6,81.8,143.8,83.6Z" transform="translate(-20.9 -17.3)"/>
      <path class="k" d="M151,57.7c3.6-.7,7.2-0.2,8.4,2-3.5-.7-8.5,0-14.7,1.6Z" transform="translate(-20.9 -17.3)"/>
      <path class="k" d="M134.8,74.9a7.9,7.9,0,0,1,2.6-6c-1,2.5-1.3,6.5-1.2,11.5Z" transform="translate(-20.9 -17.3)"/>
      <g>
        <ellipse class="a" cx="146" cy="65.8" rx="3.9" ry="5.5"/>
        <path class="f" d="M170.7,83.1c0,1.9-.7,4.2-2.5,5.1s-3.5-.2-4.4-1.7a7.4,7.4,0,0,1-.3-6.1c0.6-1.6,2.2-3.3,4.1-2.7s3.1,3.3,3.1,5.4h0.1c0-2-.7-4.4-2.7-5.3s-3.4.2-4.3,1.7a7.5,7.5,0,0,0-.3,6.5c0.7,1.6,2.2,3.1,4.1,2.6s3.1-3.4,3.2-5.5h-0.1Z" transform="translate(-20.9 -17.3)"/>
      </g>
      <ellipse class="l" cx="144.6" cy="67.3" rx="2.1" ry="3.2"/>
      <ellipse class="g" cx="144.3" cy="67.4" rx="1" ry="1.3"/>
      <ellipse class="a" cx="145.3" cy="68.5" rx="0.3" ry="0.5"/>
      <ellipse class="a" cx="143.6" cy="65.4" rx="0.6" ry="0.8"/>
      <g>
        <ellipse class="a" cx="135" cy="65.7" rx="4.5" ry="6.9"/>
        <path class="f" d="M160.4,83c0,2.3-.7,5.2-2.9,6.5s-4.2-.3-5.1-2.2a9.8,9.8,0,0,1-.4-7.7c0.7-1.9,2.5-4,4.8-3.3s3.6,4.3,3.6,6.8h0.1c0-2.4-.8-5.4-3-6.6s-4,.3-5,2a9.8,9.8,0,0,0-.4,8.3c0.8,1.8,2.5,3.8,4.7,3.1s3.7-4.4,3.7-6.9h-0.1Z" transform="translate(-20.9 -17.3)"/>
      </g>
      <ellipse class="l" cx="133.3" cy="67.5" rx="2.5" ry="4"/>
      <ellipse class="g" cx="133" cy="67.6" rx="1.2" ry="1.7"/>
      <ellipse class="a" cx="134.1" cy="69" rx="0.4" ry="0.6"/>
      <ellipse class="a" cx="131.9" cy="65.3" rx="0.6" ry="1"/>
      <path class="f" d="M170.3,88.6a0.2,0.2,0,0,0,0-.3,0.2,0.2,0,0,0,0,.3h0Z" transform="translate(-20.9 -17.3)"/>
      <path class="f" d="M170.7,90a0.2,0.2,0,0,0,0-.3,0.2,0.2,0,0,0,0,.3h0Z" transform="translate(-20.9 -17.3)"/>
      <path class="f" d="M169.3,89.5a0.2,0.2,0,0,0,0-.3,0.2,0.2,0,0,0,0,.3h0Z" transform="translate(-20.9 -17.3)"/>
      <path class="f" d="M151.4,90.5a0.2,0.2,0,0,0,0-.3,0.2,0.2,0,1,0,0,.3h0Z" transform="translate(-20.9 -17.3)"/>
      <path class="f" d="M150.5,90.8a0.2,0.2,0,0,0,0-.3,0.2,0.2,0,0,0,0,.3h0Z" transform="translate(-20.9 -17.3)"/>
      <path class="f" d="M148.7,91.3a0.2,0.2,0,0,0,0-.3,0.2,0.2,0,0,0,0,.3h0Z" transform="translate(-20.9 -17.3)"/>
      <path class="f" d="M148.2,89.2a0.2,0.2,0,0,0,0-.3,0.2,0.2,0,0,0,0,.3h0Z" transform="translate(-20.9 -17.3)"/>
      <path class="f" d="M149.4,89.8a0.2,0.2,0,0,0,0-.3,0.2,0.2,0,1,0,0,.3h0Z" transform="translate(-20.9 -17.3)"/>
      <path class="f" d="M150.5,89.5a0.2,0.2,0,0,0,0-.3,0.2,0.2,0,0,0,0,.3h0Z" transform="translate(-20.9 -17.3)"/>
      <path class="f" d="M150,88.8a0.2,0.2,0,0,0,0-.3,0.2,0.2,0,0,0,0,.3h0Z" transform="translate(-20.9 -17.3)"/>
    </g>
    <g>
      <path class="m" d="M118.7,82.4c-0.6-2.1.3-8.9,0-10.3C114.3,52.4,79.4,78,81.1,82.8c-1.3.9-1.2,3-.4,4.4s4.4,3.1,6,2.9L87,90.5l0.3,0.6h0c1.2,5.7,5.2,6.9,11.5,9,2.7,1.2,6.1,1.7,8.9.4a28.4,28.4,0,0,0,8.7-6.2,8.9,8.9,0,0,0,3-3.9C120.1,88.3,119.5,85.8,118.7,82.4Z" transform="translate(-20.9 -17.3)"/>
      <path class="c" d="M85.2,84.7a3.4,3.4,0,0,0-3.4.2c-0.2,1.1,0,1.7.6,2s-0.2-1.7.3-1.3l0.8,0.5Z" transform="translate(-20.9 -17.3)"/>
      <path class="c" d="M98.1,75.8c2.5-2.4,4.4-2.4,6.2-1A10.6,10.6,0,0,0,98.1,75.8Z" transform="translate(-20.9 -17.3)"/>
      <path class="c" d="M116.4,77c-1.9-2.6-3.4-2.6-4.8-1.1A6.2,6.2,0,0,1,116.4,77Z" transform="translate(-20.9 -17.3)"/>
      <path class="n" d="M107.2,91.1a1.9,1.9,0,0,1,2,0,0.2,0.2,0,0,0,.2-0.3,2.3,2.3,0,0,0-2.4,0,0.2,0.2,0,0,0,.2.3h0Z" transform="translate(-20.9 -17.3)"/>
      <path class="e" d="M103.5,96.6l5,0.5h0.4a0.3,0.3,0,0,1,0,.3l-0.3.2a4.1,4.1,0,0,1-2.8.3,3.5,3.5,0,0,1-2.2-1.5" transform="translate(-20.9 -17.3)"/>
      <path class="c" d="M102.6,95.1a14.2,14.2,0,0,0,7,.1l-0.5-.3c0.3,1.6-1,3.6-2.8,3.2s-2.6-2-3.2-3.4-1-.3-0.8.2,2.2,3.9,4.3,4.1,3.5-2.3,3.2-4.2a0.4,0.4,0,0,0-.5-0.3,13.2,13.2,0,0,1-6.5-.1,0.4,0.4,0,0,0-.2.8h0Z" transform="translate(-20.9 -17.3)"/>
      <path class="g" d="M84.7,82.6c-0.3-.8,1,0.3,0,0s-3.6-.8-4.6,2.3C67,65.5,83.4,53.2,100.4,52.5s29,7.5,18.3,21.3c-8.1-10.2-24.8-2.3-28.9,8.9C89,86,87.2,89,84.7,82.6Z" transform="translate(-20.9 -17.3)"/>
      <g>
        <ellipse class="a" cx="92.8" cy="67.3" rx="4.1" ry="5.8"/>
        <path class="f" d="M117.8,84.6c0,2-.7,4.4-2.6,5.4s-3.7-.1-4.6-1.8a7.8,7.8,0,0,1-.4-6.5c0.7-1.7,2.3-3.4,4.3-2.9s3.2,3.5,3.2,5.7h0.1c0-2.1-.8-4.6-2.8-5.6s-3.5.3-4.4,1.8a7.8,7.8,0,0,0-.4,6.8c0.7,1.7,2.3,3.3,4.3,2.8s3.4-3.6,3.4-5.8h-0.1Z" transform="translate(-20.9 -17.3)"/>
      </g>
      <ellipse class="c" cx="91.4" cy="68.8" rx="2.3" ry="3.4"/>
      <ellipse class="g" cx="91.1" cy="68.9" rx="1" ry="1.4"/>
      <ellipse class="a" cx="92.1" cy="70.2" rx="0.3" ry="0.5"/>
      <ellipse class="a" cx="90.4" cy="66.9" rx="0.6" ry="0.8"/>
      <g>
        <ellipse class="a" cx="81.3" cy="67.2" rx="4.8" ry="7.3"/>
        <path class="f" d="M106.9,84.5c0,2.4-.8,5.5-3.1,6.8S99.5,91,98.5,89a10.4,10.4,0,0,1-.4-8.1c0.7-2,2.6-4.3,5-3.6s3.8,4.6,3.8,7.1H107c0-2.5-.8-5.7-3.2-7s-4.2.3-5.2,2.2a10.4,10.4,0,0,0-.4,8.7c0.8,2,2.6,4,5,3.3s3.9-4.6,3.9-7.2h-0.1Z" transform="translate(-20.9 -17.3)"/>
      </g>
      <ellipse class="c" cx="79.5" cy="69.1" rx="2.6" ry="4.3"/>
      <ellipse class="g" cx="79.2" cy="69.2" rx="1.3" ry="1.8"/>
      <ellipse class="a" cx="80.4" cy="70.7" rx="0.5" ry="0.6"/>
      <ellipse class="a" cx="78" cy="66.8" rx="0.7" ry="1"/>
    </g>
    <g>
      <path class="i" d="M60.4,80.1c-0.6-2.1.3-8.8,0-10.2a3.1,3.1,0,0,0-3-1.7l-0.6,2.5a11.6,11.6,0,0,0-8.2-5.4l1.3,5.4a16.9,16.9,0,0,0-12.1-3.3l0.9,4.6-4.1-1.1c-1.6.4-2.1,5.3-.9,7.3-1.3-.7-3-3.7-2.7-0.4,0.1,0.7-.2,3.1.3,4.4a8.4,8.4,0,0,1-3.7-1.7,3.2,3.2,0,0,0-3.3-.5l-0.9.4c-1.3.8-1.1,2.9-.4,4.3s4.3,3,5.9,2.8l0.3,0.5,0.3,0.6h0c1.2,5.7,5.1,6.8,11.3,8.9,2.6,1.2,6,1.7,8.8.4A27.9,27.9,0,0,0,58.2,92a8.9,8.9,0,0,0,3-3.8C61.7,85.9,61.2,83.5,60.4,80.1Z" transform="translate(-20.9 -17.3)"/>
      <path class="f" d="M27.3,82.4a3.3,3.3,0,0,0-3.3.2c-0.2,1.1,0,1.7.6,2s-0.2-1.7.3-1.3l0.8,0.5Z" transform="translate(-20.9 -17.3)"/>
      <path class="d" d="M40.1,73.6c2.4-2.4,4.4-2.4,6.1-1A10.4,10.4,0,0,0,40.1,73.6Z" transform="translate(-20.9 -17.3)"/>
      <path class="d" d="M58.1,74.8c-1.9-2.5-3.4-2.5-4.7-1A6.1,6.1,0,0,1,58.1,74.8Z" transform="translate(-20.9 -17.3)"/>
      <path class="d" d="M49,88.8a1.7,1.7,0,0,1,1.8,0,0.1,0.1,0,0,0,.1-0.2,2,2,0,0,0-2,0,0.1,0.1,0,0,0,.1.2h0Z" transform="translate(-20.9 -17.3)"/>
      <path class="e" d="M45.4,94.1l4.9,0.5h0.3a0.3,0.3,0,0,1,0,.3l-0.3.2a4,4,0,0,1-2.8.3,3.4,3.4,0,0,1-2.2-1.5" transform="translate(-20.9 -17.3)"/>
      <path class="d" d="M44.5,92.4a13.7,13.7,0,0,0,6.7.1H51.1c0.3,1.7-1,3.9-3,3.4s-2.8-2.1-3.4-3.6-0.4-.1-0.3.1c0.7,1.7,2,3.7,4.1,3.9s3.2-2.1,2.9-3.9H51.2a13.2,13.2,0,0,1-6.6-.1,0.2,0.2,0,0,0-.1.3h0Z" transform="translate(-20.9 -17.3)"/>
      <path class="o" d="M31.2,83.5c-0.9-1-3-2.1-4.3-3.2s1,0.3,0,0-3.5-.8-4.5,2.2c-3.9-8.5.9-17.7,4.3-23.9,0.3,0.9.6,3.1,2.1,2.9-0.9-.6-1.4-4.5-1.2-6,1.1,1.7,1.7,5.2,1.7,5.3a9.2,9.2,0,0,1,.7-5.2c-0.1,1.6-.5,4.8.4,4.9a8.7,8.7,0,0,0,1.9-1.6,15.1,15.1,0,0,1,3-2.9,13,13,0,0,1,6.9-1.9c3.4-.2,5,2.1,7.8,2.2,0.5-1.3-.2-3.5-1-5a10.1,10.1,0,0,1,4,4.4c1.6-1.2,2.3-3.2,2.1-5.9,3.8,3.5,5.5,7.1,3.6,11a8.2,8.2,0,0,0,4.6-4.5,8.4,8.4,0,0,1-2.3,7.6,6,6,0,0,0,4.3-2.4c-0.3,2.8-1.4,4.7-3.2,5.7a8.7,8.7,0,0,1,.4,7.6c-0.3-2.3-1.6-4.9-4.4-5.1s-1.1,1.7-.9,2.5c-1.1-2.6-3.7-4.1-6.2-5a3.9,3.9,0,0,1-1.5,5c-3.7-2.6-6.6-4-10.5-3.7-0.5.6-.5,2.3,0,4.9a5,5,0,0,0-4.7-1.2c-1.5,2-1.2,4.6-.3,7.3-1-1.3-2-2.1-2.9-2.1A7.1,7.1,0,0,1,31.2,83.5Z" transform="translate(-20.9 -17.3)"/>
      <path class="p" d="M40.1,56.4a10.2,10.2,0,0,1,8.7,2c-3.6-.8-8.9,0-15.3,1.7Z" transform="translate(-20.9 -17.3)"/>
      <path class="p" d="M22.2,73.8A8.2,8.2,0,0,1,25,67.5c-1.1,2.6-1.4,6.8-1.2,11.9Z" transform="translate(-20.9 -17.3)"/>
      <g>
        <ellipse class="a" cx="34.6" cy="65" rx="4" ry="5.8"/>
        <path class="f" d="M59.5,82.3c0,2-.7,4.4-2.6,5.4s-3.6-.2-4.5-1.8a7.7,7.7,0,0,1-.4-6.4c0.7-1.7,2.3-3.4,4.3-2.8s3.1,3.5,3.2,5.6h0.1c0-2-.8-4.5-2.7-5.5s-3.5.2-4.4,1.7a7.7,7.7,0,0,0-.4,6.7c0.7,1.7,2.3,3.2,4.2,2.7s3.3-3.5,3.3-5.7H59.5Z" transform="translate(-20.9 -17.3)"/>
      </g>
      <ellipse class="q" cx="33.2" cy="66.5" rx="2.2" ry="3.4"/>
      <ellipse class="g" cx="32.9" cy="66.6" rx="1" ry="1.4"/>
      <ellipse class="a" cx="33.9" cy="67.8" rx="0.3" ry="0.5"/>
      <ellipse class="a" cx="32.2" cy="64.6" rx="0.6" ry="0.8"/>
      <g>
        <ellipse class="a" cx="23.2" cy="64.9" rx="4.7" ry="7.2"/>
        <path class="f" d="M48.8,82.2c0,2.4-.8,5.4-3,6.7s-4.3-.2-5.3-2.2a10.2,10.2,0,0,1-.4-8.1c0.7-2,2.6-4.2,5-3.5s3.7,4.5,3.7,7h0.1c0-2.5-.8-5.6-3.2-6.8s-4.2.3-5.2,2.1a10.2,10.2,0,0,0-.4,8.6C40.9,88,42.7,90,45,89.3s3.8-4.5,3.8-7.1H48.8Z" transform="translate(-20.9 -17.3)"/>
      </g>
      <ellipse class="q" cx="21.5" cy="66.8" rx="2.5" ry="4.2"/>
      <ellipse class="g" cx="21.1" cy="66.9" rx="1.3" ry="1.7"/>
      <ellipse class="a" cx="22.3" cy="68.4" rx="0.4" ry="0.6"/>
      <ellipse class="a" cx="20" cy="64.5" rx="0.7" ry="1"/>
      <path class="f" d="M59,88a0.1,0.1,0,0,0,0-.3,0.1,0.1,0,0,0,0,.3h0Z" transform="translate(-20.9 -17.3)"/>
      <path class="f" d="M59.5,89.5a0.1,0.1,0,0,0,0-.3,0.1,0.1,0,0,0,0,.3h0Z" transform="translate(-20.9 -17.3)"/>
      <path class="f" d="M58,88.9a0.1,0.1,0,0,0,0-.3,0.1,0.1,0,1,0,0,.3h0Z" transform="translate(-20.9 -17.3)"/>
      <path class="f" d="M39.5,89.9a0.1,0.1,0,0,0,0-.3,0.1,0.1,0,0,0,0,.3h0Z" transform="translate(-20.9 -17.3)"/>
      <path class="f" d="M38.5,90.2a0.1,0.1,0,0,0,0-.3,0.1,0.1,0,0,0,0,.3h0Z" transform="translate(-20.9 -17.3)"/>
      <path class="f" d="M36.6,90.8a0.1,0.1,0,0,0,0-.3,0.1,0.1,0,0,0,0,.3h0Z" transform="translate(-20.9 -17.3)"/>
      <path class="f" d="M36.1,88.6a0.1,0.1,0,0,0,0-.3,0.1,0.1,0,0,0,0,.3h0Z" transform="translate(-20.9 -17.3)"/>
      <path class="f" d="M37.3,89.2a0.1,0.1,0,0,0,0-.3,0.1,0.1,0,0,0,0,.3h0Z" transform="translate(-20.9 -17.3)"/>
      <path class="f" d="M38.5,88.9a0.1,0.1,0,0,0,0-.3,0.1,0.1,0,0,0,0,.3h0Z" transform="translate(-20.9 -17.3)"/>
      <path class="f" d="M38,88.2a0.1,0.1,0,0,0,0-.3,0.1,0.1,0,0,0,0,.3h0Z" transform="translate(-20.9 -17.3)"/>
    </g>
  </g>
  <g>
    <path class="a" d="M21.7,38.4a3.2,3.2,0,0,1,3.2-3.2l1.2,0.2,1.4,0.3A3,3,0,0,0,30.6,33l2.8-12.9a3.6,3.6,0,0,1,6.9,1.5L37.8,33.1c-1.4,6.2-4.2,9-9.8,9a13.9,13.9,0,0,1-4.1-.6A3.2,3.2,0,0,1,21.7,38.4Z" transform="translate(-20.9 -17.3)"/>
    <path class="a" d="M58.5,42a3.6,3.6,0,0,1-3.6-3.3V38.2H45.9l-1.1,2a3.5,3.5,0,0,1-6.6-1.6,3.7,3.7,0,0,1,.5-1.8l9.6-16.4a6.2,6.2,0,0,1,5.3-3.1,6.2,6.2,0,0,1,6.1,5.3l2.3,15.3A3.6,3.6,0,0,1,58.5,42Zm-4.2-9.9-0.8-8.4-4.4,8.4h5.2Z" transform="translate(-20.9 -17.3)"/>
    <path class="a" d="M88.2,20.7a3,3,0,0,1-.8,2.2l-6.9,6.8,4.4,7.1c1.5,2.5-.8,5.3-3.3,5.3a4.1,4.1,0,0,1-3.4-2.2l-3.3-5.2-6.1,6.2A3.6,3.6,0,0,1,66.1,42a3.4,3.4,0,0,1-3.4-3.3,2.9,2.9,0,0,1,.8-2.2L71.1,29l-4-6.5c-1.4-2.2.6-5.2,3.3-5.2a4.1,4.1,0,0,1,3.4,2.2l2.9,4.8,5.4-5.7a3.7,3.7,0,0,1,2.7-1.3A3.4,3.4,0,0,1,88.2,20.7Z" transform="translate(-20.9 -17.3)"/>
    <path class="a" d="M87.7,37.5l3.8-17.4A3.5,3.5,0,0,1,95,17.3a3.5,3.5,0,0,1,3.5,4.3l-3,13.7H101a3.2,3.2,0,1,1,0,6.3H91.1C88.4,41.7,87.2,40.1,87.7,37.5Z" transform="translate(-20.9 -17.3)"/>
    <path class="a" d="M106.6,37.7l3.9-17.6a3.6,3.6,0,0,1,6.9,1.5l-3.9,17.6A3.6,3.6,0,0,1,106.6,37.7Z" transform="translate(-20.9 -17.3)"/>
    <path class="a" d="M132.3,17.3c4.5,0,7.5,1.7,9.4,3.9a3.7,3.7,0,0,1,.8,2.3,3.6,3.6,0,0,1-6.5,2.1,4.8,4.8,0,0,0-4-1.9,6.7,6.7,0,0,0-6.6,6.9,5.1,5.1,0,0,0,5.4,5.1,5.8,5.8,0,0,0,3.6-1.4,3.4,3.4,0,0,1,2.1-.7,3.3,3.3,0,0,1,1.9,5.9,13.7,13.7,0,0,1-8,2.6c-6.9,0-12.5-4.2-12.5-11C117.9,22.8,124.4,17.3,132.3,17.3Z" transform="translate(-20.9 -17.3)"/>
    <path class="a" d="M141.8,37.7l3.9-17.6a3.6,3.6,0,0,1,6.9,1.5l-3.9,17.6A3.6,3.6,0,0,1,141.8,37.7Z" transform="translate(-20.9 -17.3)"/>
    <path class="a" d="M167.5,17.3c7.1,0,12.5,4.5,12.5,10.9s-6,13.9-14.4,13.9-12.5-4.5-12.5-11S159.2,17.3,167.5,17.3Zm-0.4,6.4a6.6,6.6,0,0,0-6.5,6.9,5,5,0,0,0,5.4,5.1,6.6,6.6,0,0,0,6.5-6.9A5,5,0,0,0,167.1,23.7Z" transform="translate(-20.9 -17.3)"/>
    <path class="a" d="M181.8,31.8l2.6-11.7a3.6,3.6,0,0,1,3.5-2.8,3.5,3.5,0,0,1,3.5,4.4l-2.2,9.9a4.8,4.8,0,0,0-.1.9,3.4,3.4,0,0,0,3.7,3.3c2.8,0,4.2-1.8,4.7-4.1l2.6-11.5a3.6,3.6,0,0,1,3.5-2.8,3.5,3.5,0,0,1,3.5,4.4l-2.2,10.1c-1.3,5.8-4.5,10.3-12,10.3s-11.2-3.6-11.2-8.8A12.2,12.2,0,0,1,181.8,31.8Z" transform="translate(-20.9 -17.3)"/>
    <path class="a" d="M207,36.8a3.3,3.3,0,0,1,3.3-3.3,3.2,3.2,0,0,1,1.8.5,11.9,11.9,0,0,0,6.4,1.9c1.5,0,2-.6,2-1.2s-1.2-1.4-3-2c-3.4-1.1-8.3-2.8-8.3-7.8,0-3.2,3.3-7.6,10.1-7.6a15.7,15.7,0,0,1,7.6,1.9,3.2,3.2,0,0,1-1.5,6.1,3.2,3.2,0,0,1-1.7-.5,10.8,10.8,0,0,0-5.2-1.5c-1.3,0-1.9.6-1.9,1.2s1.3,1.3,3.1,1.9c3.4,1.1,8.4,2.9,8.4,7.5s-3.9,8.2-10,8.2a17.8,17.8,0,0,1-9.5-2.5A3.3,3.3,0,0,1,207,36.8Z" transform="translate(-20.9 -17.3)"/>
  </g>
</svg>
