<svg xmlns="http://www.w3.org/2000/svg" width="942.6mm" height="479.6mm" viewBox="0 0 2672 1359.4">
  <defs>
    <style>
      .a {
        fill: #fff;
      }

      .b {
        fill: #c68c6d;
      }

      .c {
        fill: #754c23;
      }

      .d {
        fill: #99671c;
      }

      .e {
        fill: #f49799;
      }

      .f {
        fill: #b59e92;
      }

      .g {
        fill: #030303;
      }

      .h {
        fill: #42220f;
      }

      .i {
        fill: #f1d2c4;
      }

      .j {
        fill: #ed6130;
      }

      .k {
        fill: #f27e54;
      }

      .l {
        fill: #169b3c;
      }

      .m {
        fill: #a67d52;
      }

      .n {
        fill: #c69c6d;
      }

      .o {
        fill: #faf2a2;
      }

      .p {
        fill: #fdf8ce;
      }

      .q {
        fill: #4fc2f0;
      }
    </style>
  </defs>
  <title>logo-full-logo-biz-card-2</title>
  <g>
    <path class="a" d="M276,1554.7V1452c0-15.6,8.6-24.3,24.3-24.3h67.6c31.3,0,44.9,20.9,44.9,38.5s-11.1,31.5-25.8,34.7c16.3,2.5,28.8,17.5,28.8,37,0,21.1-14.3,41-44.7,41H300.3C284.6,1579,276,1570.4,276,1554.7Zm81.2-70.7c4.8,0,9.1-4.3,9.1-9.7a9.3,9.3,0,0,0-9.1-9.3H321.8v19h35.4Zm1.4,57.8c6.6,0,10.7-4.5,10.7-10.2a10.3,10.3,0,0,0-10.7-10.4H321.8v20.6h36.7Z" transform="translate(-268.1 -222.3)"/>
    <path class="a" d="M575.5,1558.4a22.9,22.9,0,0,1-44.9,6.6l-2.5-8.2H471.9l-2.5,8.2a22.9,22.9,0,0,1-44.9-6.6,23.4,23.4,0,0,1,1.4-7.9l36.5-98.9a40.2,40.2,0,0,1,75.3,0l36.5,98.9A23.3,23.3,0,0,1,575.5,1558.4Zm-59.4-39.7L500,1468.1l-16.1,50.6h32.2Z" transform="translate(-268.1 -222.3)"/>
    <path class="a" d="M724.3,1558.4v-74.8l-31.5,88.9a13.2,13.2,0,0,1-24.9,0l-31.5-88.9v74.8a22.9,22.9,0,0,1-45.8,0V1462a36.5,36.5,0,0,1,71-12l18.8,54.9,18.8-54.9a36.5,36.5,0,0,1,71,12v96.4A22.9,22.9,0,0,1,724.3,1558.4Z" transform="translate(-268.1 -222.3)"/>
    <path class="a" d="M814.3,1533.2c13.2,0,24,11.1,24,24.3a24,24,0,1,1-48.1,0C790.3,1544.3,801.2,1533.2,814.3,1533.2Zm-19.5-26.3-3.6-57.1a22.8,22.8,0,0,1,22.9-24.3,23,23,0,0,1,22.9,24.3l-3.4,57.1A19.4,19.4,0,0,1,794.8,1506.9Z" transform="translate(-268.1 -222.3)"/>
    <path class="a" d="M948.3,1558.4v-90.7H925.4a20,20,0,0,1,0-39.9h91.4a20,20,0,0,1,0,39.9H994.1v90.7A22.9,22.9,0,0,1,948.3,1558.4Z" transform="translate(-268.1 -222.3)"/>
    <path class="a" d="M1150.8,1558.4v-37.2h-54.2v37.2a22.9,22.9,0,0,1-45.8,0v-110a22.9,22.9,0,0,1,45.8,0v32.9h54.2v-32.9a22.9,22.9,0,1,1,45.8,0v110A22.9,22.9,0,1,1,1150.8,1558.4Z" transform="translate(-268.1 -222.3)"/>
    <path class="a" d="M1362.6,1558.4a22.9,22.9,0,0,1-44.9,6.6l-2.5-8.2h-56.2l-2.5,8.2a22.9,22.9,0,0,1-44.9-6.6,23.4,23.4,0,0,1,1.4-7.9l36.5-98.9a40.2,40.2,0,0,1,75.3,0l36.5,98.9A23.3,23.3,0,0,1,1362.6,1558.4Zm-59.4-39.7-16.1-50.6-16.1,50.6h32.2Z" transform="translate(-268.1 -222.3)"/>
    <path class="a" d="M1389.6,1558.4v-90.7h-22.9a20,20,0,0,1,0-39.9H1458a20,20,0,0,1,0,39.9h-22.7v90.7A22.9,22.9,0,0,1,1389.6,1558.4Z" transform="translate(-268.1 -222.3)"/>
    <path class="a" d="M1507.7,1503.5a10.1,10.1,0,0,1-10.2-10,10.2,10.2,0,0,1,3.4-7.7c5.4-4.8,10.4-10.9,12.2-16.3a17.8,17.8,0,0,1-5.9.9c-10.9,0-19.7-8.4-19.7-21.1a23.9,23.9,0,0,1,23.6-23.8c13.8,0,26.3,10.7,26.3,29.3s-8.2,33.1-23.1,46.3A9.9,9.9,0,0,1,1507.7,1503.5Z" transform="translate(-268.1 -222.3)"/>
    <path class="a" d="M1550.1,1551.3a20.7,20.7,0,0,1,20.6-20.6,19.9,19.9,0,0,1,10.4,2.7,69.2,69.2,0,0,0,35.6,9.8c8.6,0,16.8-2.9,16.8-8.8s-6.3-8.8-21.3-11.6c-24.9-4.5-63-10.4-63-48.3,0-25.6,21.3-49,65.1-49,16.1,0,33.6,3.2,47.2,9.3a20.4,20.4,0,0,1-8.4,39,24,24,0,0,1-9.1-1.8c-13.4-5.2-23.8-7.9-32.2-7.9-13.6,0-16.1,4.1-16.1,7.9,0,5.9,6.1,7.9,22.2,10.7,24.9,4.3,61.9,11.6,61.9,46.5,0,33.3-24.7,52.6-65.3,52.6-22,0-39-4.3-53.5-12.2A20.5,20.5,0,0,1,1550.1,1551.3Z" transform="translate(-268.1 -222.3)"/>
    <path class="a" d="M1752.6,1554.7V1452c0-15.6,8.6-24.3,24.3-24.3h43.3c47.6,0,83,27.2,83,75.5s-35.4,75.7-82.8,75.7h-43.5C1761.2,1579,1752.6,1570.4,1752.6,1554.7Zm67.6-15.6c22.9,0,36.5-16.8,36.5-35.8s-11.8-35.6-36.3-35.6h-22v71.4h21.8Z" transform="translate(-268.1 -222.3)"/>
    <path class="a" d="M1919.5,1554.7V1452c0-15.6,8.6-24.3,24.3-24.3h73.7a19,19,0,1,1,0,38.1h-52.2v17.7h50.6a19,19,0,1,1,0,38.1h-50.6v19.3h52.2a19,19,0,1,1,0,38.1h-73.7C1928.1,1579,1919.5,1570.4,1919.5,1554.7Z" transform="translate(-268.1 -222.3)"/>
    <path class="a" d="M2054.6,1554.7V1448.4a22.9,22.9,0,0,1,45.8,0v90.7h39.7a20,20,0,0,1,0,39.9h-61.2C2063.2,1579,2054.6,1570.4,2054.6,1554.7Z" transform="translate(-268.1 -222.3)"/>
    <path class="a" d="M2176.1,1558.4v-110a22.9,22.9,0,1,1,45.8,0v110A22.9,22.9,0,0,1,2176.1,1558.4Z" transform="translate(-268.1 -222.3)"/>
    <path class="a" d="M2238.3,1503.5c0-46.7,35.8-78.2,82.1-78.2,26.3,0,44,9.5,55.8,22.4a22.6,22.6,0,0,1,5.9,14.7,21.7,21.7,0,0,1-21.8,21.5,21.1,21.1,0,0,1-16.1-7.3,31.3,31.3,0,0,0-23.8-11.1c-20.9,0-35.6,16.8-35.6,37.9s14.7,37.9,35.6,37.9a31.3,31.3,0,0,0,23.8-11.1,21.1,21.1,0,0,1,16.1-7.3,21.3,21.3,0,0,1,15.9,35.8c-12,12.9-29.7,22.9-55.8,22.9C2274.1,1581.7,2238.3,1550,2238.3,1503.5Z" transform="translate(-268.1 -222.3)"/>
    <path class="a" d="M2402.2,1558.4v-110a22.9,22.9,0,1,1,45.8,0v110A22.9,22.9,0,0,1,2402.2,1558.4Z" transform="translate(-268.1 -222.3)"/>
    <path class="a" d="M2547.1,1425.3c46.7,0,82.8,31.7,82.8,78.2s-36.1,78.2-82.8,78.2-82.8-31.7-82.8-78.2S2500.4,1425.3,2547.1,1425.3Zm0,40.4c-22,0-36.3,16.8-36.3,37.9s14.3,37.9,36.3,37.9,36.3-16.8,36.3-37.9S2569.1,1465.6,2547.1,1465.6Z" transform="translate(-268.1 -222.3)"/>
    <path class="a" d="M2646.2,1448.6a23.2,23.2,0,0,1,46.5,0v66.7c0,14.5,7.5,26.1,26.3,26.1s26.1-11.6,26.1-26.1v-66.7a23.2,23.2,0,0,1,46.5,0v68c0,37.6-21.5,65.1-72.6,65.1s-72.8-27.4-72.8-64.8v-68.3Z" transform="translate(-268.1 -222.3)"/>
    <path class="a" d="M2810.3,1551.3a20.7,20.7,0,0,1,20.6-20.6,19.9,19.9,0,0,1,10.4,2.7,69.2,69.2,0,0,0,35.6,9.8c8.6,0,16.8-2.9,16.8-8.8s-6.3-8.8-21.3-11.6c-24.9-4.5-63-10.4-63-48.3,0-25.6,21.3-49,65.1-49,16.1,0,33.6,3.2,47.2,9.3a20.4,20.4,0,0,1-8.4,39,24,24,0,0,1-9.1-1.8c-13.4-5.2-23.8-7.9-32.2-7.9-13.6,0-16.1,4.1-16.1,7.9,0,5.9,6.1,7.9,22.2,10.7,24.9,4.3,61.9,11.6,61.9,46.5,0,33.3-24.7,52.6-65.3,52.6-22,0-39-4.3-53.5-12.2A20.5,20.5,0,0,1,2810.3,1551.3Z" transform="translate(-268.1 -222.3)"/>
  </g>
  <g>
    <g>
      <path class="b" d="M2524,814.2c-14.4-12.5-61.7,173.3-77.4,177.2l-11.2,5.3c-16.4,11-14.8,37.9-4.9,55.7,12.4,22.1,56.3,39.3,76.8,36.6,0.9,2.2,2.7,3.8,3.9,5.9a82.7,82.7,0,0,1,3.8,8l0.6,1.1c15.6,73.2,66.4,88.4,146.8,115.6,34,15.2,77.5,22.1,114.2,4.8,41.3-18.2,78.1-45.4,111.3-79a114.4,114.4,0,0,0,38.3-49.4c7.5-29.7.3-60.6-9.9-104.5-7.7-26.9,3.5-113.8,0-132-7.3-15.3-70.3-102.1-87.5-102.8" transform="translate(-268.1 -222.3)"/>
      <path class="c" d="M2492.5,1020.5q-21.5-10.3-43.2,2.9c-2.5,13.7.4,21.9,7.6,25.9-2.1-14.1-1.9-22.1,3.5-16.6l10.5,6.8Z" transform="translate(-268.1 -222.3)"/>
      <path class="c" d="M2657.5,906.9c31.4-30.7,56.7-30.6,78.5-12.7Q2696.7,888.4,2657.5,906.9Z" transform="translate(-268.1 -222.3)"/>
      <path class="c" d="M2891.4,922.6c-24.3-32.9-44-32.7-60.9-13.6Q2860.9,902.8,2891.4,922.6Z" transform="translate(-268.1 -222.3)"/>
      <path class="d" d="M2774,1103.1a21.9,21.9,0,0,1,22.8.1c2,1.2,3.9-2,1.9-3.2a25.6,25.6,0,0,0-26.5-.1c-2,1.2-.2,4.4,1.9,3.2h0Z" transform="translate(-268.1 -222.3)"/>
      <path class="e" d="M2726.7,1172.9l63.3,6.3c1.6,0.2,3.4.4,4.5,1.4a3.4,3.4,0,0,1,.2,4.4,10.7,10.7,0,0,1-4,3.1,52.7,52.7,0,0,1-35.8,4.2c-11.9-2.9-22.3-10.1-27.9-19.5" transform="translate(-268.1 -222.3)"/>
      <path class="c" d="M2715.7,1150.2c28.4,8,58.7,7.8,87.4,1.1l-2.7-1.5c4.1,22.2-13.3,49.9-38.2,44.1-21.8-5.1-36.4-26.6-43.8-46.3-1-2.6-5.2-1.5-4.3,1.2,8.3,22.3,26.1,47.9,52.1,50.3s42.6-27.2,38.4-50.4a2.2,2.2,0,0,0-2.7-1.5c-27.9,6.5-57.4,6.8-85-1.1-2.7-.8-3.9,3.5-1.2,4.3h0Z" transform="translate(-268.1 -222.3)"/>
      <g>
        <ellipse class="a" cx="2589.8" cy="797.3" rx="52.2" ry="74.7"/>
        <path class="f" d="M2909.7,1019.6c-0.2,25.6-9.3,56.1-33.2,69.3s-46.9-1.6-58.7-22.3c-14.2-24.9-15.4-57.7-4.8-84.2,8.8-21.8,29.7-43.1,55.3-35.6,29.7,8.7,41.2,45.2,41.4,72.8a0.4,0.4,0,0,0,.7,0c-0.2-26.2-9.8-58.1-35-70.8-22.6-11.4-45.7,2.3-57.5,22.2-15.2,25.6-16.4,60-4.9,87.3,9.1,21.5,29.9,41.9,55.1,34.9,30.4-8.4,42.2-45.7,42.5-73.7A0.4,0.4,0,0,0,2909.7,1019.6Z" transform="translate(-268.1 -222.3)"/>
      </g>
      <ellipse class="d" cx="2571.9" cy="816.6" rx="28.8" ry="43.5"/>
      <ellipse class="g" cx="2567.8" cy="817.9" rx="13" ry="18.1"/>
      <ellipse class="a" cx="2580.6" cy="833.5" rx="4.4" ry="6.1"/>
      <ellipse class="a" cx="2558" cy="791.7" rx="7.6" ry="10.4"/>
      <g>
        <ellipse class="a" cx="2442" cy="795.5" rx="60.9" ry="93.6"/>
        <path class="f" d="M2770.6,1017.8c-0.2,31.2-10.1,70.3-39.1,87.2a41.8,41.8,0,0,1-38.9,2c-13.2-6.1-23-18.1-29.6-30.7-16.6-31.6-17.8-72.5-5.1-105.7,9.8-25.6,33.6-53.8,64.2-44.2,15.7,4.9,27.2,18.2,34.7,32.3,9.6,18.1,13.6,38.8,13.7,59.1a0.4,0.4,0,0,0,.7,0c-0.2-31.8-10.6-72.3-40.9-88.7a42.2,42.2,0,0,0-36.2-2.1c-13.9,5.7-24.2,17.8-31.2,30.7-17.8,32.7-18.8,75.8-4.8,110.1,10.2,24.9,33.8,51.1,63.6,42.3,15.4-4.6,27-17.3,34.7-31,10.4-18.6,14.7-40.1,14.8-61.3A0.4,0.4,0,0,0,2770.6,1017.8Z" transform="translate(-268.1 -222.3)"/>
      </g>
      <ellipse class="d" cx="2419.7" cy="819.6" rx="33" ry="54.5"/>
      <ellipse class="g" cx="2415.1" cy="821.3" rx="16.8" ry="22.6"/>
      <ellipse class="a" cx="2430.4" cy="840.4" rx="5.7" ry="7.8"/>
      <ellipse class="a" cx="2399.8" cy="790.7" rx="8.7" ry="13"/>
      <path class="h" d="M2470.4,1358.7c-176.8-363.1-47.4-644.8,154.8-669.3,184.8-22.4,276.5,24.5,304,205.1-176.7-39.9-304.6-68.6-356.6-32.5-22.1,49.2-80.1,277.8,82.8,355.3" transform="translate(-268.1 -222.3)"/>
      <path class="c" d="M2490.5,800c11-56.3,101.9-78.4,119.4-82.4" transform="translate(-268.1 -222.3)"/>
    </g>
    <g>
      <path class="i" d="M1797.3,1048.3c-13.8-12-25.7-10.2-40.9-6.5l-10.7,5c-15.7,10.6-14.2,36.2-4.7,53.1,12.5,22.3,27.5,31.6,45.4,26.6,8.1,0,15.9-7.2,22.1-7.2,21,68,76.9,114.4,153.9,140.4,32.4,14.6,74,21.1,109.1,4.6,39.5-17.4,74.6-43.4,106.3-75.5a110.3,110.3,0,0,0,36.6-47.2c7.2-28.4.3-57.9-9.5-99.7-7.4-25.7,3.3-108.6,0-126-7-14.6-20.2-20.2-36.6-20.9l-7.5,31.6c-27.4-41-62.5-60.2-102.1-66.4l15.7,67.2c-44.7-33-94.9-46-150.2-40.6l10.9,56.5-50.6-13.2c-19.6,4.6-26,65.7-11.7,90.4-16-9-37.1-46.3-33.5-5.6,0.8,8.6-1.9,38.1,3.6,54.5C1826.3,1065.5,1810.5,1059.4,1797.3,1048.3Z" transform="translate(-268.1 -222.3)"/>
      <path class="i" d="M2204.9,1041.9c-7.4-25.7,3.3-108.6,0-126-7-14.6-20.2-20.2-36.6-20.9l-7.5,31.6c-27.4-41-62.5-60.2-102.1-66.4l15.7,67.2c-44.7-33-94.9-46-150.2-40.6l10.9,56.5L1884.4,930c-19.6,4.6-26,65.7-11.7,90.4-16-9-37.1-46.3-33.5-5.6,0.8,8.6-1.9,38.1,3.6,54.5-16.7-3.8-32.4-9.9-45.6-21s-25.7-10.2-40.9-6.5l-10.7,5c-15.7,10.6-14.2,36.2-4.7,53.1,11.8,21.1,81.1,49,81.2,49.2,14.9,70,63.3,84.4,140.2,110.5,32.4,14.6,74,21.1,109.1,4.6,39.5-17.4,74.6-43.4,106.3-75.5a110.3,110.3,0,0,0,36.6-47.2C2221.5,1113.2,2214.5,1083.8,2204.9,1041.9Z" transform="translate(-268.1 -222.3)"/>
      <path class="d" d="M1795.7,1069.6c-13.8-6.5-27.4-5.6-41.3,2.8-2.4,13.1.3,21,7.2,24.8-2.1-13.5-1.8-21,3.3-15.9l10,6.4Z" transform="translate(-268.1 -222.3)"/>
      <path class="d" d="M1953.1,961.1c29.9-29.4,54.1-29.2,75-12.1C2003.1,945.3,1978.2,949.4,1953.1,961.1Z" transform="translate(-268.1 -222.3)"/>
      <path class="d" d="M2176.4,976.1c-23.2-31.4-42-31.3-58.1-12.9C2137.7,959.1,2157.1,963.6,2176.4,976.1Z" transform="translate(-268.1 -222.3)"/>
      <path class="d" d="M2064.6,1148.7a20.2,20.2,0,0,1,21.4.1c2.4,1.4,4.5-2.2,2.1-3.6a25.1,25.1,0,0,0-25.7-.1c-2.2,1.4,0,5,2.2,3.6h0Z" transform="translate(-268.1 -222.3)"/>
      <path class="e" d="M2019.2,1215.1l60.5,6a7.6,7.6,0,0,1,4.3,1.4,3.2,3.2,0,0,1,.1,4.2,9.3,9.3,0,0,1-3.9,2.9,50,50,0,0,1-34.2,4c-11.4-2.8-21.3-9.6-26.7-18.6" transform="translate(-268.1 -222.3)"/>
      <path class="d" d="M2008.6,1193.8c27.3,7.7,56.1,7.4,83.6,1a35.2,35.2,0,0,1-3.1-1.8c3.6,21.1-12.7,47.3-36.4,41.5-20.4-5-34.1-25.3-41-43.8-1.1-3.1-6-1.7-4.9,1.4,8.2,21.7,25.9,47.3,51.6,48.4s39.4-26.8,35.6-48.7a2.5,2.5,0,0,0-3.1-1.8c-26.7,6.1-54.5,6.4-81-1-3.2-.8-4.6,4-1.4,4.9h0Z" transform="translate(-268.1 -222.3)"/>
      <path class="j" d="M1848,1074.8c-84-53.7-21.8,128.4,21.8,112,15.9-6-44.4,123.5-120.3,109.3-43.4-8.1-38.1-134.8-33.4-124,10.7,24.2,40.1,36.6,6.5-27.4-121.4-232,92.6-449.5,275.2-434.3,48,9.9,55.1,17.7,77.6,36.7,6.4-16.6-2.1-44-11.8-62q32.6,19,49.9,54.3c19.2-15.3,28-39.2,25.5-72.5,47.2,42.7,68,87.6,44.2,135.6,25.5-9.2,44-28.2,57-55.4,5.3,37.8-3.6,69.6-28.7,94,23.6-3.6,41.7-13.1,53.1-29.6-3.3,35.2-17,58.3-39.8,70.7,17,29.2,17.1,60.8,5.6,94-3.6-29.1-20.3-60.1-54.5-63.6-15.7,1.7-13.6,21.4-11.7,31.6-13.8-32.1-45.4-51.2-77.1-62,13.1,23.2.4,48.6-18.4,62-45.5-32.6-81.4-50.1-129.7-46.5-6.7,7.7-6.5,28.2,0,61.2-18.5-15.7-37.7-19.9-57.6-14.9-18.5,25.2-15,56.8-3.3,90.7-12.5-16.6-24.5-26-35.5-25.5C1854.9,1035.1,1858.1,1052.2,1848,1074.8Z" transform="translate(-268.1 -222.3)"/>
      <path class="k" d="M1940.2,741.5c46-9.3,92-3.2,107.8,25.5-44.7-9.5-109.9-.6-188.9,20.4Z" transform="translate(-268.1 -222.3)"/>
      <path class="k" d="M1732.5,962.6c0.8-36.9,14.7-59.8,33.7-77.3-13.2,32.3-17.3,83.7-15.2,147.9Z" transform="translate(-268.1 -222.3)"/>
      <g>
        <ellipse class="a" cx="1876.4" cy="846.4" rx="49.8" ry="71.2"/>
        <path class="f" d="M2193.8,1068.7c-0.3,24.3-8.8,53.6-31.6,66.1s-45.4-1.9-56.6-22.3c-12.9-23.2-14.1-53.6-4.5-78.2,8.2-21.1,28.4-42.4,53.1-35.1,28.5,8.3,39.2,43,39.5,69.4a0.4,0.4,0,0,0,.8,0c-0.3-25.2-9.6-56.1-34.1-67.9-21.7-10.4-43.5,2.9-54.7,22-14.3,24.6-15.4,57.3-4.3,83.3,8.8,20.3,28.4,39.5,52.3,33.1,29.2-7.9,40.5-43.7,40.8-70.4C2194.8,1068.2,2193.9,1068.2,2193.8,1068.7Z" transform="translate(-268.1 -222.3)"/>
      </g>
      <ellipse class="l" cx="1859.2" cy="864.8" rx="27.5" ry="41.5"/>
      <ellipse class="g" cx="1855.3" cy="866" rx="12.4" ry="17.3"/>
      <ellipse class="a" cx="1867.6" cy="880.9" rx="4.2" ry="5.8"/>
      <ellipse class="a" cx="1846" cy="841.1" rx="7.2" ry="9.9"/>
      <g>
        <ellipse class="a" cx="1735.3" cy="844.6" rx="58.1" ry="89.3"/>
        <path class="f" d="M2061.1,1066.9c-0.3,29.8-9.6,67.1-37.3,83.2s-53.4-4-65.8-28.2c-15.3-29.9-16.4-68-4.6-99.3,9.3-24.8,32.1-52,61.6-42.8,34.2,10.9,45.8,55.8,46,87.2a0.4,0.4,0,0,0,.8,0c-0.3-30.5-10-69-39-84.7-25.6-13.9-51.1,3.3-63.9,26-17.8,31.6-18.9,73.7-5,107,9.9,23.6,32.3,48.3,60.5,39.9,35.2-10.4,47.2-56.1,47.4-88.2C2061.9,1066.4,2061.1,1066.4,2061.1,1066.9Z" transform="translate(-268.1 -222.3)"/>
      </g>
      <ellipse class="l" cx="1714" cy="867.7" rx="31.6" ry="52"/>
      <ellipse class="g" cx="1709.6" cy="869.4" rx="16" ry="21.6"/>
      <ellipse class="a" cx="1724.2" cy="887.6" rx="5.4" ry="7.5"/>
      <ellipse class="a" cx="1695.1" cy="840" rx="8.3" ry="12.5"/>
      <path class="f" d="M2188.2,1139.4c2.6,0,2.6-4.2,0-4.2s-2.6,4.2,0,4.2h0Z" transform="translate(-268.1 -222.3)"/>
      <path class="f" d="M2194.1,1157.8c2.6,0,2.6-4.2,0-4.2s-2.6,4.2,0,4.2h0Z" transform="translate(-268.1 -222.3)"/>
      <path class="f" d="M2175,1150.2c2.6,0,2.6-4.2,0-4.2a2.1,2.1,0,1,0,0,4.2h0Z" transform="translate(-268.1 -222.3)"/>
      <path class="f" d="M1945.9,1163.6c2.6,0,2.6-4.2,0-4.2a2.1,2.1,0,0,0,0,4.2h0Z" transform="translate(-268.1 -222.3)"/>
      <path class="f" d="M1933.4,1166.8c2.6,0,2.6-4.2,0-4.2s-2.6,4.2,0,4.2h0Z" transform="translate(-268.1 -222.3)"/>
      <path class="f" d="M1911,1174.3c2.6,0,2.6-4.2,0-4.2s-2.6,4.2,0,4.2h0Z" transform="translate(-268.1 -222.3)"/>
      <path class="f" d="M1904.3,1146.9c2.6,0,2.6-4.2,0-4.2s-2.6,4.2,0,4.2h0Z" transform="translate(-268.1 -222.3)"/>
      <path class="f" d="M1919.3,1154.4c2.6,0,2.6-4.2,0-4.2a2.1,2.1,0,0,0,0,4.2h0Z" transform="translate(-268.1 -222.3)"/>
      <path class="f" d="M1934.2,1151.1c2.6,0,2.6-4.2,0-4.2s-2.6,4.2,0,4.2h0Z" transform="translate(-268.1 -222.3)"/>
      <path class="f" d="M1927.5,1141.9c2.6,0,2.6-4.2,0-4.2s-2.6,4.2,0,4.2h0Z" transform="translate(-268.1 -222.3)"/>
    </g>
    <g>
      <path class="m" d="M1525.2,1059.5c-7.7-27.1,3.4-114.5,0-132.8-56.5-252.9-504.6,75.6-483.8,138-16.5,11.2-14.9,38.2-5,56.1,12.5,22.3,56.6,39.5,77.3,36.9,1,2.2,2.6,3.9,4,5.9s2.5,5.4,3.9,8c0.1,0.4.4,0.7,0.6,1.1,15.7,73.7,66.8,89,147.7,116.3,34.2,15.3,78,22.3,114.9,4.8,41.6-18.3,78.5-45.6,112-79.5a114.3,114.3,0,0,0,38.4-49.7C1542.7,1134.9,1535.4,1103.8,1525.2,1059.5Z" transform="translate(-268.1 -222.3)"/>
      <path class="c" d="M1094,1088.7c-14.5-6.9-28.9-5.9-43.5,2.9-2.5,13.8.4,22,7.6,26-2.2-14.2-1.9-22.2,3.4-16.7l10.6,6.8Z" transform="translate(-268.1 -222.3)"/>
      <path class="c" d="M1259.9,974.5c31.5-31,57-30.7,79.1-12.8Q1299.5,955.9,1259.9,974.5Z" transform="translate(-268.1 -222.3)"/>
      <path class="c" d="M1495.3,990.4c-24.5-33.1-44.2-32.9-61.3-13.6Q1464.6,970.3,1495.3,990.4Z" transform="translate(-268.1 -222.3)"/>
      <path class="n" d="M1377.8,1171.8a24.5,24.5,0,0,1,25.6.1c2.6,1.5,5-2.5,2.3-4a29.5,29.5,0,0,0-30.3-.1c-2.6,1.5-.3,5.5,2.3,4h0Z" transform="translate(-268.1 -222.3)"/>
      <path class="e" d="M1329.6,1242.1l63.6,6.3c1.7,0.1,3.4.4,4.5,1.4s1.1,3,.3,4.4a10.7,10.7,0,0,1-4.1,3.2,53,53,0,0,1-36,4.3c-12-2.9-22.5-10.2-28.1-19.7" transform="translate(-268.1 -222.3)"/>
      <path class="c" d="M1317.8,1222.1c29.2,8.1,60.1,7.9,89.5,1.1l-6.3-3.6c3.7,20.8-12.7,46.4-36,40.5-20.4-5.2-33.9-25.8-40.9-44.2-2.3-6.2-12.3-3.4-9.9,2.8,9,23.8,28,50.7,55.8,52.8s45.3-29.6,40.9-54.4c-0.6-2.9-3.9-4.1-6.3-3.6-27.7,6.3-56.6,6.6-84-1.1-6.5-1.9-9.2,8-2.8,9.8h0Z" transform="translate(-268.1 -222.3)"/>
      <path class="g" d="M1087.7,1061.6c-4-10.1,13.1,4,0,0,0,0-46-10.1-58.7,28.9-167.9-247.8,41.9-406.8,261.5-416.1,232.4-9.8,372.8,96.2,235.3,273.9-103.9-131.2-319.2-28.9-370.9,113.9C1143.8,1106.1,1120.3,1144.7,1087.7,1061.6Z" transform="translate(-268.1 -222.3)"/>
      <g>
        <ellipse class="a" cx="1193.5" cy="865.6" rx="52.5" ry="75.1"/>
        <path class="f" d="M1513.7,1087.9c-0.3,25.6-9.2,56.3-33.2,69.7s-47.5-1.8-59.5-22.9c-13.9-24.8-15.2-57-4.8-83.3,8.7-22.2,29.9-44.2,55.8-36.6,30,8.7,41.5,45.5,41.7,73.2a0.4,0.4,0,0,0,.8,0c-0.3-26.7-10.2-59.5-36.4-71.8-22.6-10.6-45.2,3.3-56.9,23-15.3,25.8-16.5,60.2-5.1,87.5,9,21.5,29.5,42,54.7,35.7,31.3-7.9,43.4-46,43.7-74.4A0.4,0.4,0,0,0,1513.7,1087.9Z" transform="translate(-268.1 -222.3)"/>
      </g>
      <ellipse class="c" cx="1175.5" cy="885" rx="29.1" ry="43.7"/>
      <ellipse class="g" cx="1171.3" cy="886.3" rx="13.1" ry="18.2"/>
      <ellipse class="a" cx="1184.3" cy="902" rx="4.4" ry="6.1"/>
      <ellipse class="a" cx="1161.4" cy="860" rx="7.6" ry="10.5"/>
      <g>
        <ellipse class="a" cx="1044.9" cy="863.7" rx="61.2" ry="94.1"/>
        <path class="f" d="M1373.7,1086c-0.3,31.4-10.2,71.2-39.8,88-28,15.8-55.5-4.5-68.6-29.5-16.3-31.4-17.5-71.6-5.4-104.6,9.5-26,33.3-55.1,64.5-45.9,36.8,10.7,49,58.7,49.3,91.9a0.4,0.4,0,0,0,.8,0c-0.3-32.1-10.6-73.2-41.6-89.4-27.1-14.3-53.7,4.3-67.1,28.1-18.3,32.9-19.6,76.7-5.4,111.5,10.2,25.2,34,51.7,64.1,42.8,37.1-11,49.6-59.1,49.9-92.9C1374.5,1085.4,1373.7,1085.4,1373.7,1086Z" transform="translate(-268.1 -222.3)"/>
      </g>
      <ellipse class="c" cx="1022.4" cy="888.1" rx="33.2" ry="54.8"/>
      <ellipse class="g" cx="1017.7" cy="889.7" rx="16.9" ry="22.7"/>
      <ellipse class="a" cx="1033.2" cy="909" rx="5.8" ry="7.9"/>
      <ellipse class="a" cx="1002.4" cy="858.8" rx="8.7" ry="13.1"/>
    </g>
    <g>
      <path class="i" d="M775.8,1030.4c-7.6-26.7,3.4-112.8,0-130.9-7.3-15.2-20.9-21-38-21.6L730,910.7c-28.4-42.6-64.9-62.5-106-68.9l16.4,69.9c-46.3-34.3-98.5-47.8-156-42.2L495.5,928,443,914.2c-20.4,4.7-27.1,68.2-12,93.9-16.6-9.3-38.6-48.2-34.8-5.7,0.8,9-1.9,39.7,3.8,56.5-17.3-3.9-33.6-10.2-47.4-21.8s-26.8-10.6-42.5-6.7l-11.2,5.2c-16.3,10.9-14.7,37.6-4.9,55.2,12.3,22,55.8,38.9,76.2,36.3,0.8,2.2,2.7,3.8,3.9,5.8s2.5,5.3,3.8,7.9a4.9,4.9,0,0,0,.6,1.1c15.4,72.7,65.8,87.7,145.6,114.6,33.7,15.2,76.9,22,113.2,4.7,41-18.1,77.4-45,110.3-78.4a114,114,0,0,0,38-49C793,1104.6,785.7,1074.1,775.8,1030.4Z" transform="translate(-268.1 -222.3)"/>
      <path class="f" d="M350.8,1059.3c-14.2-6.8-28.5-5.8-42.8,2.9-2.5,13.6.4,21.7,7.5,25.7-2.2-14.1-1.9-21.8,3.4-16.4l10.4,6.7Z" transform="translate(-268.1 -222.3)"/>
      <path class="d" d="M514.3,946.7c31.1-30.4,56.2-30.3,77.9-12.6Q553.3,928.3,514.3,946.7Z" transform="translate(-268.1 -222.3)"/>
      <path class="d" d="M746.2,962.2c-24.1-32.6-43.6-32.5-60.4-13.5Q715.9,942.6,746.2,962.2Z" transform="translate(-268.1 -222.3)"/>
      <path class="d" d="M629.8,1141.2a21.5,21.5,0,0,1,22.7.1,1.8,1.8,0,0,0,1.8-3.2,25.4,25.4,0,0,0-26.3-.1c-1.9,1.2-.1,4.2,1.8,3.2h0Z" transform="translate(-268.1 -222.3)"/>
      <path class="e" d="M582.9,1210.3l62.7,6.2c1.6,0.1,3.4.4,4.4,1.3a3.5,3.5,0,0,1,.2,4.4,10.6,10.6,0,0,1-4,3.2,51.6,51.6,0,0,1-35.4,4.1c-11.8-2.8-22.1-10.1-27.7-19.4" transform="translate(-268.1 -222.3)"/>
      <path class="d" d="M572.1,1187.9c28.3,7.9,58.2,7.6,86.6,1.1a30.7,30.7,0,0,1-2.7-1.6c4,22.3-13.3,49.6-38.2,43.7-21.5-5.1-35.8-26.6-43.1-45.9-1-2.7-5.2-1.5-4.2,1.2,8.4,22.2,26.2,48,52.3,49.9s41.5-27.3,37.5-50a2.2,2.2,0,0,0-2.7-1.6c-27.7,6.4-56.8,6.7-84.3-1.1-2.8-.7-4,3.5-1.2,4.2h0Z" transform="translate(-268.1 -222.3)"/>
      <path class="o" d="M399.9,1074c-11.5-13.5-38.5-26.6-55.4-41.5-8-7,13,4,0,0,0,0-45.4-9.9-57.9,28.5-49.9-109.1,11.8-227.8,55.6-307,4.1,11.3,7.4,40.4,26.7,37.6-11.9-7.8-18.6-57.3-15.5-76.7,13.8,21.5,21.6,67.1,22.4,68.3-5.8-16.4,2.2-58.2,8.6-67.2-1.6,20.7-5.9,61.3,5.2,62.6,9-5.3,16.7-12.9,24.1-20.9,12.4-13.6,23.9-28.6,38.9-37.7,26.6-15.9,65.9-26.9,88.6-24.1,44.2-1.9,64.2,26.4,100,28.8,6.7-17.2-2.2-45.6-12.3-64.4,22.6,13.2,39.9,31.9,51.9,56.3,20-15.8,29-40.6,26.4-75.2,49,44.4,70.6,91.1,46,140.8,26.3-9.5,45.6-29.4,59.2-57.5,5.5,39.3-3.8,72.2-29.8,97.7,24.5-3.8,43.3-13.6,55.1-30.8-3.4,36.5-17.6,60.5-41.4,73.4,17.6,30.3,17.7,63.1,5.7,97.5-3.8-30.2-21.1-62.5-56.7-66-16.4,1.8-14.1,22.2-12,32.8-14.3-33.4-47.1-53.1-80.1-64.3,13.6,24.1.4,50.5-19,64.3-47.1-33.6-84.4-51.9-134.4-48-6.9,7.9-6.8,29.4,0,63.6-19.2-16.4-39.2-20.6-59.8-15.5-19.2,26.2-15.6,59-3.4,94.3-13-17.1-25.4-27.1-36.8-26.4C412.3,1023.4,410.4,1050.4,399.9,1074Z" transform="translate(-268.1 -222.3)"/>
      <path class="p" d="M515.4,724.7c47.8-9.6,82.5,3.9,112,26.3-46.3-9.8-114.2-.6-196.2,21.2Z" transform="translate(-268.1 -222.3)"/>
      <path class="p" d="M285.3,948.3c0.8-38.3,15.3-62.1,34.9-80.3-13.7,33.5-18,86.9-15.8,153.6Z" transform="translate(-268.1 -222.3)"/>
      <g>
        <ellipse class="a" cx="445" cy="836.1" rx="51.7" ry="74"/>
        <path class="f" d="M764.3,1058.4c-0.2,25.5-9.2,55.9-33.2,68.9s-46.7-2.2-58.2-22.9c-13.7-24.5-14.8-56.3-4.6-82.2,8.6-22,29.7-43.7,55.4-35.9,29.2,8.9,40.4,44.9,40.6,72.2a0.4,0.4,0,0,0,.7,0c-0.2-26-9.7-57.6-34.8-70.2-22.3-11.2-45,2.1-56.8,21.7-15.3,25.4-16.6,59.4-5.2,86.6,8.9,21.4,29.4,41.6,54.3,35.1,30.4-8,42.3-45.2,42.6-73.2C765.1,1057.9,764.3,1057.9,764.3,1058.4Z" transform="translate(-268.1 -222.3)"/>
      </g>
      <ellipse class="q" cx="427.1" cy="855.2" rx="28.6" ry="43.1"/>
      <ellipse class="g" cx="423.1" cy="856.5" rx="12.9" ry="18"/>
      <ellipse class="a" cx="435.8" cy="871.9" rx="4.4" ry="6.1"/>
      <ellipse class="a" cx="413.4" cy="830.5" rx="7.5" ry="10.3"/>
      <g>
        <ellipse class="a" cx="298.4" cy="834.3" rx="60.3" ry="92.8"/>
        <path class="f" d="M626.4,1056.6c-0.2,30.8-9.9,69.3-38.5,86.3s-54.8-3-68.1-27.8c-16.6-31.3-17.8-71.7-5.5-104.7,9.6-25.6,33.4-54,64.1-44.4,35.7,11.3,47.7,57.7,47.9,90.6a0.4,0.4,0,0,0,.7,0c-0.2-31.5-10.4-71.7-40.5-87.8-26.8-14.4-53.4,3.9-66.5,27.5-18.1,32.5-19.2,75.7-5.1,109.9,10.2,24.7,33.5,50.6,63.1,41.9,36.4-10.8,48.9-58.2,49-91.5A0.4,0.4,0,1,0,626.4,1056.6Z" transform="translate(-268.1 -222.3)"/>
      </g>
      <ellipse class="q" cx="276.3" cy="858.2" rx="32.8" ry="54"/>
      <ellipse class="g" cx="271.7" cy="859.9" rx="16.6" ry="22.4"/>
      <ellipse class="a" cx="286.9" cy="878.8" rx="5.7" ry="7.8"/>
      <ellipse class="a" cx="256.6" cy="829.4" rx="8.6" ry="13"/>
      <path class="f" d="M758.4,1131.5c2.3,0,2.3-3.6,0-3.6s-2.3,3.6,0,3.6h0Z" transform="translate(-268.1 -222.3)"/>
      <path class="f" d="M764.5,1150.5c2.3,0,2.3-3.6,0-3.6s-2.3,3.6,0,3.6h0Z" transform="translate(-268.1 -222.3)"/>
      <path class="f" d="M744.7,1142.7c2.3,0,2.3-3.6,0-3.6a1.8,1.8,0,1,0,0,3.6h0Z" transform="translate(-268.1 -222.3)"/>
      <path class="f" d="M506.8,1156.4c2.3,0,2.3-3.6,0-3.6a1.8,1.8,0,1,0,0,3.6h0Z" transform="translate(-268.1 -222.3)"/>
      <path class="f" d="M493.8,1160c2.3,0,2.3-3.6,0-3.6s-2.3,3.6,0,3.6h0Z" transform="translate(-268.1 -222.3)"/>
      <path class="f" d="M470.5,1167.7c2.3,0,2.3-3.6,0-3.6s-2.3,3.6,0,3.6h0Z" transform="translate(-268.1 -222.3)"/>
      <path class="f" d="M463.6,1139.2c2.3,0,2.3-3.6,0-3.6s-2.3,3.6,0,3.6h0Z" transform="translate(-268.1 -222.3)"/>
      <path class="f" d="M479.1,1147c2.3,0,2.3-3.6,0-3.6s-2.3,3.6,0,3.6h0Z" transform="translate(-268.1 -222.3)"/>
      <path class="f" d="M494.7,1143.6c2.3,0,2.3-3.6,0-3.6s-2.3,3.6,0,3.6h0Z" transform="translate(-268.1 -222.3)"/>
      <path class="f" d="M487.8,1134.1c2.3,0,2.3-3.6,0-3.6s-2.3,3.6,0,3.6h0Z" transform="translate(-268.1 -222.3)"/>
    </g>
  </g>
  <g>
    <path class="a" d="M271.2,494.4a41.5,41.5,0,0,1,41.6-41.6,42.5,42.5,0,0,1,15.3,2.8,52.8,52.8,0,0,0,18.5,3.7c21.3,0,34.7-13,39.3-34.7l36.6-166.1A45.2,45.2,0,0,1,467,222.8c29.2,0,51.8,25.5,44.9,55.5L479,425.9c-17.6,79.1-53.7,115.7-125.4,115.7a178.7,178.7,0,0,1-53.2-7.9C283.3,528.2,271.2,512.9,271.2,494.4Z" transform="translate(-268.1 -222.3)"/>
    <path class="a" d="M744.6,540.7a46.8,46.8,0,0,1-46.7-42.6l-0.5-7.4H583.1l-13.9,25.9a44.9,44.9,0,0,1-39.8,24.1c-25,0-45.3-20.4-45.3-44.9a48.1,48.1,0,0,1,6.5-23.1l124-210.6c13.9-23.1,39.3-39.3,68.5-39.3a79.4,79.4,0,0,1,78.7,68L790.9,487A46.8,46.8,0,0,1,744.6,540.7ZM690.5,413l-9.7-107.8L623.9,413h66.6Z" transform="translate(-268.1 -222.3)"/>
    <path class="a" d="M1126.4,266.3c0,10.6-3.2,21.3-10.6,28.2l-89.3,87.9,56,90.7c19.9,32.4-9.7,67.6-43,67.6-19.4,0-34.2-13.4-43.5-28.2l-42.1-67.1L875.1,525c-8.3,8.8-19.9,15.7-33.3,15.7-24.1,0-43.5-19.4-43.5-43,0-11.1,3.2-21.3,10.6-28.2l97.6-96.3-51.8-83.3c-18-28.7,8.3-67.1,43-67.1,19.4,0,34.2,13.4,43.5,28.7l37.5,61.1,69.9-73.1c8.8-9.3,20.4-16.7,34.2-16.7A43.4,43.4,0,0,1,1126.4,266.3Z" transform="translate(-268.1 -222.3)"/>
    <path class="a" d="M1120.4,481.9l49.1-223.5c4.6-20.8,22.7-35.6,44.9-35.6,28.7,0,51.4,25,44.4,55.5l-38.9,176.3h71.3a40.7,40.7,0,1,1,0,81.4H1163.9C1129.2,536.1,1113,516.2,1120.4,481.9Z" transform="translate(-268.1 -222.3)"/>
    <path class="a" d="M1362.9,485.2l50-226.7a45.2,45.2,0,0,1,44.4-35.6c29.2,0,51.8,25,44.9,55.5l-50,226.7a45.2,45.2,0,0,1-44.4,35.6C1378.6,540.7,1356.4,515.2,1362.9,485.2Z" transform="translate(-268.1 -222.3)"/>
    <path class="a" d="M1693.7,222.3c57.4,0,95.8,21.3,120.3,50.4a47.2,47.2,0,0,1,10.6,29.6c0,25.5-20.8,45.8-46.3,45.8a46.2,46.2,0,0,1-37-18.5c-11.6-16.2-30.1-25-51.8-25-50,0-84.7,42.6-84.7,88.8,0,35.2,26.8,65.7,69.4,65.7,15.7,0,32.9-6.5,46.3-17.6a43.7,43.7,0,0,1,26.8-9.3,42,42,0,0,1,25,75.9c-34.7,25.5-73.6,33.3-103.2,33.3-88.4,0-161-54.6-161-141.6C1508.2,293.1,1591,222.3,1693.7,222.3Z" transform="translate(-268.1 -222.3)"/>
    <path class="a" d="M1815,485.2l50-226.7a45.2,45.2,0,0,1,44.4-35.6c29.2,0,51.8,25,44.9,55.5l-50,226.7a45.2,45.2,0,0,1-44.4,35.6C1830.7,540.7,1808.5,515.2,1815,485.2Z" transform="translate(-268.1 -222.3)"/>
    <path class="a" d="M2145.8,222.3c91.2,0,160.6,57.4,160.6,140.7,0,98.6-77.7,178.6-185.1,178.6-91.6,0-161-57.8-161-141.6C1960.3,301.4,2038.5,222.3,2145.8,222.3Zm-5.6,82.4c-49.1,0-83.3,41.6-83.3,88.8,0,37.9,27.8,65.7,69.4,65.7,49.1,0,83.3-41.6,83.3-88.8C2209.7,332.5,2181.9,304.7,2140.3,304.7Z" transform="translate(-268.1 -222.3)"/>
    <path class="a" d="M2329.5,409.3l33.3-150.4a46.7,46.7,0,0,1,45.4-36.1c30.1,0,51.8,25,44.9,56.5L2424.9,407a62,62,0,0,0-.9,11.1c0.5,19.9,14.8,42.1,47.7,42.1,35.6,0,53.7-23.6,60.2-53.2l32.9-148.1a46.7,46.7,0,0,1,45.3-36.1c30.1,0,51.8,25,44.9,56.5l-28.7,129.6c-16.2,74.5-57.4,132.8-154.6,132.8s-144.4-46.7-144.4-112.9A157.6,157.6,0,0,1,2329.5,409.3Z" transform="translate(-268.1 -222.3)"/>
    <path class="a" d="M2653,473.6a42.4,42.4,0,0,1,42.1-42.6,41.6,41.6,0,0,1,23.6,6.9c24.1,15.7,53.7,25,81.9,25,19,0,25.9-7.4,25.9-15.3,0-11.1-14.8-18-38.9-25.9-43.5-13.9-106.4-36.1-106.4-100.9,0-41.2,42.1-98.1,130-98.1,34.2,0,68,7.9,98.1,24.5,13,7.4,21.7,20.8,21.7,36.6a41.8,41.8,0,0,1-41.6,41.6,40.9,40.9,0,0,1-21.3-6c-22.7-13.4-48.1-19.4-67.1-19.4-17.1,0-24.1,7.4-24.1,15.7,0,10.2,16.2,17.1,39.3,24.5,44,13.9,107.4,37.5,107.4,96.3s-49.5,105-129.1,105c-46.3,0-88.8-11.6-121.7-32.4C2661.3,501.8,2653,488.4,2653,473.6Z" transform="translate(-268.1 -222.3)"/>
  </g>
</svg>
