<svg xmlns="http://www.w3.org/2000/svg" viewBox="0 0 497.1 512.1"><defs><style>.a{fill:#a67c52;}.b{fill:#754c24;}.c{fill:#c69c6d;}.d{fill:#f99;}.e{fill:#fff;}.f{fill:#b59e92;}</style></defs><title>Head_Jay</title><path class="a" d="M4504.8,1098.8c-6.3-22,2.8-93,0-107.9-45.8-205.4-410,61.5-393,112.1-13.4,9-12.1,31-4,45.5,10.1,18.1,46,32.1,62.8,29.9,0.7,1.8,2.2,3.1,3.2,4.8a67.6,67.6,0,0,1,3.1,6.5l0.5,0.9c12.7,59.9,54.2,72.3,120,94.5,27.8,12.5,63.4,18.1,93.3,3.9,33.8-14.9,63.8-37.1,90.9-64.6a93.5,93.5,0,0,0,31.3-40.4C4519.1,1160,4513.1,1134.8,4504.8,1098.8Z" transform="translate(-4052.3 -785.5)"/><path class="b" d="M4154.6,1122.6q-17.6-8.4-35.3,2.4c-2.1,11.2.3,17.9,6.2,21.2-1.8-11.6-1.6-18,2.8-13.5l8.6,5.5Z" transform="translate(-4052.3 -785.5)"/><path class="b" d="M4289.4,1029.8c25.6-25.1,46.3-25,64.2-10.4Q4321.5,1014.6,4289.4,1029.8Z" transform="translate(-4052.3 -785.5)"/><path class="b" d="M4480.5,1042.6c-19.9-26.9-35.9-26.8-49.8-11.1Q4455.6,1026.4,4480.5,1042.6Z" transform="translate(-4052.3 -785.5)"/><path class="c" d="M4385,1189.9a20.2,20.2,0,0,1,21,.1c1.9,1.1,3.6-1.8,1.7-2.9a23.6,23.6,0,0,0-24.5-.1,1.7,1.7,0,0,0,1.7,2.9h0Z" transform="translate(-4052.3 -785.5)"/><path class="d" d="M4345.9,1247.1l51.7,5.1a6.2,6.2,0,0,1,3.6,1.1,2.8,2.8,0,0,1,.2,3.6,8.7,8.7,0,0,1-3.3,2.6,43,43,0,0,1-29.2,3.4c-9.7-2.3-18.2-8.3-22.8-16" transform="translate(-4052.3 -785.5)"/><path class="b" d="M4336.4,1230.5c23.6,6.6,48.7,6.4,72.5.9l-4.6-2.6c3,16.9-10.2,38.1-29.1,33.6-17-4-28.4-21.1-34.1-36.4-1.7-4.5-8.9-2.5-7.2,2,7.2,19.2,22.5,40.9,45,42.6s36.3-23.8,32.7-43.7c-0.4-2.1-2.8-3-4.6-2.6-22.5,5.2-46.1,5.4-68.5-.9-4.7-1.3-6.6,5.9-2,7.2h0Z" transform="translate(-4052.3 -785.5)"/><path d="M4149.4,1100.5c-3.2-8.2,10.7,3.3,0,0,0,0-37.4-8.2-47.7,23.5-136.4-201.4,34-330.5,212.4-338.1,188.8-8,302.8,78.1,191.1,222.4C4420.9,902,4246,985,4204,1101.1,4195,1136.6,4176,1168,4149.4,1100.5Z" transform="translate(-4052.3 -785.5)"/><ellipse class="e" cx="400.9" cy="336.4" rx="42.6" ry="61"/><path class="f" d="M4495.5,1121.9c-0.2,21-7.6,46.1-27.4,56.8s-38.5-1.8-48-18.9c-11.3-20.2-12.2-46.4-3.8-67.8,7.1-18.1,24.5-36,45.7-29.6,24.1,7.3,33.3,37,33.6,59.4a0.3,0.3,0,0,0,.6,0c-0.2-21.4-8-47.5-28.7-57.9-18.4-9.2-37.1,1.7-46.8,17.9-12.6,20.9-13.7,49-4.3,71.4,7.3,17.6,24.2,34.3,44.8,28.9,25.1-6.6,34.9-37.3,35.1-60.3A0.3,0.3,0,0,0,4495.5,1121.9Z" transform="translate(-4052.3 -785.5)"/><ellipse class="b" cx="386.2" cy="352.2" rx="23.6" ry="35.5"/><ellipse cx="382.9" cy="353.2" rx="10.6" ry="14.8"/><ellipse class="e" cx="393.3" cy="366" rx="3.6" ry="5"/><ellipse class="e" cx="374.9" cy="331.8" rx="6.2" ry="8.5"/><ellipse class="e" cx="280.1" cy="334.9" rx="49.7" ry="76.5"/><path class="f" d="M4381.8,1120.4c-0.2,25.4-8.2,57.1-31.7,71.1s-45.2-2.5-56.1-22.9c-13.7-25.8-14.7-59.1-4.5-86.3,7.9-21.1,27.5-44.5,52.8-36.6,29.4,9.3,39.3,47.6,39.5,74.6a0.3,0.3,0,0,0,.6,0c-0.2-26-8.6-59.1-33.4-72.4-22.1-11.9-44,3.2-54.8,22.7-14.9,26.8-15.8,62.4-4.2,90.6,8.4,20.4,27.6,41.7,52,34.5,30-8.9,40.3-48,40.4-75.4A0.3,0.3,0,0,0,4381.8,1120.4Z" transform="translate(-4052.3 -785.5)"/><ellipse class="b" cx="261.9" cy="354.6" rx="27" ry="44.5"/><ellipse cx="258.1" cy="356" rx="13.7" ry="18.5"/><ellipse class="e" cx="270.6" cy="371.6" rx="4.7" ry="6.4"/><ellipse class="e" cx="245.6" cy="331" rx="7.1" ry="10.7"/></svg>