<svg xmlns="http://www.w3.org/2000/svg" width="941.8mm" height="112.6mm" viewBox="0 0 2669.6 319.3">
  <defs>
    <style>
      .a {
        fill: #fff;
      }
    </style>
  </defs>
  <title>logo-text-jaxlicious-regular</title>
  <g>
    <path class="a" d="M270.8,496.3a41.2,41.2,0,0,1,51.8-39.3,58.8,58.8,0,0,0,15.7,2.3c20.4,0,34.2-13,34.2-34.7v-155a46.7,46.7,0,0,1,93.5,0V425.9c0,79.1-47.7,115.7-119.4,115.7a173.1,173.1,0,0,1-45.8-6A40.8,40.8,0,0,1,270.8,496.3Z" transform="translate(-270.8 -222.3)"/>
    <path class="a" d="M786.3,494a46.8,46.8,0,0,1-91.6,13.4l-5.1-16.7H574.8l-5.1,16.7A46.8,46.8,0,0,1,478.1,494a47.7,47.7,0,0,1,2.8-16.2L555.4,276A82,82,0,0,1,709,276l74.5,201.8A47.7,47.7,0,0,1,786.3,494ZM665,413L632.2,309.8,599.3,413H665Z" transform="translate(-270.8 -222.3)"/>
    <path class="a" d="M1098.2,494.9a45.8,45.8,0,0,1-45.3,45.8c-13.4,0-26.4-6-33.8-14.8l-69-82.4-69,82.4c-7.4,8.8-20.4,14.8-33.8,14.8A45.8,45.8,0,0,1,802,494.9a43.3,43.3,0,0,1,11.1-29.6l77.7-87-72.2-79.6c-8.8-9.7-11.1-20.8-11.1-30.5,0-25.5,21.3-45.4,45.8-45.4,14.3,0,26.8,6.5,35.6,17.6l61.1,75,61.1-75c8.8-11.1,21.3-17.6,35.6-17.6,24.5,0,45.8,19.9,45.8,45.4,0,9.7-2.8,20.8-6.9,25.5l-76.4,84.7,77.7,87A43.3,43.3,0,0,1,1098.2,494.9Z" transform="translate(-270.8 -222.3)"/>
    <path class="a" d="M1133.3,486.5v-217a46.7,46.7,0,1,1,93.5,0V454.6h81a40.7,40.7,0,1,1,0,81.4H1182.9C1150.9,536.1,1133.3,518.5,1133.3,486.5Z" transform="translate(-270.8 -222.3)"/>
    <path class="a" d="M1381.4,494V269.5a46.7,46.7,0,0,1,93.5,0V494A46.7,46.7,0,0,1,1381.4,494Z" transform="translate(-270.8 -222.3)"/>
    <path class="a" d="M1508.2,382c0-95.3,73.1-159.6,167.5-159.6,53.7,0,89.8,19.4,113.8,45.8,6.9,7.9,12,18.5,12,30.1,0,24.1-19.9,44-44.4,44a43.1,43.1,0,0,1-32.9-14.8c-12-13.9-29.2-22.7-48.6-22.7-42.6,0-72.7,34.2-72.7,77.3s30.1,77.3,72.7,77.3c19.4,0,36.6-8.8,48.6-22.7a43.1,43.1,0,0,1,32.9-14.8,44.2,44.2,0,0,1,44,44c0,11.1-4.6,21.3-11.6,29.2-24.5,26.4-60.6,46.7-113.8,46.7C1581.3,541.6,1508.2,476.8,1508.2,382Z" transform="translate(-270.8 -222.3)"/>
    <path class="a" d="M1842.7,494V269.5a46.7,46.7,0,0,1,93.5,0V494A46.7,46.7,0,0,1,1842.7,494Z" transform="translate(-270.8 -222.3)"/>
    <path class="a" d="M2138.4,222.3c95.3,0,168.9,64.8,168.9,159.6s-73.6,159.6-168.9,159.6S1969.5,476.8,1969.5,382,2043.1,222.3,2138.4,222.3Zm0,82.4c-44.9,0-74,34.2-74,77.3s29.2,77.3,74,77.3,74-34.2,74-77.3S2183.3,304.7,2138.4,304.7Z" transform="translate(-270.8 -222.3)"/>
    <path class="a" d="M2340.7,270c0-25.9,21.3-47.2,47.7-47.2a47.4,47.4,0,0,1,47.2,47.2V406c0,29.6,15.3,53.2,53.7,53.2s53.2-23.6,53.2-53.2V270a47.4,47.4,0,0,1,47.2-47.2c26.4,0,47.7,21.3,47.7,47.2V408.8c0,76.8-44,132.8-148.1,132.8s-148.5-56-148.5-132.3V270Z" transform="translate(-270.8 -222.3)"/>
    <path class="a" d="M2675.7,479.6a42.3,42.3,0,0,1,42.1-42.1,40.6,40.6,0,0,1,21.3,5.6,141.1,141.1,0,0,0,72.7,19.9c17.6,0,34.2-6,34.2-18s-13-18-43.5-23.6c-50.9-9.3-128.6-21.3-128.6-98.6,0-52.3,43.5-100,132.8-100,32.9,0,68.5,6.5,96.3,19a41.6,41.6,0,0,1-17.1,79.6,48.9,48.9,0,0,1-18.5-3.7c-27.3-10.6-48.6-16.2-65.7-16.2-27.8,0-32.9,8.3-32.9,16.2,0,12,12.5,16.2,45.3,21.7,50.9,8.8,126.3,23.6,126.3,94.9,0,68-50.4,107.4-133.3,107.4-44.9,0-79.6-8.8-109.2-25C2684.5,509.2,2675.7,495.8,2675.7,479.6Z" transform="translate(-270.8 -222.3)"/>
  </g>
</svg>
