<svg xmlns="http://www.w3.org/2000/svg" width="17.5in" height="17.5in" viewBox="0 0 1260 1260">
  <defs>
    <style>
      .a {
        fill: #f1d2c3;
      }

      .b {
        fill: #960;
      }

      .c {
        fill: #f99;
      }

      .d {
        fill: #fe5f26;
      }

      .e {
        fill: #fe7f51;
      }

      .f {
        fill: #fff;
      }

      .g {
        fill: #b59e92;
      }

      .h {
        fill: #090;
      }
    </style>
  </defs>
  <title>hor-jes_black</title>
  <rect width="1260" height="1260"/>
  <g>
    <g>
      <path class="a" d="M2449.7,1097c-6.8-5.9-12.8-5-20.3-3.2l-5.3,2.5c-7.8,5.3-7,18-2.3,26.4,6.2,11.1,13.7,15.7,22.5,13.2,4,0,7.9-3.6,11-3.6,10.4,33.8,38.2,56.8,76.4,69.7,16.1,7.3,36.8,10.5,54.2,2.3,19.6-8.6,37-21.6,52.8-37.5a54.8,54.8,0,0,0,18.2-23.4c3.6-14.1.1-28.8-4.7-49.6-3.7-12.8,1.7-54,0-62.6-3.5-7.3-10-10-18.2-10.4l-3.7,15.7c-13.6-20.4-31-29.9-50.7-33l7.8,33.4c-22.2-16.4-47.1-22.9-74.6-20.2l5.4,28.1-25.2-6.6c-9.7,2.3-12.9,32.6-5.8,44.9-7.9-4.5-18.5-23-16.7-2.8,0.4,4.3-1,18.9,1.8,27.1C2464.1,1105.6,2456.2,1102.5,2449.7,1097Z" transform="translate(-1908.2 -547.2)"/>
      <path class="a" d="M2652.2,1093.8c-3.7-12.8,1.7-54,0-62.6-3.5-7.3-10-10-18.2-10.4l-3.7,15.7c-13.6-20.4-31-29.9-50.7-33l7.8,33.4c-22.2-16.4-47.1-22.9-74.6-20.2l5.4,28.1-25.2-6.6c-9.7,2.3-12.9,32.6-5.8,44.9-7.9-4.5-18.5-23-16.7-2.8,0.4,4.3-1,18.9,1.8,27.1-8.3-1.9-16.1-4.9-22.7-10.4s-12.8-5-20.3-3.2l-5.3,2.5c-7.8,5.3-7,18-2.3,26.4,5.9,10.5,40.3,24.3,40.4,24.5,7.4,34.8,31.4,42,69.7,54.9,16.1,7.3,36.8,10.5,54.2,2.3,19.6-8.6,37-21.6,52.8-37.5a54.8,54.8,0,0,0,18.2-23.4C2660.4,1129.3,2656.9,1114.6,2652.2,1093.8Z" transform="translate(-1908.2 -547.2)"/>
      <path class="b" d="M2448.9,1107.6c-6.8-3.2-13.6-2.8-20.5,1.4-1.2,6.5.1,10.4,3.6,12.3-1-6.7-.9-10.4,1.7-7.9l5,3.2Z" transform="translate(-1908.2 -547.2)"/>
      <path class="b" d="M2527.1,1053.7c14.9-14.6,26.9-14.5,37.3-6C2551.9,1045.9,2539.5,1047.9,2527.1,1053.7Z" transform="translate(-1908.2 -547.2)"/>
      <path class="b" d="M2638,1061.1c-11.5-15.6-20.9-15.5-28.9-6.4C2618.8,1052.7,2628.4,1054.9,2638,1061.1Z" transform="translate(-1908.2 -547.2)"/>
      <path class="b" d="M2582.4,1146.9a10,10,0,0,1,10.6.1,1,1,0,0,0,1-1.8,12.5,12.5,0,0,0-12.8-.1,1.1,1.1,0,0,0,1.1,1.8h0Z" transform="translate(-1908.2 -547.2)"/>
      <path class="c" d="M2559.9,1179.9l30.1,3a3.8,3.8,0,0,1,2.1.7,1.6,1.6,0,0,1,.1,2.1,4.6,4.6,0,0,1-1.9,1.5,24.9,24.9,0,0,1-17,2,21.3,21.3,0,0,1-13.3-9.3" transform="translate(-1908.2 -547.2)"/>
      <path class="b" d="M2554.7,1169.3a83.7,83.7,0,0,0,41.5.5l-1.5-.9c1.8,10.5-6.3,23.5-18.1,20.6-10.2-2.5-16.9-12.6-20.4-21.8-0.6-1.5-3-.8-2.4.7,4.1,10.8,12.9,23.5,25.6,24.1s19.6-13.3,17.7-24.2a1.3,1.3,0,0,0-1.5-.9,81.7,81.7,0,0,1-40.2-.5,1.3,1.3,0,0,0-.7,2.4h0Z" transform="translate(-1908.2 -547.2)"/>
      <path class="d" d="M2474.8,1110.2c-41.7-26.7-10.9,63.8,10.9,55.6,7.9-3-22,61.4-59.8,54.3-21.6-4-18.9-67-16.6-61.6,5.3,12,19.9,18.2,3.2-13.6-60.3-115.3,46-223.3,136.7-215.8,23.8,4.9,27.4,8.8,38.6,18.2,3.2-8.2-1-21.8-5.9-30.8a62.1,62.1,0,0,1,24.8,27c9.5-7.6,13.9-19.5,12.6-36,23.4,21.2,33.8,43.5,22,67.4,12.6-4.6,21.8-14,28.3-27.5,2.6,18.8-1.8,34.6-14.2,46.7,11.7-1.8,20.7-6.5,26.4-14.7-1.7,17.5-8.4,29-19.8,35.1,8.4,14.5,8.5,30.2,2.8,46.7-1.8-14.4-10.1-29.9-27.1-31.6-7.8.8-6.8,10.6-5.8,15.7-6.8-16-22.5-25.4-38.3-30.8,6.5,11.5.2,24.1-9.1,30.8-22.6-16.2-40.4-24.9-64.4-23.1-3.3,3.8-3.2,14,0,30.4-9.2-7.8-18.7-9.9-28.6-7.4-9.2,12.5-7.5,28.2-1.7,45.1-6.2-8.2-12.2-12.9-17.6-12.6C2478.3,1090.4,2479.9,1098.9,2474.8,1110.2Z" transform="translate(-1908.2 -547.2)"/>
      <path class="e" d="M2520.7,944.6c22.9-4.6,45.7-1.6,53.6,12.6-22.2-4.7-54.6-.3-93.9,10.2Z" transform="translate(-1908.2 -547.2)"/>
      <path class="e" d="M2417.5,1054.4c0.4-18.3,7.3-29.7,16.7-38.4-6.6,16-8.6,41.6-7.5,73.5Z" transform="translate(-1908.2 -547.2)"/>
      <g>
        <ellipse class="f" cx="713.9" cy="560" rx="24.7" ry="35.4"/>
        <path class="g" d="M2646.6,1107.2c-0.1,12.1-4.4,26.6-15.7,32.8s-22.5-1-28.1-11.1-7-26.6-2.2-38.8c4.1-10.5,14.1-21.1,26.4-17.4,14.2,4.1,19.5,21.4,19.6,34.5a0.2,0.2,0,0,0,.4,0c-0.1-12.5-4.8-27.9-16.9-33.7s-21.6,1.5-27.2,10.9c-7.1,12.2-7.7,28.5-2.1,41.4,4.4,10.1,14.1,19.6,26,16.4,14.5-3.9,20.1-21.7,20.2-35C2647.1,1106.9,2646.7,1106.9,2646.6,1107.2Z" transform="translate(-1908.2 -547.2)"/>
      </g>
      <ellipse class="h" cx="705.4" cy="569.1" rx="13.7" ry="20.6"/>
      <ellipse cx="703.5" cy="569.7" rx="6.2" ry="8.6"/>
      <ellipse class="f" cx="709.6" cy="577.1" rx="2.1" ry="2.9"/>
      <ellipse class="f" cx="698.9" cy="557.3" rx="3.6" ry="4.9"/>
      <g>
        <ellipse class="f" cx="643.9" cy="559.1" rx="28.9" ry="44.4"/>
        <path class="g" d="M2580.7,1106.3c-0.1,14.8-4.8,33.3-18.5,41.3s-26.5-2-32.7-14c-7.6-14.9-8.2-33.8-2.3-49.3,4.6-12.3,16-25.8,30.6-21.3,17,5.4,22.7,27.7,22.9,43.3a0.2,0.2,0,0,0,.4,0c-0.1-15.1-5-34.3-19.4-42.1-12.7-6.9-25.4,1.7-31.7,12.9-8.8,15.7-9.4,36.6-2.5,53.1,4.9,11.7,16,24,30.1,19.8,17.5-5.2,23.4-27.9,23.6-43.8C2581.1,1106,2580.7,1106,2580.7,1106.3Z" transform="translate(-1908.2 -547.2)"/>
      </g>
      <ellipse class="h" cx="633.3" cy="570.5" rx="15.7" ry="25.8"/>
      <ellipse cx="631.1" cy="571.4" rx="7.9" ry="10.7"/>
      <ellipse class="f" cx="638.3" cy="580.4" rx="2.7" ry="3.7"/>
      <ellipse class="f" cx="623.9" cy="556.8" rx="4.1" ry="6.2"/>
      <path class="g" d="M2643.9,1142.3a1,1,0,0,0,0-2.1,1,1,0,0,0,0,2.1h0Z" transform="translate(-1908.2 -547.2)"/>
      <path class="g" d="M2646.8,1151.4a1,1,0,0,0,0-2.1,1,1,0,0,0,0,2.1h0Z" transform="translate(-1908.2 -547.2)"/>
      <path class="g" d="M2637.3,1147.7a1,1,0,0,0,0-2.1,1,1,0,1,0,0,2.1h0Z" transform="translate(-1908.2 -547.2)"/>
      <path class="g" d="M2523.5,1154.3a1,1,0,0,0,0-2.1,1,1,0,0,0,0,2.1h0Z" transform="translate(-1908.2 -547.2)"/>
      <path class="g" d="M2517.3,1155.9a1,1,0,0,0,0-2.1,1,1,0,0,0,0,2.1h0Z" transform="translate(-1908.2 -547.2)"/>
      <path class="g" d="M2506.1,1159.6a1,1,0,0,0,0-2.1,1,1,0,0,0,0,2.1h0Z" transform="translate(-1908.2 -547.2)"/>
      <path class="g" d="M2502.8,1146a1,1,0,0,0,0-2.1,1,1,0,0,0,0,2.1h0Z" transform="translate(-1908.2 -547.2)"/>
      <path class="g" d="M2510.3,1149.7a1,1,0,0,0,0-2.1,1,1,0,0,0,0,2.1h0Z" transform="translate(-1908.2 -547.2)"/>
      <path class="g" d="M2517.7,1148.1a1,1,0,0,0,0-2.1,1,1,0,0,0,0,2.1h0Z" transform="translate(-1908.2 -547.2)"/>
      <path class="g" d="M2514.4,1143.5a1,1,0,0,0,0-2.1,1,1,0,0,0,0,2.1h0Z" transform="translate(-1908.2 -547.2)"/>
    </g>
    <g>
      <path class="f" d="M1998.5,1432.4a16.6,16.6,0,0,1,16.1-17.1h1l6.2,1a21.3,21.3,0,0,0,7.6,1.4,15.7,15.7,0,0,0,16.2-14.2l14.7-67.4a18.5,18.5,0,0,1,36.1,8.1l-13.3,60.3c-7.1,32.3-21.8,47-50.8,47a73,73,0,0,1-21.8-3.3A16.6,16.6,0,0,1,1998.5,1432.4Z" transform="translate(-1908.2 -547.2)"/>
      <path class="f" d="M2190.8,1450.9a19,19,0,0,1-19-17.1v-3.3h-46.6l-5.7,10.4a18.5,18.5,0,0,1-34.7-8.1,19.7,19.7,0,0,1,2.9-9.5l50.3-85.4a32.8,32.8,0,0,1,27.5-16.2,32.3,32.3,0,0,1,31.8,27.5l11.9,79.7a19,19,0,0,1-15.9,21.6Zm-21.8-51.8-3.8-43.7-23.3,43.7h27Z" transform="translate(-1908.2 -547.2)"/>
      <path class="f" d="M2346,1339.3a15.7,15.7,0,0,1-4.3,11.4l-36.1,35.6,22.8,37c8.1,13.3-3.8,27.5-17.6,27.5a21.9,21.9,0,0,1-17.6-11.4l-17.1-27.1-31.8,32.3a19.1,19.1,0,0,1-13.8,6.2,17.5,17.5,0,0,1-18-17.1v-0.5a15.2,15.2,0,0,1,4.3-11.4l39.9-38.9-20.9-33.7c-7.1-11.9,3.3-27.1,17.6-27.1a21.4,21.4,0,0,1,17.1,11.4l15.2,24.7,28.5-29.9a19.4,19.4,0,0,1,13.8-6.6,17.5,17.5,0,0,1,18,17.1A3,3,0,0,0,2346,1339.3Z" transform="translate(-1908.2 -547.2)"/>
      <path class="f" d="M2343.6,1427.1l19.9-90.7a18.5,18.5,0,0,1,18-14.2,18.1,18.1,0,0,1,18.7,17.4,18.7,18.7,0,0,1-.6,5.4l-15.7,71.3h29a16.6,16.6,0,0,1,0,33.2h-51.8C2347,1449,2340.3,1440.9,2343.6,1427.1Z" transform="translate(-1908.2 -547.2)"/>
      <path class="f" d="M2441.9,1428.6l20.4-92.1a18.5,18.5,0,0,1,36.1,8.1l-20.5,92.1A18.5,18.5,0,0,1,2441.9,1428.6Z" transform="translate(-1908.2 -547.2)"/>
      <path class="f" d="M2576.3,1321.7c23.3,0,38.9,8.6,48.9,20.4a18.6,18.6,0,0,1-29.4,22.8,25.1,25.1,0,0,0-20.9-10,35.1,35.1,0,0,0-34.2,36.1h0a26.6,26.6,0,0,0,26.6,26.6h1.5a30.4,30.4,0,0,0,19-7.1,17.4,17.4,0,0,1,10.9-3.8,17.1,17.1,0,0,1,10,30.9,71.7,71.7,0,0,1-41.8,13.8c-36.1,0-65.5-22.3-65.5-57.4C2500.8,1350.2,2534.5,1321.7,2576.3,1321.7Z" transform="translate(-1908.2 -547.2)"/>
      <path class="f" d="M2625.7,1428.6l20.4-92.1a18.5,18.5,0,0,1,36.1,8.1l-20.4,92.1A18.5,18.5,0,0,1,2625.7,1428.6Z" transform="translate(-1908.2 -547.2)"/>
      <path class="f" d="M2760,1321.7c37,0,65,23.3,65,57s-31.8,72.6-75,72.6-65.5-23.3-65.5-57.4S2716.4,1321.7,2760,1321.7Zm-2.4,33.2c-19.9,0-33.7,17.1-33.7,36.1s11.4,26.6,28,26.6,33.7-17.1,33.7-36.1S2774.8,1355,2757.6,1355Z" transform="translate(-1908.2 -547.2)"/>
      <path class="f" d="M2834.6,1397.7l13.8-61.3a19,19,0,0,1,18.5-14.7,18.1,18.1,0,0,1,18.7,17.4,18.7,18.7,0,0,1-.6,5.4l-11.4,51.8a24.7,24.7,0,0,0-.5,4.7,17.6,17.6,0,0,0,17.9,17.2h1.5c14.2,0,21.8-9.5,24.2-21.8L2930,1336a18.9,18.9,0,0,1,18.5-14.7,18.1,18.1,0,0,1,18.7,17.4,18.7,18.7,0,0,1-.6,5.4l-11.9,52.7c-6.6,30.4-23.3,54.1-62.7,54.1s-58.9-19-58.9-46.1A62.6,62.6,0,0,1,2834.6,1397.7Z" transform="translate(-1908.2 -547.2)"/>
      <path class="f" d="M2966.1,1423.8a17.1,17.1,0,0,1,17.1-17.1h0a17.2,17.2,0,0,1,9.5,2.9,62.2,62.2,0,0,0,33.2,10c7.6,0,10.4-2.9,10.4-6.2s-6.2-7.1-15.7-10.4c-17.6-5.7-43.2-14.7-43.2-40.8,0-16.6,17.1-39.9,52.7-39.9a81.9,81.9,0,0,1,39.9,10,17.1,17.1,0,0,1-8.1,31.8,16.7,16.7,0,0,1-8.6-2.4,56.4,56.4,0,0,0-27.1-8.1c-7.1,0-10,2.9-10,6.2s6.6,7.1,16.2,10c18,5.7,43.7,15.2,43.7,38.9s-19.9,42.7-52.2,42.7a92.6,92.6,0,0,1-49.8-13.3A17.5,17.5,0,0,1,2966.1,1423.8Z" transform="translate(-1908.2 -547.2)"/>
    </g>
  </g>
</svg>
