<svg xmlns="http://www.w3.org/2000/svg" width="17.5in" height="17.5in" viewBox="0 0 1260 1260">
  <defs>
    <style>
      .a {
        fill: #da0000;
      }

      .b {
        fill: #f1d2c3;
      }

      .c {
        fill: #b59e92;
      }

      .d {
        fill: #960;
      }

      .e {
        fill: #f99;
      }

      .f {
        fill: #fcf69f;
      }

      .g {
        fill: #ffc;
      }

      .h {
        fill: #fff;
      }

      .i {
        fill: #3cf;
      }
    </style>
  </defs>
  <title>round_jax-red</title>
  <g>
    <rect width="1260" height="1260"/>
    <rect class="a" width="1260" height="1260"/>
  </g>
  <g>
    <g>
      <path class="b" d="M2734.3,1292.5c-6.8-23.6,3.1-99.8,0-115.8-6.4-13.4-18.5-18.5-33.6-19.1l-6.9,29c-25.2-37.7-57.4-55.3-93.8-61l14.5,61.8c-41-30.3-87.1-42.3-138-37.4l9.9,51.9-46.5-12.2c-18,4.2-23.9,60.3-10.7,83.1-14.7-8.3-34.1-42.6-30.8-5.1,0.7,8-1.8,35.1,3.3,50-15.3-3.5-29.7-9-41.9-19.3s-23.7-9.4-37.5-5.9l-9.8,4.6c-14.4,9.7-13,33.3-4.3,48.8,10.9,19.4,49.4,34.5,67.4,32.1,0.8,1.9,2.3,3.3,3.4,5.1a72.5,72.5,0,0,1,3.3,7l0.5,1c13.7,64.2,58.2,77.6,128.8,101.4,29.8,13.4,68,19.4,100.2,4.2,36.2-16,68.5-39.8,97.6-69.3a100.3,100.3,0,0,0,33.6-43.3C2749.5,1358.2,2743.2,1331.1,2734.3,1292.5Z" transform="translate(-1908.2 -547.2)"/>
      <path class="c" d="M2358.3,1318q-18.9-9-37.9,2.6c-2.2,12,.3,19.2,6.7,22.7-1.9-12.4-1.7-19.4,3.1-14.5l9.3,5.9Z" transform="translate(-1908.2 -547.2)"/>
      <path class="d" d="M2503,1218.4c27.5-27,49.7-26.8,68.9-11.1Q2537.5,1202.1,2503,1218.4Z" transform="translate(-1908.2 -547.2)"/>
      <path class="d" d="M2708.2,1232.2c-21.3-28.9-38.6-28.7-53.4-11.9Q2681.5,1214.8,2708.2,1232.2Z" transform="translate(-1908.2 -547.2)"/>
      <path class="d" d="M2605.3,1390.4a19.2,19.2,0,0,1,20,.1c1.8,1.1,3.4-1.7,1.6-2.8a22.5,22.5,0,0,0-23.3-.1,1.6,1.6,0,0,0,1.6,2.8h0Z" transform="translate(-1908.2 -547.2)"/>
      <path class="e" d="M2563.7,1451.6l55.5,5.5c1.4,0.1,3,.3,3.9,1.2a3,3,0,0,1,.2,3.9,9.4,9.4,0,0,1-3.6,2.7,46.2,46.2,0,0,1-31.4,3.7c-10.5-2.5-19.6-8.9-24.5-17.1" transform="translate(-1908.2 -547.2)"/>
      <path class="d" d="M2554.1,1431.8c25,7,51.5,6.8,76.7.9l-2.4-1.4c3.5,19.5-11.7,43.7-33.5,38.7-19.1-4.4-31.9-23.4-38.4-40.6-0.9-2.3-4.6-1.3-3.7,1,7.4,19.7,23.2,42.5,46.3,44.1s36.7-24.2,33.1-44.2a2,2,0,0,0-2.4-1.4c-24.5,5.7-50.3,5.9-74.6-.9-2.4-.7-3.4,3.1-1,3.7h0Z" transform="translate(-1908.2 -547.2)"/>
      <path class="f" d="M2401.8,1331c-10.2-12-34-23.5-49-36.7-7.1-6.2,11.5,3.5,0,0,0,0-40.1-8.8-51.1,25.2-44.2-96.5,10.3-201.6,49-271.7,3.6,9.9,6.5,35.8,23.6,33.2-10.6-6.9-16.4-50.7-13.7-67.8,12.2,19,19.1,59.4,19.8,60.5-5.2-14.5,1.9-51.6,7.6-59.5-1.4,18.3-5.3,54.2,4.6,55.4,8-4.7,14.8-11.3,21.4-18.5,11-12,21.2-25.4,34.5-33.4,23.5-14.1,58.3-23.9,78.3-21.4,39.1-1.7,56.8,23.4,88.5,25.4,5.9-15.2-1.9-40.3-10.8-56.9,19.9,11.7,35.3,28.2,45.9,49.8,17.7-14,25.7-36.1,23.4-66.6,43.4,39.3,62.5,80.6,40.7,124.6,23.3-8.4,40.4-25.9,52.3-50.8,4.8,34.8-3.3,63.9-26.4,86.4,21.7-3.4,38.4-12.1,48.8-27.3-3,32.4-15.6,53.5-36.6,64.9,15.6,26.8,15.7,55.8,5.1,86.3-3.4-26.7-18.7-55.3-50.1-58.4-14.4,1.6-12.5,19.6-10.7,29-12.7-29.6-41.7-47-70.8-56.9,12,21.4.3,44.7-16.9,56.9-41.6-29.7-74.6-45.9-119-42.5-6.1,7-6.1,25.9,0,56.3-17-14.5-34.7-18.3-52.9-13.7-17,23.1-13.8,52.1-3.1,83.4-11.5-15.2-22.4-23.9-32.5-23.4C2412.8,1286.3,2411.1,1310.2,2401.8,1331Z" transform="translate(-1908.2 -547.2)"/>
      <path class="g" d="M2504,1022c42.3-8.5,73,3.4,99.1,23.3-41-8.7-101-.5-173.6,18.8Z" transform="translate(-1908.2 -547.2)"/>
      <path class="g" d="M2300.4,1219.8c0.8-33.9,13.5-55,30.9-71-12.1,29.6-15.9,76.9-14,135.9Z" transform="translate(-1908.2 -547.2)"/>
      <g>
        <ellipse class="h" cx="770.7" cy="770" rx="45.8" ry="65.5"/>
        <path class="c" d="M2724.3,1317.2c-0.2,22.5-8.3,49.6-29.5,61.1s-40.9-1.8-51.1-19.9c-12.4-21.8-13.5-50.5-4.1-73.7,7.7-19,25.8-37.7,48.1-31.4,26.3,7.4,36.5,39.7,36.7,64a0.3,0.3,0,0,0,.6,0c-0.2-23-8.7-51.1-30.8-62.1-19.8-9.9-40,2.1-50.4,19.5-13.4,22.5-14.5,52.7-4.3,76.7,8,18.8,26.3,36.7,48.3,30.5,26.6-7.4,37-40,37.2-64.6A0.3,0.3,0,0,0,2724.3,1317.2Z" transform="translate(-1908.2 -547.2)"/>
      </g>
      <ellipse class="i" cx="754.9" cy="787" rx="25.3" ry="38.1"/>
      <ellipse cx="751.4" cy="788.1" rx="11.4" ry="15.8"/>
      <ellipse class="h" cx="762.6" cy="801.8" rx="3.9" ry="5.3"/>
      <ellipse class="h" cx="742.7" cy="765.2" rx="6.7" ry="9.1"/>
      <g>
        <ellipse class="h" cx="641" cy="768.4" rx="53.4" ry="82.1"/>
        <path class="c" d="M2602.2,1315.6c-0.2,27.4-8.9,61.7-34.3,76.5s-48.4-3.1-59.9-24.9c-14.6-27.7-15.7-63.4-4.8-92.5,8.5-22.6,29.3-47.6,56.4-39.3,31.7,9.7,42.5,51.2,42.6,80.2a0.3,0.3,0,0,0,.6,0c-0.2-27.9-9.3-63.6-36.1-77.9-23.8-12.6-47.1,3.8-58.7,24.8-15.8,28.7-16.8,66.7-4.5,96.8,8.9,21.9,29.5,44.8,55.6,37.2,13.6-4,23.9-15.2,30.7-27.3,9.1-16.3,12.8-35.2,13-53.7A0.3,0.3,0,0,0,2602.2,1315.6Z" transform="translate(-1908.2 -547.2)"/>
      </g>
      <ellipse class="i" cx="621.5" cy="789.6" rx="29" ry="47.8"/>
      <ellipse cx="617.4" cy="791.1" rx="14.8" ry="19.9"/>
      <ellipse class="h" cx="630.8" cy="807.9" rx="5" ry="6.9"/>
      <ellipse class="h" cx="604" cy="764.2" rx="7.6" ry="11.4"/>
      <path class="c" d="M2719,1381.9a1.6,1.6,0,0,0,0-3.2,1.6,1.6,0,0,0,0,3.2h0Z" transform="translate(-1908.2 -547.2)"/>
      <path class="c" d="M2724.4,1398.7a1.6,1.6,0,0,0,0-3.2,1.6,1.6,0,0,0,0,3.2h0Z" transform="translate(-1908.2 -547.2)"/>
      <path class="c" d="M2706.8,1391.8a1.6,1.6,0,0,0,0-3.2,1.6,1.6,0,0,0,0,3.2h0Z" transform="translate(-1908.2 -547.2)"/>
      <path class="c" d="M2496.4,1404a1.6,1.6,0,0,0,0-3.2,1.6,1.6,0,0,0,0,3.2h0Z" transform="translate(-1908.2 -547.2)"/>
      <path class="c" d="M2484.9,1407.1a1.6,1.6,0,0,0,0-3.2,1.6,1.6,0,0,0,0,3.2h0Z" transform="translate(-1908.2 -547.2)"/>
      <path class="c" d="M2464.3,1413.9a1.6,1.6,0,0,0,0-3.2,1.6,1.6,0,0,0,0,3.2h0Z" transform="translate(-1908.2 -547.2)"/>
      <path class="c" d="M2458.2,1388.8a1.6,1.6,0,0,0,0-3.2,1.6,1.6,0,0,0,0,3.2h0Z" transform="translate(-1908.2 -547.2)"/>
      <path class="c" d="M2472,1395.6a1.6,1.6,0,0,0,0-3.2,1.6,1.6,0,0,0,0,3.2h0Z" transform="translate(-1908.2 -547.2)"/>
      <path class="c" d="M2485.7,1392.6a1.6,1.6,0,0,0,0-3.2,1.6,1.6,0,0,0,0,3.2h0Z" transform="translate(-1908.2 -547.2)"/>
      <path class="c" d="M2479.6,1384.2a1.6,1.6,0,0,0,0-3.2,1.6,1.6,0,0,0,0,3.2h0Z" transform="translate(-1908.2 -547.2)"/>
    </g>
    <g>
      <g>
        <path class="h" d="M2154.4,1546.2l23.6-25.7c2.9-3.1,6.1-3.3,9.3-.4l15.2,14c7,6.4,6.2,14.1,2.1,18.5s-9.5,4.9-13.5,2.6c3.2,4,2.9,10.4-1.2,14.8s-12.3,6.4-19.2.1l-15.9-14.6C2151.6,1552.6,2151.5,1549.3,2154.4,1546.2Zm20.8,14c2.2,2,4.7,1.9,6.5,0a4.4,4.4,0,0,0-.4-6.6l-9.2-8.4-6,6.6Zm12.6-14.4a4.1,4.1,0,0,0,6-.2,4,4,0,0,0-.4-5.9l-8.9-8.1-5.6,6.1Z" transform="translate(-1908.2 -547.2)"/>
        <path class="h" d="M2226.7,1607.6a6.3,6.3,0,0,1-8.8,1.2,6.2,6.2,0,0,1-2-7.1l1.4-4.1-15.7-11.9-3.6,2.4a6.2,6.2,0,0,1-8.6-8.8,5.5,5.5,0,0,1,1.7-1.5l30.6-19.3a11,11,0,0,1,12.4.6,10.8,10.8,0,0,1,3.8,11.8l-10.3,34.7A7.2,7.2,0,0,1,2226.7,1607.6Zm-5.9-20.4,6.4-18.9-16.5,11.3Z" transform="translate(-1908.2 -547.2)"/>
        <path class="h" d="M2269.4,1634.1l13.8-22.9-25.7,20.3a3.5,3.5,0,0,1-5.7-3.5l6-32.2-13.8,22.9a6.2,6.2,0,1,1-10.6-6.4l17.1-28.3a10,10,0,0,1,18.3,7.1l-4.2,22.2,17.7-14.1a10,10,0,0,1,14.8,12.9l-17.1,28.3A6.2,6.2,0,1,1,2269.4,1634.1Z" transform="translate(-1908.2 -547.2)"/>
        <path class="h" d="M2297.6,1641a6.7,6.7,0,1,1-6,12A6.7,6.7,0,0,1,2297.6,1641Zm-0.9-9.8,8.4-19.3a6.3,6.3,0,1,1,11.3,5.6l-10.4,18.3A5.2,5.2,0,0,1,2296.7,1631.2Z" transform="translate(-1908.2 -547.2)"/>
        <path class="h" d="M2335.9,1666l11.5-29.5-8.1-3.2a5.4,5.4,0,1,1,3.9-10.1l27.6,10.8a5.4,5.4,0,1,1-3.9,10.1l-8-3.1-11.5,29.5A6.2,6.2,0,1,1,2335.9,1666Z" transform="translate(-1908.2 -547.2)"/>
        <path class="h" d="M2398.6,1687l3.8-13.1-19.2-5.5-3.8,13.1a6.2,6.2,0,1,1-11.9-3.4l10.2-35.3a6.2,6.2,0,1,1,11.9,3.4l-3.4,11.8,19.2,5.5,3.4-11.8a6.2,6.2,0,1,1,11.9,3.4l-10.2,35.3A6.2,6.2,0,1,1,2398.6,1687Z" transform="translate(-1908.2 -547.2)"/>
        <path class="h" d="M2464.2,1701a6.3,6.3,0,0,1-7.3,5,6.2,6.2,0,0,1-5-5.4l-0.6-4.3-19.4-3.6-2.1,3.8a6.2,6.2,0,0,1-11.6-4.1,5.5,5.5,0,0,1,.8-2l18.8-30.9a11,11,0,0,1,11.4-5,10.8,10.8,0,0,1,8.7,8.8l6.4,35.6A7.2,7.2,0,0,1,2464.2,1701Zm-14.4-15.6-2.7-19.8-9.7,17.4Z" transform="translate(-1908.2 -547.2)"/>
        <path class="h" d="M2476,1702.1l3.5-31.4-8.7-1a5.4,5.4,0,0,1,1.2-10.7l29.5,3.3a5.4,5.4,0,1,1-1.2,10.7l-8.5-1-3.5,31.4A6.2,6.2,0,1,1,2476,1702.1Z" transform="translate(-1908.2 -547.2)"/>
        <path class="h" d="M2514,1684.9a2.8,2.8,0,0,1-2.7-3,3.1,3.1,0,0,1,1-2.1,12.9,12.9,0,0,0,4.1-5.1,4.9,4.9,0,0,1-1.7.2,5.6,5.6,0,0,1-5.3-6.3,6.7,6.7,0,0,1,7-6.3c3.9,0.2,7.2,3.4,6.9,8.7s-2.9,9.7-7.4,13.2A2.9,2.9,0,0,1,2514,1684.9Z" transform="translate(-1908.2 -547.2)"/>
        <path class="h" d="M2527.8,1703.6a5.7,5.7,0,0,1,5.6-5.7,5.3,5.3,0,0,1,3,.8,21.6,21.6,0,0,0,11.7,3.4c4.2,0,6.8-1.8,6.8-4.1s-3.1-3.8-8.2-4.9c-7.9-1.5-19-3.5-19.1-14.9,0-8.1,6.8-15.1,19.8-15.1a32.7,32.7,0,0,1,14.9,3.4,5.6,5.6,0,0,1-2.5,10.6,6.6,6.6,0,0,1-2.7-.6,25.3,25.3,0,0,0-10.5-2.8c-4.8,0-6.4,1.7-6.4,3.8s3,3.4,8.3,4.4c7.9,1.6,18.9,3.9,18.9,14.7s-7,16.1-19.9,16.2c-7.1,0-12.5-1.5-17-4.3A5.6,5.6,0,0,1,2527.8,1703.6Z" transform="translate(-1908.2 -547.2)"/>
        <path class="h" d="M2594.7,1703.5l-4.5-34.6c-0.6-4.2,1.4-6.8,5.6-7.3l13.5-1.8c15-2,27,5.6,28.9,20.4s-7.7,25.3-22.6,27.2l-13.6,1.8C2597.8,1709.7,2595.2,1707.7,2594.7,1703.5Zm19.4-6.8c8.4-1.1,12.4-7.8,11.5-14.9s-6.1-12.5-14.8-11.3l-7.8,1,3.4,26.2Z" transform="translate(-1908.2 -547.2)"/>
        <path class="h" d="M2648.6,1695.7l-7.6-34.1c-0.9-4.1.8-6.9,5-7.8l23.5-5.2a5.2,5.2,0,0,1,2.3,10.2l-17.8,4,1.7,7.8,17.3-3.9a5.3,5.3,0,0,1,2.3,10.3l-17.3,3.9,1.9,8.4,17.8-4a5.2,5.2,0,0,1,6.2,3.9,5.3,5.3,0,0,1-3.9,6.3l-23.5,5.2C2652.3,1701.6,2649.5,1699.8,2648.6,1695.7Z" transform="translate(-1908.2 -547.2)"/>
        <path class="h" d="M2691.7,1685.6l-10.5-34.3a6.2,6.2,0,1,1,11.8-3.6l9.2,30.2,13.8-4.2a5.4,5.4,0,0,1,3.2,10.3l-19.4,5.9C2695.8,1691.2,2692.9,1689.6,2691.7,1685.6Z" transform="translate(-1908.2 -547.2)"/>
        <path class="h" d="M2729.5,1674.5l-12.7-34.5a6.2,6.2,0,1,1,11.6-4.3l12.7,34.5A6.2,6.2,0,1,1,2729.5,1674.5Z" transform="translate(-1908.2 -547.2)"/>
        <path class="h" d="M2741.2,1651c-6-13.6.2-27.3,13.3-33.1,7.4-3.3,13.7-2.8,18.8-.6a5.8,5.8,0,0,1,0,10.7,5.8,5.8,0,0,1-4.8,0,11.4,11.4,0,0,0-9.6-.1c-6.8,3-9.4,10.8-6.3,18s10.7,10.4,17.6,7.4a11.7,11.7,0,0,0,6.4-7.3,5.6,5.6,0,0,1,3.2-3.5,5.9,5.9,0,0,1,7.7,3,6,6,0,0,1,.2,4.2c-1.8,5.3-5.6,10.4-13,13.7C2761.5,1669.1,2747.2,1664.5,2741.2,1651Z" transform="translate(-1908.2 -547.2)"/>
        <path class="h" d="M2796.9,1645.4l-17.2-32.5a6.2,6.2,0,1,1,11-5.8l17.2,32.5A6.2,6.2,0,1,1,2796.9,1645.4Z" transform="translate(-1908.2 -547.2)"/>
        <path class="h" d="M2814.1,1586c12.5-7.8,27.2-4.9,34.9,7.5s3.8,26.9-8.6,34.6-27.2,4.9-34.9-7.5S2801.6,1593.8,2814.1,1586Zm5.8,9.3c-6.8,4.2-7.9,12.1-3.8,18.7s11.7,9.1,18.5,4.9,7.8-12.1,3.7-18.7S2826.6,1591.1,2819.9,1595.3Z" transform="translate(-1908.2 -547.2)"/>
        <path class="h" d="M2843.3,1574.8a6.3,6.3,0,0,1,10-7.7l13.8,17.8c3.5,4.5,8.4,5.9,13.7,1.8s5.1-9.1,1.7-13.6l-13.8-17.8a6.3,6.3,0,0,1,10-7.7l14,18.1c7.3,9.5,7,20.3-5.2,29.7s-22.9,6.9-30.1-2.4Z" transform="translate(-1908.2 -547.2)"/>
        <path class="h" d="M2906,1568.8a5.7,5.7,0,0,1,.3-8,5.3,5.3,0,0,1,2.8-1.4,21.6,21.6,0,0,0,10.9-5.4c3.1-2.9,3.8-6,2.2-7.7s-4.9-.7-9.3,2c-6.9,4.2-16.4,10.3-24.1,1.9-5.5-5.9-5.2-15.7,4.3-24.5a32.6,32.6,0,0,1,13.3-7.6,5.6,5.6,0,0,1,5.3,9.5,6.6,6.6,0,0,1-2.4,1.3,25.2,25.2,0,0,0-9.6,5.1c-3.5,3.3-3.6,5.6-2.2,7.1s4.5,0.5,9.1-2.4c6.9-4.2,16.5-9.9,23.9-1.9s5.7,16.6-3.8,25.4c-5.2,4.8-10.2,7.3-15.4,8.3A5.6,5.6,0,0,1,2906,1568.8Z" transform="translate(-1908.2 -547.2)"/>
      </g>
      <g>
        <path class="h" d="M2190.5,1375.9a21.8,21.8,0,0,1-27.3-14.2,18.9,18.9,0,0,1-.7-7.3,33.2,33.2,0,0,0-.9-14.8c-4.6-14.9-17.2-21.5-32.6-16.8l-98.6,30.4a24.8,24.8,0,1,1-14.6-47.4l99.1-30.6c45.4-14,74.8,7.1,87.2,47.3a81.1,81.1,0,0,1,3.4,33.6A21.2,21.2,0,0,1,2190.5,1375.9Z" transform="translate(-1908.2 -547.2)"/>
        <path class="h" d="M2165,1073.3a25.1,25.1,0,0,1,22.8,27.2,24.8,24.8,0,0,1-19.6,22l-16.8,4-6.9,78.6,15.9,6.9a24.9,24.9,0,0,1-11.7,47.8,22.1,22.1,0,0,1-8.5-2.5l-130.4-62.7a43.9,43.9,0,0,1-24.5-43.2,43.2,43.2,0,0,1,31.7-38l139.4-39.2A28.8,28.8,0,0,1,2165,1073.3Zm-56.5,63.6-77.7,18.6,73.3,31.9Z" transform="translate(-1908.2 -547.2)"/>
        <path class="h" d="M2264.9,918a24.4,24.4,0,0,1,7.6,33.6,23.8,23.8,0,0,1-16.6,11l-75,9.9,22.6,72.2a23.8,23.8,0,0,1-3,19.6,24.1,24.1,0,0,1-43.5-6.3l-22.5-78.3-74.1,12.2a24,24,0,0,1-16.9-3.6,24.3,24.3,0,0,1-7.4-33.4,22.9,22.9,0,0,1,17.8-10.8l69-8.5-21.3-66.2a22.9,22.9,0,0,1,2.3-20.7,24.3,24.3,0,0,1,33.4-7.4c4.6,2.9,8.5,7.5,9.3,11.1l21.1,75,80.5-12.5A24.3,24.3,0,0,1,2264.9,918Z" transform="translate(-1908.2 -547.2)"/>
        <path class="h" d="M2277.6,908.7l-78.6-120a24.8,24.8,0,1,1,41.5-27.1l69.3,105.8,48.4-31.7a21.6,21.6,0,1,1,23.7,36.2l-68,44.5C2299.7,925.6,2286.9,922.9,2277.6,908.7Z" transform="translate(-1908.2 -547.2)"/>
        <path class="h" d="M2405.4,840.1l-42-141.1a24.8,24.8,0,1,1,47.5-14.1l42,141.1A24.8,24.8,0,1,1,2405.4,840.1Z" transform="translate(-1908.2 -547.2)"/>
        <path class="h" d="M2472.7,739.1c3.4-59.3,50.5-96.7,108.1-93.4,32.5,1.9,54,15.2,68,32.5a23.2,23.2,0,0,1-19.5,38.1,23.3,23.3,0,0,1-17.1-8.8,45.6,45.6,0,0,0-33.9-18.1c-29.9-1.7-53.4,21.2-55.2,52.5s19,56.8,48.9,58.5a46.7,46.7,0,0,0,36-14.1,22.2,22.2,0,0,1,17.7-6.8,23.4,23.4,0,0,1,22,24.6,23.9,23.9,0,0,1-6.9,15.2c-16.2,15.5-38.7,26.6-71.2,24.8C2511.9,840.9,2469.3,798.1,2472.7,739.1Z" transform="translate(-1908.2 -547.2)"/>
        <path class="h" d="M2663.9,837.2l56.9-135.8a24.8,24.8,0,1,1,45.7,19.1l-56.9,135.8A24.8,24.8,0,1,1,2663.9,837.2Z" transform="translate(-1908.2 -547.2)"/>
        <path class="h" d="M2925.5,800.8c42.2,40.9,45.3,100.7,4.6,142.7s-100.6,41-142.8.1-45.5-100.9-4.8-142.9S2883.3,759.9,2925.5,800.8Zm-30.4,31.5c-23-22.2-54.5-19.1-76.3,3.5s-24,54.2-1,76.4,54.5,18.7,76.1-3.7S2917.9,854.3,2895.1,832.2Z" transform="translate(-1908.2 -547.2)"/>
        <path class="h" d="M3026.1,972.2a25.2,25.2,0,0,1,13.5,48.6l-86.9,24.2c-21.9,6.1-34.5,22.2-27.3,48s26.2,32.8,48.1,26.7l86.9-24.2a25.2,25.2,0,0,1,13.5,48.6l-88.3,24.6c-46.1,12.8-85.9-4.5-102.4-63.9s8.8-95.2,54.3-107.8Z" transform="translate(-1908.2 -547.2)"/>
        <path class="h" d="M2940.7,1203.7a22.7,22.7,0,0,1,17.8,26.6,21.3,21.3,0,0,1-5.8,11.2,86.4,86.4,0,0,0-22.9,43c-3.4,16.7,1.6,28.3,10.6,30.1,10.7,2.2,17.4-9.1,25.8-28.3,12.5-29.8,29.3-71.7,73.9-62.6,31.6,6.4,53.5,38.8,43.1,89.9-4.2,20.6-12.9,40-25.5,55.7a22.3,22.3,0,0,1-39.5-18.3,26.4,26.4,0,0,1,4.7-9.9c10.5-14,17-27.1,19.4-39,3.9-18.9-1.4-26.4-9.6-28.1-9.9-2-15.6,8.9-23.8,29-12.8,29.7-30.6,70.8-73.2,62.1-37.8-7.7-57.3-40.8-47-91.3,5.6-27.7,16.2-47.6,30.8-63.1A22.3,22.3,0,0,1,2940.7,1203.7Z" transform="translate(-1908.2 -547.2)"/>
      </g>
    </g>
  </g>
</svg>
