<?xml version="1.0" encoding="utf-8"?>
<!-- Generator: Adobe Illustrator 19.2.0, SVG Export Plug-In . SVG Version: 6.00 Build 0)  -->
<svg version="1.1" id="Layer_1" xmlns="http://www.w3.org/2000/svg" xmlns:xlink="http://www.w3.org/1999/xlink" x="0px" y="0px"
	 viewBox="0 0 1260 1260" style="enable-background:new 0 0 1260 1260;" xml:space="preserve">
<style type="text/css">
	.st0{fill:#FFE135;}
	.st1{fill:#336ABF;}
	.st2{fill:#FFFFFF;}
	.st3{fill:#C68C6D;}
	.st4{fill:#754C23;}
	.st5{fill:#99671C;}
	.st6{fill:#F49799;}
	.st7{fill:#B59E92;}
	.st8{fill:#030303;}
	.st9{fill:#42220F;}
	.st10{fill:#F1D2C4;}
	.st11{fill:#ED6130;}
	.st12{fill:#F27E54;}
	.st13{fill:#169B3C;}
	.st14{fill:#A67D52;}
	.st15{fill:#C69C6D;}
	.st16{fill:#FAF2A2;}
	.st17{fill:#FDF8CE;}
	.st18{fill:#4FC2F0;}
</style>
<title>hor-all_blue</title>
<g>
	<rect width="1260" height="1260"/>
	<rect class="st0" width="1260" height="1260"/>
	<rect class="st1" width="1260" height="1260"/>
</g>
<g>
	<g>
		<path class="st2" d="M121.2,880.6v-39.4c0-6,3.3-9.3,9.3-9.3h25.9c12,0,17.2,8,17.2,14.8s-4.3,12.1-9.9,13.3
			c6.3,0.9,11.1,6.7,11.1,14.2s-5.5,15.8-17.2,15.8h-27.2C124.5,889.9,121.2,886.7,121.2,880.6z M152.4,853.4c2-0.1,3.5-1.7,3.5-3.7
			c0-1.9-1.6-3.5-3.5-3.6h-13.6v7.3L152.4,853.4L152.4,853.4z M152.9,875.6c2.1,0.2,3.9-1.4,4.1-3.5c0-0.1,0-0.3,0-0.4
			c0-2.2-1.7-3.9-3.9-4h-14.3v7.9H152.9z"/>
		<path class="st2" d="M236.2,882c0,4.8-3.9,8.7-8.7,8.8h-0.1c-3.9,0-7.4-2.5-8.5-6.3l-0.9-3.1h-21.6l-0.9,3.1
			c-1.3,4.7-6.1,7.5-10.8,6.2c-3.9-1-6.6-4.7-6.5-8.7c0,0,0,0,0-0.1c0-1,0.2-2,0.5-3l14-38c2.9-8,11.8-12.1,19.8-9.1
			c4.2,1.6,7.6,4.9,9.1,9.1l14,38C236,879.9,236.2,880.9,236.2,882z M213.4,866.8l-6.2-19.4l-6.2,19.4H213.4z"/>
		<path class="st2" d="M293.4,882v-28.7l-12.1,34.1c-1,2.7-3.9,4-6.5,3.1c-1.4-0.5-2.6-1.6-3.1-3.1l-12.1-34.1V882
			c0,4.9-3.9,8.8-8.8,8.8s-8.8-3.9-8.8-8.8v-37c-0.1-7.7,6-14.1,13.8-14.2c6.1-0.1,11.6,3.8,13.5,9.6l7.2,21.1l7.2-21.1
			c2.4-7.3,10.3-11.3,17.7-8.9c5.8,1.9,9.7,7.4,9.6,13.5v37c0,4.9-3.9,8.8-8.7,8.9c-4.9,0-8.8-3.9-8.9-8.7
			C293.4,882.1,293.4,882,293.4,882z"/>
		<path class="st2" d="M327.9,872.4c5.1-0.1,9.3,4.1,9.4,9.2c0.1,5.1-4.1,9.3-9.2,9.4c-5.1,0.1-9.3-4.1-9.4-9.2c0,0,0-0.1,0-0.1
			C318.8,876.6,322.8,872.5,327.9,872.4z M320.4,862.3l-1.4-21.9c-0.3-4.8,3.3-9,8.1-9.3c0,0,0.1,0,0.1,0h0.7c4.9,0,8.8,3.9,8.8,8.8
			c0,0,0,0.1,0,0.1c0,0.1,0,0.3,0,0.4l-1.3,21.9c0,4.1-3.4,7.5-7.5,7.5S320.4,866.4,320.4,862.3z"/>
		<path class="st2" d="M379.4,882v-34.8h-8.8c-4.2-0.5-7.3-4.3-6.8-8.5c0.4-3.6,3.2-6.4,6.8-6.8h35.1c4.2,0.5,7.3,4.3,6.8,8.5
			c-0.4,3.6-3.2,6.4-6.8,6.8H397V882c0,4.9-3.9,8.8-8.8,8.8S379.4,886.9,379.4,882z"/>
		<path class="st2" d="M457.1,882v-14.3h-20.8V882c0,4.9-3.9,8.8-8.8,8.8s-8.8-3.9-8.8-8.8v-42.2c0-4.9,3.9-8.8,8.8-8.8
			s8.8,3.9,8.8,8.8l0,0v12.6h20.8v-12.6c0-4.9,3.9-8.8,8.8-8.8s8.8,3.9,8.8,8.8l0,0V882c0,4.9-3.9,8.8-8.8,8.8
			S457.1,886.9,457.1,882z"/>
		<path class="st2" d="M538.4,882c0,4.8-3.9,8.7-8.7,8.8h-0.1c-3.9,0-7.4-2.5-8.5-6.3l-0.9-3.1h-21.6l-0.9,3.1
			c-1.3,4.7-6.1,7.5-10.8,6.2c-3.9-1-6.6-4.7-6.5-8.7c0,0,0,0,0-0.1c0-1,0.2-2,0.5-3l14-38c3.1-8,12.1-11.9,20.1-8.8
			c4.1,1.6,7.3,4.8,8.8,8.8l14,38C538.2,879.9,538.4,880.9,538.4,882z M515.6,866.8l-6.2-19.4l-6.2,19.4H515.6L515.6,866.8z"/>
		<path class="st2" d="M548.8,882v-34.8H540c-4.2-0.5-7.3-4.3-6.8-8.5c0.4-3.6,3.2-6.4,6.8-6.8h35.1c4.2,0.5,7.3,4.3,6.8,8.5
			c-0.4,3.6-3.2,6.4-6.8,6.8h-8.7V882c0,4.9-3.9,8.8-8.8,8.8S548.8,886.9,548.8,882z"/>
		<path class="st2" d="M594.2,861c-2.2,0-3.9-1.8-3.9-3.9c0-1.1,0.5-2.2,1.3-2.9c2.1-1.7,3.7-3.8,4.7-6.3c-0.7,0.2-1.5,0.3-2.2,0.3
			c-4.2,0-7.6-3.2-7.6-8.1c0-5,4.1-9.1,9.1-9.2c5.3,0,10.1,4.1,10.1,11.2s-3.1,12.7-8.9,17.8C596.1,860.6,595.2,861,594.2,861z"/>
		<path class="st2" d="M610.4,879.3c0-4.4,3.5-7.9,7.9-7.9c1.4,0,2.8,0.3,4,1c4.1,2.5,8.9,3.7,13.7,3.7c3.3,0,6.5-1.1,6.5-3.4
			s-2.4-3.4-8.2-4.4c-9.6-1.7-24.2-4-24.2-18.6c0-9.8,8.2-18.8,25-18.8c6.2,0,12.4,1.2,18.1,3.6c4,1.7,5.9,6.2,4.2,10.2
			c-1.2,3-4.2,4.9-7.4,4.8c-1.2,0-2.4-0.2-3.5-0.7c-5.1-2-9.2-3-12.3-3c-5.2,0-6.2,1.6-6.2,3s2.3,3,8.5,4.1
			c9.6,1.6,23.8,4.4,23.8,17.9s-9.5,20.2-25.1,20.2c-8.5,0-15-1.6-20.6-4.7C612,884.9,610.4,882.2,610.4,879.3z"/>
		<path class="st2" d="M688.2,880.6v-39.4c0-6,3.3-9.3,9.3-9.3h16.6c18.3,0,31.9,10.4,31.9,29S732.4,890,714.2,890h-16.7
			C691.5,889.9,688.2,886.7,688.2,880.6z M714.1,874.6c8.8,0,14-6.4,14-13.7s-4.5-13.7-13.9-13.7h-8.4v27.4h8.4L714.1,874.6z"/>
		<path class="st2" d="M752.3,880.6v-39.4c0-6,3.3-9.3,9.3-9.3h28.3c4,0,7.3,3.3,7.3,7.3c0,4-3.3,7.3-7.3,7.3c0,0,0,0,0,0h-20v6.8
			h19.4c4,0,7.3,3.3,7.3,7.3c0,4-3.3,7.3-7.3,7.3h-19.4v7.4h20c4,0,7.3,3.3,7.3,7.3c0,4-3.3,7.3-7.3,7.3h-28.3
			C755.6,889.9,752.3,886.7,752.3,880.6z"/>
		<path class="st2" d="M804.2,880.6v-40.8c0-4.9,3.9-8.8,8.8-8.8s8.8,3.9,8.8,8.8l0,0v34.8H837c4.3,0,7.7,3.4,7.7,7.7l0,0
			c0,4.3-3.4,7.7-7.7,7.7h-23.5C807.5,889.9,804.2,886.7,804.2,880.6z"/>
		<path class="st2" d="M850.8,882v-42.2c0-4.9,3.9-8.8,8.8-8.8s8.8,3.9,8.8,8.8l0,0V882c0,4.9-3.9,8.8-8.8,8.8
			S850.8,886.9,850.8,882z"/>
		<path class="st2" d="M874.7,861c0-17.9,13.7-30,31.5-30c10.1,0,16.9,3.6,21.4,8.6c1.4,1.6,2.3,3.6,2.3,5.7
			c-0.1,4.6-3.8,8.2-8.4,8.2c-2.4,0-4.6-1-6.2-2.8c-2.3-2.7-5.6-4.3-9.2-4.3c-8,0-13.7,6.5-13.7,14.5s5.7,14.5,13.7,14.5
			c3.6,0,6.9-1.6,9.2-4.3c1.6-1.8,3.8-2.8,6.2-2.8c4.5-0.1,8.2,3.6,8.3,8.1c0,2.1-0.8,4.2-2.2,5.7c-4.6,5-11.4,8.8-21.4,8.8
			C888.4,891,874.7,878.8,874.7,861z"/>
		<path class="st2" d="M937.6,882v-42.2c0-4.9,3.9-8.8,8.8-8.8s8.8,3.9,8.8,8.8l0,0V882c0,4.9-3.9,8.8-8.8,8.8
			S937.6,886.9,937.6,882z"/>
		<path class="st2" d="M993.3,830.9c17.9,0,31.8,12.2,31.8,30s-13.9,30.1-31.8,30.1s-31.8-12.2-31.8-30S975.3,830.9,993.3,830.9z
			 M993.3,846.4c-8.5,0-13.9,6.5-13.9,14.5s5.5,14.5,13.9,14.5s13.9-6.5,13.9-14.5S1001.7,846.4,993.3,846.4L993.3,846.4z"/>
		<path class="st2" d="M1031.3,839.9c0-4.9,4-8.9,8.9-8.9c4.9,0,8.9,4,8.9,8.9v25.6c0,5.6,2.9,10,10.1,10s10-4.4,10-10v-25.6
			c0-4.9,4-8.9,8.9-8.9c4.9,0,8.9,4,8.9,8.9V866c0,14.4-8.3,25-27.9,25s-28-10.5-28-24.9v-26.2H1031.3L1031.3,839.9z"/>
		<path class="st2" d="M1094.4,879.3c0-4.4,3.5-7.9,7.9-7.9c1.4,0,2.8,0.3,4,1c4.1,2.5,8.9,3.7,13.7,3.7c3.3,0,6.5-1.1,6.5-3.4
			s-2.4-3.4-8.2-4.4c-9.6-1.8-24.2-4-24.2-18.6c0-9.8,8.2-18.8,25-18.8c6.2,0,12.4,1.2,18.1,3.6c4,1.7,5.9,6.2,4.2,10.2
			c-1.2,3-4.2,4.9-7.4,4.8c-1.2,0-2.4-0.2-3.5-0.7c-5.1-2-9.2-3-12.3-3c-5.2,0-6.2,1.6-6.2,3s2.3,3,8.5,4.1
			c9.6,1.6,23.8,4.4,23.8,17.9s-9.5,20.2-25.1,20.2c-8.5,0-15-1.6-20.6-4.7C1096,884.9,1094.4,882.2,1094.4,879.3z"/>
	</g>
	<g>
		<g>
			<path class="st3" d="M984.4,596.3c-5.5-4.8-23.7,66.5-29.7,68.1l-4.3,2c-6.3,4.2-5.7,14.6-1.9,21.4c4.7,8.5,21.6,15.1,29.5,14.1
				c0.4,0.8,0.9,1.5,1.5,2.2c0.6,1,1.1,2,1.5,3.1l0.2,0.4c6,28.1,25.5,33.9,56.4,44.4c13,5.9,29.8,8.5,43.9,1.8
				c15.9-7,30-17.4,42.7-30.3c6.6-4.8,11.7-11.4,14.7-19c2.9-11.4,0.1-23.3-3.8-40.1c-2.9-10.4,1.3-43.7,0-50.7s-27-39.2-33.6-39.5"
				/>
			<path class="st4" d="M972.3,675.5c-5.5-2.6-11.1-2.2-16.6,1.1c-1,5.3,0.1,8.4,2.9,9.9c-0.8-5.4-0.7-8.5,1.3-6.4l4.1,2.6
				L972.3,675.5z"/>
			<path class="st4" d="M1035.6,631.9c12-11.8,21.8-11.7,30.1-4.9C1055.7,625.5,1045.7,627.2,1035.6,631.9z"/>
			<path class="st4" d="M1125.5,637.9c-9.3-12.6-16.9-12.6-23.4-5.2C1109.9,631.1,1117.7,632.8,1125.5,637.9z"/>
			<path class="st5" d="M1080.4,707.2c2.7-1.7,6.1-1.7,8.8,0c0.4,0.2,0.8,0,0.9-0.4c0.1-0.3,0-0.6-0.2-0.8c-3.1-1.9-7.1-1.9-10.2,0
				c-0.3,0.2-0.4,0.7-0.1,1C1079.8,707.2,1080.1,707.3,1080.4,707.2L1080.4,707.2z"/>
			<path class="st6" d="M1062.2,734l24.3,2.4c0.6,0,1.2,0.2,1.7,0.5c0.5,0.5,0.5,1.2,0.1,1.7c-0.4,0.5-1,0.9-1.6,1.2
				c-4.2,2.1-9.1,2.7-13.7,1.6c-4.4-1-8.3-3.7-10.7-7.5"/>
			<path class="st4" d="M1058,725.3c11,3,22.5,3.1,33.6,0.4l-1-0.6c1.6,8.3-4.9,18.9-14.2,17s-14.4-10.2-17.2-17.9
				c-0.4-1-2-0.6-1.6,0.4c3.2,8.6,10.1,18.5,20.1,19.3s16.3-10.5,14.6-19.3c-0.1-0.4-0.6-0.7-1-0.6c-10.7,2.6-21.9,2.5-32.6-0.4
				c-0.5,0.1-0.8,0.5-0.7,1c0,0.2,0.2,0.4,0.3,0.6l0,0L1058,725.3z"/>
			<g>
				<ellipse class="st2" cx="1112.7" cy="675.2" rx="20" ry="28.7"/>
				<path class="st7" d="M1132.5,675.2c-0.1,9.8-3.6,21.6-12.8,26.7c-4,2.2-8.7,2.4-12.9,0.6c-4.1-1.8-7.4-5.4-9.6-9.2
					c-5.5-9.7-6-22.4-1.7-32.6c3.4-8.3,11.4-16.2,21.1-13.4C1128,650.6,1132.4,664.7,1132.5,675.2l0.3,0.1
					c-0.1-10.1-3.8-22.4-13.6-27.2s-17.5,1-22,8.6c-5.8,9.8-6.3,23-1.9,33.5c3.5,8.3,11.5,16.1,21.2,13.4
					c11.6-3.3,16.2-17.5,16.3-28.3v-0.2h-0.2L1132.5,675.2z"/>
			</g>
			<ellipse class="st5" cx="1105.8" cy="682.6" rx="11.1" ry="16.7"/>
			<ellipse class="st8" cx="1104.2" cy="683.1" rx="5" ry="6.9"/>
			<ellipse class="st2" cx="1109.1" cy="689.1" rx="1.7" ry="2.3"/>
			<ellipse class="st2" cx="1100.4" cy="673" rx="2.9" ry="4"/>
			<g>
				<ellipse class="st2" cx="1055.9" cy="674.5" rx="23.4" ry="35.9"/>
				<path class="st7" d="M1079.1,674.5c-0.1,12-3.9,27.2-15.2,33.6c-4.5,2.6-10,2.9-14.7,0.7c-5-2.3-8.8-6.9-11.3-11.7
					c-6.5-12.2-6.9-28.1-2-40.9c3.8-9.8,12.9-20.5,24.6-16.8c6,1.9,10.5,7,13.4,12.5C1077.4,658.9,1079.2,666.7,1079.1,674.5l0.3,0
					c0-12.2-4-27.7-15.6-34c-4.4-2.4-9.6-2.7-14.2-0.8c-5.2,2.2-9.1,6.7-11.7,11.6c-6.8,12.6-7.3,29.1-1.9,42.3
					c4,9.7,13.1,19.8,24.6,16.2c6-1.9,10.4-6.9,13.3-12.2c3.9-7.1,5.4-15.2,5.5-23.1L1079.1,674.5L1079.1,674.5z"/>
			</g>
			<ellipse class="st5" cx="1047.4" cy="683.7" rx="12.7" ry="20.9"/>
			<ellipse class="st8" cx="1045.6" cy="684.4" rx="6.5" ry="8.7"/>
			<ellipse class="st2" cx="1051.5" cy="691.7" rx="2.2" ry="3"/>
			<ellipse class="st2" cx="1039.7" cy="672.6" rx="3.3" ry="5"/>
			<path class="st9" d="M963.8,805.4c-67.9-139.4-18.2-247.6,59.4-257c71-8.6,106.2,9.4,116.7,78.8
				c-67.9-15.3-116.9-26.3-136.9-12.5c-8.5,18.9-30.7,106.7,31.8,136.5"/>
			<path class="st4" d="M971.5,590.8c4.2-21.6,39.1-30.1,45.9-31.6"/>
		</g>
		<g>
			<path class="st10" d="M705.4,686.2c-5.3-4.6-9.9-3.9-15.7-2.5l-4.1,1.9c-6,4.1-5.4,13.9-1.8,20.4c4.8,8.5,10.6,12.1,17.4,10.2
				c3.1,0,6.1-2.8,8.5-2.8c8.1,26.1,29.5,43.9,59.1,53.9c12.4,5.6,28.4,8.1,41.9,1.8c15.2-6.7,28.6-16.7,40.8-29
				c6.3-4.6,11.2-10.9,14.1-18.1c2.8-10.9,0.1-22.2-3.6-38.3c-2.8-9.9,1.3-41.7,0-48.4s-7.8-7.8-14.1-8l-2.9,12.1
				c-10.5-15.8-24-23.1-39.2-25.5l6,25.8c-17.1-12.7-36.4-17.7-57.7-15.6l4.2,21.7l-19.4-5.1c-7.5,1.8-10,25.2-4.5,34.7
				c-6.1-3.5-14.2-17.8-12.9-2.1c0.3,3.3-0.8,14.6,1.4,20.9C716.5,692.8,710.5,690.4,705.4,686.2z"/>
			<path class="st10" d="M861.9,683.7c-2.8-9.9,1.3-41.7,0-48.4s-7.8-7.8-14.1-8l-2.9,12.1c-10.5-15.8-24-23.1-39.2-25.5l6,25.8
				C794.6,627,775.3,622,754,624.1l4.2,21.7l-19.4-5c-7.5,1.8-10,25.2-4.5,34.7c-6.1-3.5-14.2-17.8-12.9-2.1
				c0.3,3.3-0.8,14.6,1.4,20.9c-6.4-1.5-12.4-3.8-17.5-8.1s-9.9-3.9-15.7-2.5l-4.1,1.9c-6,4.1-5.4,13.9-1.8,20.4
				c4.5,8.1,31.1,18.8,31.2,18.9c5.7,26.9,24.3,32.4,53.8,42.4c12.4,5.6,28.4,8.1,41.9,1.8c15.2-6.7,28.6-16.7,40.8-29
				c6.3-4.6,11.2-10.9,14.1-18.1C868.3,711.1,865.6,699.8,861.9,683.7z"/>
			<path class="st5" d="M704.7,694.3c-5.3-2.5-10.5-2.1-15.9,1.1c-0.9,5,0.1,8.1,2.8,9.5c-0.8-5.2-0.7-8.1,1.3-6.1l3.8,2.5
				L704.7,694.3z"/>
			<path class="st5" d="M765.2,652.7c11.5-11.3,20.8-11.2,28.8-4.7C784.1,646.7,774.1,648.3,765.2,652.7z"/>
			<path class="st5" d="M850.9,658.4c-8.9-12.1-16.1-12-22.3-5C836.1,651.9,843.5,653.7,850.9,658.4z"/>
			<path class="st5" d="M808,724.7c2.5-1.5,5.7-1.5,8.2,0.1c0.4,0.2,0.9,0.1,1.1-0.3c0.2-0.4,0.1-0.9-0.3-1.1
				c-3-1.8-6.8-1.9-9.9-0.1c-0.4,0.2-0.5,0.8-0.2,1.1C807.1,724.8,807.6,724.9,808,724.7L808,724.7z"/>
			<path class="st6" d="M790.6,750.2l23.2,2.3c0.6,0,1.1,0.2,1.6,0.5c0.4,0.4,0.5,1.1,0.1,1.6c-0.4,0.5-0.9,0.9-1.5,1.1
				c-4,2.1-8.7,2.6-13.1,1.6C796.7,756.4,792.9,753.8,790.6,750.2"/>
			<path class="st5" d="M786.5,742c10.5,2.8,21.5,3,32.1,0.4l-1.2-0.7c1.4,8.1-4.9,18.2-14,15.9s-13.1-9.7-15.8-16.8
				c-0.4-1.2-2.3-0.6-1.9,0.5c3.2,8.3,9.9,18.2,19.8,18.6s15.1-10.3,13.7-18.7c-0.1-0.5-0.7-0.8-1.2-0.7
				c-10.2,2.5-20.9,2.3-31.1-0.4c-0.6,0-1,0.4-1.1,0.9C785.8,741.4,786,741.8,786.5,742L786.5,742L786.5,742z"/>
			<path class="st11" d="M724.8,696.4c-32.3-20.6-8.4,49.3,8.4,43c6.1-2.3-17,47.4-46.2,42c-16.7-3.1-14.6-51.8-12.8-47.6
				c4.1,9.3,15.4,14.1,2.5-10.5c-46.6-89.1,35.6-172.6,105.7-166.8c18.4,3.8,21.2,6.8,29.8,14.1c2.5-6.4-0.8-16.9-4.5-23.8
				c8.3,4.9,15,12.1,19.2,20.8c7.4-5.9,10.7-15.1,9.8-27.8c18.1,16.4,26.1,33.7,17,52.1c9.8-3.5,16.9-10.8,21.9-21.2
				c2,14.5-1.4,26.7-11,36.1c9.1-1.4,16-5,20.4-11.4c-1.3,13.5-6.5,22.4-15.3,27.1c6.5,11.2,6.6,23.3,2.1,36.1
				c-1.4-11.2-7.8-23.1-20.9-24.4c-6,0.6-5.2,8.2-4.5,12.1c-5.3-12.3-17.4-19.7-29.6-23.8c5,8.9,0.2,18.7-7.1,23.8
				c-17.5-12.5-31.3-19.2-49.8-17.8c-2.6,2.9-2.5,10.8,0,23.5c-7.1-6-14.5-7.6-22.1-5.7c-7.1,9.7-5.8,21.8-1.3,34.8
				c-4.8-6.4-9.4-10-13.6-9.8C727.5,681.1,728.7,687.7,724.8,696.4z"/>
			<path class="st12" d="M760.2,568.4c17.7-3.6,35.3-1.2,41.4,9.8c-17.1-3.6-42.2-0.2-72.5,7.9L760.2,568.4z"/>
			<path class="st12" d="M680.5,653.3c0.3-14.2,5.7-23,12.9-29.7c-5.1,12.4-6.6,32.1-5.8,56.8L680.5,653.3z"/>
			<g>
				<ellipse class="st2" cx="838.7" cy="694" rx="19.1" ry="27.4"/>
				<path class="st7" d="M857.6,694c-0.1,9.3-3.4,20.6-12.1,25.4s-17.4-0.8-21.8-8.5s-5.4-20.6-1.7-30s10.9-16.3,20.4-13.5
					S857.5,683.9,857.6,694l0.2,0.3l0.2-0.2c-0.1-9.7-3.7-21.5-13.1-26.1s-16.7,1.1-21,8.5c-5.5,9.5-5.9,22-1.6,32
					c3.4,7.8,10.9,15.2,20.1,12.7c11.2-3,15.5-16.8,15.6-27C858,693.8,857.7,693.8,857.6,694z"/>
			</g>
			<ellipse class="st13" cx="832.1" cy="701.1" rx="10.6" ry="15.9"/>
			<ellipse class="st8" cx="830.6" cy="701.6" rx="4.7" ry="6.6"/>
			<ellipse class="st2" cx="835.3" cy="707.3" rx="1.6" ry="2.2"/>
			<ellipse class="st2" cx="827.1" cy="692" rx="2.8" ry="3.8"/>
			<g>
				<ellipse class="st2" cx="784.5" cy="693.3" rx="22.3" ry="34.3"/>
				<path class="st7" d="M806.7,693.3c-0.1,11.4-3.7,25.7-14.3,32s-20.5-1.6-25.3-10.8c-5.9-11.5-6.3-26.1-1.8-38.1
					c3.6-9.5,12.3-20,23.7-16.5C802.1,664.1,806.6,681.3,806.7,693.3l0.2,0.3l0.2-0.2c-0.1-11.7-3.8-26.5-14.9-32.5
					s-19.6,1.3-24.5,10c-6.8,12.1-7.3,28.3-1.9,41.1c3.8,9.1,12.4,18.5,23.2,15.3c13.5-4,18.1-21.5,18.2-33.9
					C807,693.1,806.7,693.1,806.7,693.3z"/>
			</g>
			<ellipse class="st13" cx="776.4" cy="702.2" rx="12.1" ry="20"/>
			<ellipse class="st8" cx="774.7" cy="702.8" rx="6.1" ry="8.3"/>
			<ellipse class="st2" cx="780.3" cy="709.8" rx="2.1" ry="2.9"/>
			<ellipse class="st2" cx="769.1" cy="691.6" rx="3.2" ry="4.8"/>
			<path class="st7" d="M855.5,721.2c0.4,0,0.8-0.4,0.8-0.8c0-0.4-0.4-0.8-0.8-0.8c-0.4,0-0.8,0.4-0.8,0.8
				C854.7,720.8,855.1,721.2,855.5,721.2L855.5,721.2z"/>
			<path class="st7" d="M857.7,728.2c0.4,0,0.8-0.4,0.8-0.8c0-0.4-0.4-0.8-0.8-0.8c-0.4,0-0.8,0.4-0.8,0.8
				C856.9,727.8,857.3,728.2,857.7,728.2L857.7,728.2z"/>
			<path class="st7" d="M850.4,725.3c0.4,0,0.8-0.4,0.8-0.8c0-0.4-0.4-0.8-0.8-0.8c-0.4,0-0.8,0.4-0.8,0.8S850,725.3,850.4,725.3
				L850.4,725.3L850.4,725.3z"/>
			<path class="st7" d="M762.4,730.4c0.4,0,0.8-0.4,0.8-0.8c0-0.4-0.4-0.8-0.8-0.8c-0.4,0-0.8,0.4-0.8,0.8S762,730.4,762.4,730.4
				L762.4,730.4L762.4,730.4z"/>
			<path class="st7" d="M757.6,731.7c0.4,0,0.8-0.4,0.8-0.8c0-0.4-0.4-0.8-0.8-0.8c-0.4,0-0.8,0.4-0.8,0.8
				C756.8,731.3,757.2,731.7,757.6,731.7L757.6,731.7z"/>
			<path class="st7" d="M749,734.6c0.4,0,0.8-0.4,0.8-0.8c0-0.4-0.4-0.8-0.8-0.8c-0.4,0-0.8,0.4-0.8,0.8
				C748.2,734.2,748.6,734.6,749,734.6L749,734.6z"/>
			<path class="st7" d="M746.4,724c0.4,0,0.8-0.4,0.8-0.8c0-0.4-0.4-0.8-0.8-0.8c-0.4,0-0.8,0.4-0.8,0.8
				C745.6,723.6,746,724,746.4,724L746.4,724z"/>
			<path class="st7" d="M752.2,726.9c0.4,0,0.8-0.4,0.8-0.8c0-0.4-0.4-0.8-0.8-0.8c-0.4,0-0.8,0.4-0.8,0.8S751.8,726.9,752.2,726.9
				L752.2,726.9L752.2,726.9z"/>
			<path class="st7" d="M757.9,725.7c0.4,0,0.8-0.4,0.8-0.8c0-0.4-0.4-0.8-0.8-0.8c-0.4,0-0.8,0.4-0.8,0.8
				C757.1,725.3,757.5,725.7,757.9,725.7L757.9,725.7z"/>
			<path class="st7" d="M755.4,722.1c0.4,0,0.8-0.4,0.8-0.8c0-0.4-0.4-0.8-0.8-0.8c-0.4,0-0.8,0.4-0.8,0.8
				C754.6,721.7,755,722.1,755.4,722.1L755.4,722.1z"/>
		</g>
		<g>
			<path class="st14" d="M600.9,690.5c-3-10.4,1.3-44,0-51c-21.7-97.1-193.8,29-185.8,53c-6.3,4.3-5.7,14.7-1.9,21.5
				c4.8,8.6,21.8,15.2,29.7,14.2c0.4,0.8,0.9,1.6,1.5,2.3c0.5,0.8,0.9,2.1,1.5,3.1l0.2,0.4c6,28.3,25.6,34.2,56.7,44.6
				c13.1,5.9,30,8.6,44.1,1.8c16-7,30.1-17.5,43-30.5c6.6-4.9,11.8-11.5,14.8-19.1C607.6,719.4,604.8,707.5,600.9,690.5z"/>
			<path class="st4" d="M435.3,701.7c-5.5-2.7-11.1-2.3-16.7,1.1c-0.9,5.3,0.2,8.5,2.9,10c-0.9-5.4-0.7-8.5,1.3-6.4l4.1,2.6
				L435.3,701.7z"/>
			<path class="st4" d="M499,657.9c12.1-11.9,21.9-11.8,30.4-4.9C519.3,651.5,509.1,653.1,499,657.9z"/>
			<path class="st4" d="M589.4,663.9c-9.4-12.7-17-12.6-23.5-5.2C573.7,657,581.5,658.8,589.4,663.9z"/>
			<path class="st15" d="M544.3,733.6c3-1.8,6.8-1.8,9.8,0.1c0.5,0.1,1-0.1,1.1-0.6c0.1-0.3,0-0.7-0.2-0.9
				c-3.6-2.2-8.1-2.2-11.7-0.1c-0.4,0.3-0.4,0.9,0,1.3c0.2,0.2,0.6,0.3,0.9,0.2l0,0H544.3z"/>
			<path class="st6" d="M525.8,760.6l24.4,2.4c0.6,0,1.2,0.2,1.7,0.5c0.4,0.5,0.5,1.2,0.1,1.7c-0.4,0.5-1,0.9-1.6,1.2
				c-4.3,2.1-9.2,2.7-13.8,1.6c-4.5-1-8.3-3.7-10.8-7.6"/>
			<path class="st4" d="M521.2,752.9c11.3,3,23.1,3.1,34.4,0.4l-2.4-1.4c1.4,8-4.9,17.8-13.8,15.5s-13-9.9-15.7-17
				c-0.9-2.4-4.7-1.3-3.8,1c3.5,9.2,10.7,19.5,21.4,20.3s17.4-11.4,15.7-20.9c-0.3-1-1.4-1.7-2.4-1.4c-10.6,2.6-21.7,2.4-32.3-0.4
				c-1.1-0.1-2.1,0.8-2.1,1.9C520.1,751.7,520.6,752.4,521.2,752.9L521.2,752.9L521.2,752.9z"/>
			<path class="st8" d="M432.9,691.3C431.4,687.4,437.9,692.8,432.9,691.3c0,0-17.7-3.9-22.5,11.1
				c-64.5-95.2,16.1-156.2,100.4-159.8c89.2-3.8,143.1,36.9,90.3,105.2c-39.9-50.3-122.6-11.1-142.4,43.8
				C454.4,708.4,445.4,723.2,432.9,691.3z"/>
			<g>
				<ellipse class="st2" cx="576.5" cy="701.4" rx="20.1" ry="28.8"/>
				<path class="st7" d="M596.5,701.4c-0.1,9.8-3.5,21.6-12.8,26.8s-18.2-0.7-22.9-8.8s-5.8-21.9-1.8-32c3.3-8.5,11.5-17,21.4-14.1
					c11.5,3.3,15.9,17.4,16,28.1l0.2,0.2l0.2-0.2c-0.1-10.3-3.9-22.9-14-27.5s-17.4,1.3-21.8,8.8c-5.9,9.9-6.3,23.1-2,33.6
					c3.5,8.3,11.3,16.1,21,13.7c12-3,16.7-17.7,16.8-28.6v-0.2h-0.2L596.5,701.4z"/>
			</g>
			<ellipse class="st4" cx="569.6" cy="708.8" rx="11.1" ry="16.8"/>
			<ellipse class="st8" cx="568" cy="709.3" rx="5" ry="7"/>
			<ellipse class="st2" cx="573" cy="715.4" rx="1.7" ry="2.3"/>
			<ellipse class="st2" cx="564.2" cy="699.2" rx="2.9" ry="4"/>
			<g>
				<ellipse class="st2" cx="519.4" cy="700.6" rx="23.5" ry="36.1"/>
				<path class="st7" d="M542.7,700.6c-0.1,12.1-3.9,27.4-15.3,33.8s-21.3-1.7-26.3-11.3c-6.2-12.1-6.7-27.5-2.1-40.2
					c3.6-10,12.8-21.2,24.8-17.6C537.9,669.4,542.6,687.8,542.7,700.6l0.2,0.2l0.2-0.2c-0.1-12.3-4.1-28.1-16-34.3
					s-20.6,1.6-25.8,10.8c-7,12.6-7.5,29.4-2.1,42.8c3.9,9.7,13.1,19.8,24.6,16.5c14.2-4.2,19-22.7,19.2-35.7
					C543,700.5,542.7,700.5,542.7,700.6z"/>
			</g>
			<ellipse class="st4" cx="510.8" cy="710" rx="12.8" ry="21.1"/>
			<ellipse class="st8" cx="509" cy="710.6" rx="6.5" ry="8.7"/>
			<ellipse class="st2" cx="514.9" cy="718.1" rx="2.2" ry="3"/>
			<ellipse class="st2" cx="503.1" cy="698.8" rx="3.3" ry="5"/>
		</g>
		<g>
			<path class="st10" d="M313.1,679.3c-2.9-10.3,1.3-43.3,0-50.3s-8-8-14.6-8.3l-3,12.6c-10.9-16.3-24.9-24-40.7-26.5l6.3,26.8
				c-17.8-13.2-37.8-18.4-59.9-16.2l4.3,22.5l-20.2-5.3c-7.8,1.8-10.4,26.2-4.6,36.1c-6.4-3.6-14.8-18.5-13.4-2.2
				c0.3,3.5-0.8,15.2,1.5,21.7c-6.6-1.5-12.9-3.9-18.2-8.4s-10.3-4.1-16.3-2.6l-4.3,2c-6.2,4.2-5.6,14.4-1.9,21.2
				c4.7,8.4,21.4,14.9,29.3,13.9c0.4,0.8,0.9,1.5,1.5,2.2c0.5,0.8,1,2.1,1.5,3l0.2,0.4c5.9,27.9,25.2,33.7,55.9,44
				c13,5.8,29.5,8.4,43.4,1.8c15.7-6.9,29.7-17.3,42.3-30.1c6.5-4.8,11.6-11.3,14.6-18.8C319.7,707.8,316.9,696.1,313.1,679.3z"/>
			<path class="st7" d="M149.9,690.4c-5.4-2.6-11-2.2-16.4,1.1c-1,5.2,0.1,8.3,2.9,9.9c-0.8-5.4-0.8-8.4,1.3-6.3l4,2.6L149.9,690.4z
				"/>
			<path class="st5" d="M212.7,647.2c11.9-11.7,21.6-11.7,29.9-4.8C232.7,640.9,222.7,642.5,212.7,647.2z"/>
			<path class="st5" d="M301.7,653.1c-9.3-12.5-16.7-12.5-23.2-5.2C286.3,646.4,294,648.1,301.7,653.1z"/>
			<path class="st5" d="M257.1,721.8c2.7-1.6,6-1.6,8.7,0c0.4,0.2,0.8,0,0.9-0.4c0.1-0.3,0-0.6-0.2-0.8c-3.1-1.9-7-1.9-10.1,0
				c-0.3,0.2-0.4,0.7-0.1,1C256.5,721.8,256.8,721.9,257.1,721.8L257.1,721.8L257.1,721.8z"/>
			<path class="st6" d="M239,748.4l24.1,2.4c0.6,0,1.2,0.1,1.7,0.5c0.5,0.5,0.5,1.2,0.1,1.7c-0.4,0.5-1,1-1.6,1.2
				c-4.2,2.1-9,2.7-13.6,1.6C245.3,754.8,241.5,752.2,239,748.4"/>
			<path class="st5" d="M234.9,739.8c10.9,2.9,22.3,3,33.2,0.4l-1-0.6c1.6,8.6-5.1,19.1-14.7,16.8s-13.7-10.2-16.5-17.6
				c-0.4-1-2-0.6-1.6,0.5c3.2,8.5,10.1,18.5,20.1,19.2s15.9-10.5,14.4-19.2c-0.1-0.4-0.6-0.7-1-0.6c-10.7,2.6-21.8,2.5-32.4-0.4
				c-0.4-0.1-0.9,0.1-1.1,0.5c-0.1,0.4,0.1,0.9,0.6,1.1h-0.1L234.9,739.8z"/>
			<path class="st16" d="M168.8,696c-4.4-5.2-14.8-10.2-21.3-15.9c-3.1-2.7,5,1.6,0,0c0,0-17.4-3.8-22.2,11
				c-19.2-41.9,4.5-87.5,21.3-117.9c1.6,4.3,2.8,15.5,10.3,14.4c-4.6-3-7.1-22-6-29.4c5.3,8.2,8.3,25.7,8.6,26.2
				c-2.2-6.3,0.8-22.4,3.3-25.8c-0.6,8-2.3,23.5,2,24c3.5-2.2,6.6-4.9,9.3-8c4.7-5.2,9.2-11,14.9-14.5c10.2-6.1,25.3-10.4,34-9.3
				c16.9-0.8,24.6,10.2,38.4,11.1c2.6-6.6-0.8-17.5-4.7-24.7c8.6,5,15.6,12.6,19.9,21.6c7.7-6,11.1-15.6,10.2-28.9
				c18.8,17,27.1,35,17.7,54.1c10.1-3.6,17.5-11.3,22.7-22.1c2.1,15.1-1.5,27.7-11.5,37.5c9.4-1.5,16.6-5.2,21.2-11.8
				c-1.3,14-6.7,23.2-15.9,28.2c6.7,11.7,6.8,24.2,2.2,37.5c-1.5-11.6-8.1-24-21.8-25.3c-6.3,0.7-5.4,8.5-4.6,12.6
				c-5.5-12.8-18.1-20.4-30.7-24.7c5.2,9.3,0.1,19.4-7.3,24.7c-18.1-12.9-32.4-19.9-51.6-18.5c-2.7,3-2.6,11.3,0,24.4
				c-7.3-6.3-15-7.9-23-6c-7.3,10.1-6,22.6-1.3,36.2c-5-6.6-9.7-10.4-14.1-10.2C173.6,676.6,172.8,687,168.8,696z"/>
			<path class="st17" d="M213.1,561.9c18.4-3.7,31.7,1.5,43,10.1c-17.8-3.8-43.8-0.2-75.3,8.1L213.1,561.9z"/>
			<path class="st17" d="M124.8,647.8c0.3-14.7,5.9-23.8,13.4-30.8c-5.3,12.9-6.9,33.3-6,59L124.8,647.8z"/>
			<g>
				<ellipse class="st2" cx="289.1" cy="690.1" rx="19.9" ry="28.4"/>
				<path class="st7" d="M308.7,690.1c-0.1,9.8-3.5,21.5-12.8,26.5s-17.9-0.8-22.4-8.8s-5.7-21.6-1.8-31.6
					c3.3-8.4,11.4-16.8,21.3-13.8S308.5,679.6,308.7,690.1l0.2,0c-0.1-10-3.7-22.1-13.4-27s-17.3,0.8-21.8,8.3
					c-5.9,9.7-6.4,22.8-2,33.2c3.4,8.2,11.3,16,20.9,13.5c11.7-3.1,16.2-17.4,16.3-28.1C309,689.9,308.7,689.9,308.7,690.1z"/>
			</g>
			<ellipse class="st18" cx="282.2" cy="697.4" rx="11" ry="16.5"/>
			<ellipse class="st8" cx="280.7" cy="697.9" rx="4.9" ry="6.9"/>
			<ellipse class="st2" cx="285.5" cy="703.8" rx="1.7" ry="2.3"/>
			<ellipse class="st2" cx="277" cy="687.9" rx="2.9" ry="4"/>
			<g>
				<ellipse class="st2" cx="232.8" cy="689.4" rx="23.1" ry="35.6"/>
				<path class="st7" d="M255.8,689.4c-0.1,11.8-3.8,26.6-14.8,33.1s-21.1-1.2-26.1-10.7c-6.4-12-6.8-27.5-2.1-40.2
					c3.7-9.8,12.8-20.7,24.6-17C251.1,658.9,255.7,676.8,255.8,689.4l0.3,0c-0.1-12.1-4-27.5-15.5-33.7s-20.5,1.5-25.5,10.6
					c-6.9,12.5-7.3,29.1-2,42.2c3.9,9.5,12.9,19.4,24.2,16.1c14-4.1,18.8-22.4,18.8-35.1c0-0.1,0-0.2-0.1-0.2L255.8,689.4
					L255.8,689.4z"/>
			</g>
			<ellipse class="st18" cx="224.3" cy="698.6" rx="12.6" ry="20.7"/>
			<ellipse class="st8" cx="222.6" cy="699.2" rx="6.4" ry="8.6"/>
			<ellipse class="st2" cx="228.4" cy="706.5" rx="2.2" ry="3"/>
			<ellipse class="st2" cx="216.7" cy="687.5" rx="3.3" ry="5"/>
			<path class="st7" d="M306.4,718.1c0.4,0,0.7-0.3,0.7-0.7c0-0.4-0.3-0.7-0.7-0.7s-0.7,0.3-0.7,0.7
				C305.7,717.8,306,718.1,306.4,718.1L306.4,718.1z"/>
			<path class="st7" d="M308.8,725.4c0.4,0,0.7-0.3,0.7-0.7c0-0.4-0.3-0.7-0.7-0.7s-0.7,0.3-0.7,0.7
				C308.1,725.1,308.4,725.4,308.8,725.4L308.8,725.4z"/>
			<path class="st7" d="M301.2,722.4c0.4,0,0.7-0.3,0.7-0.7c0-0.4-0.3-0.7-0.7-0.7c-0.4,0-0.7,0.3-0.7,0.7v0
				C300.5,722.1,300.8,722.4,301.2,722.4L301.2,722.4z"/>
			<path class="st7" d="M209.9,727.7c0.4,0,0.7-0.3,0.7-0.7c0-0.4-0.3-0.7-0.7-0.7c-0.4,0-0.7,0.3-0.7,0.7v0
				C209.2,727.4,209.5,727.7,209.9,727.7L209.9,727.7z"/>
			<path class="st7" d="M204.8,729c0.4,0,0.7-0.3,0.7-0.7c0-0.4-0.3-0.7-0.7-0.7s-0.7,0.3-0.7,0.7C204.1,728.7,204.4,729,204.8,729
				L204.8,729z"/>
			<path class="st7" d="M195.9,732c0.4,0,0.7-0.3,0.7-0.7c0-0.4-0.3-0.7-0.7-0.7s-0.7,0.3-0.7,0.7C195.2,731.7,195.5,732,195.9,732
				L195.9,732z"/>
			<path class="st7" d="M193.3,721.1c0.4,0,0.7-0.3,0.7-0.7c0-0.4-0.3-0.7-0.7-0.7s-0.7,0.3-0.7,0.7
				C192.6,720.8,192.9,721.1,193.3,721.1L193.3,721.1z"/>
			<path class="st7" d="M199.2,724.1c0.4,0,0.7-0.3,0.7-0.7c0-0.4-0.3-0.7-0.7-0.7s-0.7,0.3-0.7,0.7
				C198.5,723.8,198.8,724.1,199.2,724.1L199.2,724.1z"/>
			<path class="st7" d="M205.2,722.8c0.4,0,0.7-0.3,0.7-0.7c0-0.4-0.3-0.7-0.7-0.7s-0.7,0.3-0.7,0.7
				C204.5,722.5,204.8,722.8,205.2,722.8L205.2,722.8L205.2,722.8z"/>
			<path class="st7" d="M202.5,719.1c0.4,0,0.7-0.3,0.7-0.7c0-0.4-0.3-0.7-0.7-0.7s-0.7,0.3-0.7,0.7
				C201.8,718.8,202.1,719.1,202.5,719.1L202.5,719.1z"/>
		</g>
	</g>
	<g>
		<path class="st2" d="M119.4,473.5c-0.1-8.8,7-15.9,15.8-16c0,0,0.1,0,0.1,0h0.1c2,0,4,0.4,5.9,1.1c2.3,0.9,4.7,1.4,7.1,1.4
			c8.2,0,13.3-5,15.1-13.3l14-63.8c1.7-8.1,8.9-13.8,17.1-13.7c11.2,0,19.9,9.8,17.2,21.3l-12.6,56.7c-6.7,30.4-20.6,44.4-48.1,44.4
			c-6.9,0-13.8-1-20.4-3C124,486.6,119.5,480.5,119.4,473.5z"/>
		<path class="st2" d="M301.1,491.3c-9.3,0-17.1-7-18-16.3l-0.2-2.8H239l-5.3,9.9c-3,5.7-8.9,9.2-15.3,9.2
			c-9.5,0-17.3-7.7-17.4-17.2c0.1-3.1,0.9-6.2,2.5-8.9l47.6-80.8c5.5-9.3,15.5-15,26.3-15.1c15.2,0,28,11.1,30.2,26.1l11.2,75.3
			c1.4,9.8-5.3,18.9-15.1,20.4L301.1,491.3z M280.3,442.2l-3.7-41.4l-21.8,41.4h25.6H280.3z"/>
		<path class="st2" d="M447.7,385.9c0,4.1-1.2,8.2-4.1,10.8l-34.3,33.8l21.5,34.8c7.6,12.4-3.7,25.9-16.5,25.9
			c-7.5,0-13.1-5.2-16.7-10.8l-16.2-25.8l-30.2,30.6c-3.2,3.4-7.6,6-12.8,6c-9.2,0.1-16.6-7.3-16.7-16.5c0,0,0,0,0,0
			c0-4.3,1.2-8.2,4.1-10.8l37.5-37l-19.9-32c-6.9-11,3.2-25.8,16.5-25.8c7.5,0,13.1,5.2,16.7,11l14.4,23.5l26.8-28.1
			c3.4-3.5,7.8-6.4,13.1-6.4c9.2,0,16.7,7.5,16.7,16.7l0,0L447.7,385.9z"/>
		<path class="st2" d="M445.4,468.7l18.8-85.8c1.8-8.1,8.9-13.8,17.2-13.7c11,0,19.7,9.6,17.1,21.3l-14.9,67.7H511
			c8.6,0,15.6,7,15.6,15.6v0l0,0c-0.1,8.6-7,15.5-15.6,15.6h-48.9C448.8,489.5,442.6,481.9,445.4,468.7z"/>
		<path class="st2" d="M538.5,470l19.2-87.1c1.7-8.1,8.9-13.8,17.1-13.7c11.2,0,19.9,9.6,17.2,21.3l-19.2,87.1
			c-2.7,9.3-12.4,14.7-21.8,12C542.5,487.2,537.1,478.8,538.5,470z"/>
		<path class="st2" d="M665.6,369c22,0,36.8,8.2,46.2,19.4c2.6,3.2,4.1,7.2,4.1,11.4c-0.1,9.8-8.2,17.7-18,17.6
			c-5.5-0.1-10.7-2.7-14-7.1c-4.4-6.2-11.6-9.6-19.9-9.6c-19.2,0-32.5,16.3-32.5,34.1c0,13.5,10.3,25.2,26.7,25.2
			c6.5-0.2,12.8-2.5,17.8-6.7c3-2.3,6.6-3.5,10.3-3.5c8.9-0.1,16.1,7.1,16.2,16c0,0,0,0.1,0,0.1v0.1c0,5.1-2.5,10-6.6,13
			c-11.5,8.3-25.4,12.8-39.6,12.8c-33.9,0-61.8-21-61.8-54.4C594.3,396.2,626.1,369,665.6,369z"/>
		<path class="st2" d="M712.1,470l19.2-87.1c1.7-8,8.9-13.7,17.1-13.7c11.2,0,19.9,9.6,17.2,21.3l-19.2,87.1
			c-2.7,9.3-12.4,14.7-21.8,12C716.1,487.2,710.7,478.8,712.1,470z"/>
		<path class="st2" d="M839.2,369c35,0,61.7,22,61.7,54c0,37.8-29.9,68.6-71.1,68.6c-35.2,0-61.8-22.2-61.8-54.4
			C767.9,399.4,798,369,839.2,369z M837.1,400.6c-18.8,0-32,16-32,34.1c0,14.6,10.7,25.2,26.7,25.2c18.8,0,32-16,32-34.1
			c-0.1-14.5-10.7-25.1-26.7-25.1L837.1,400.6z"/>
		<path class="st2" d="M909.7,440.8l12.8-57.7c1.9-8.1,9.1-13.9,17.4-13.9c11.6,0,19.9,9.6,17.2,21.7l-10.8,49
			c-0.2,1.4-0.3,2.8-0.3,4.2c0.2,7.6,5.7,16.2,18.3,16.2s20.6-9.1,23.1-20.4l12.6-56.8c1.9-8.1,9.1-13.9,17.4-13.9
			c11.6,0,19.9,9.6,17.2,21.7l-11,49.7c-6.2,28.6-22,51-59.3,51s-55.4-18-55.4-43.4C909,445.7,909.3,443.2,909.7,440.8z"/>
		<path class="st2" d="M1033.9,465.5c0-9,7.2-16.2,16.2-16.3c3.2,0,6.4,0.9,9.1,2.7c9.3,6.1,20.2,9.4,31.4,9.6
			c7.3,0,9.9-2.8,9.9-5.9s-5.7-6.9-14.9-9.9c-16.7-5.3-40.8-13.9-40.8-38.7c0-15.8,16.2-37.7,49.9-37.7c13.2-0.1,26.1,3.1,37.7,9.4
			c7.7,4.3,10.5,14,6.3,21.7c-2.8,5-8.1,8.2-13.9,8.3c-2.9,0-5.7-0.8-8.2-2.3c-7.8-4.7-16.6-7.2-25.7-7.5c-6.6,0-9.2,2.8-9.2,6
			s6.2,6.6,15.1,9.4c16.9,5.3,41.2,14.4,41.2,37s-19,40.3-49.6,40.3c-17.8,0-34.1-4.4-46.7-12.4
			C1036.9,476.3,1034,471.1,1033.9,465.5z"/>
	</g>
</g>
</svg>
