<?xml version="1.0" encoding="utf-8"?>
<!-- Generator: Adobe Illustrator 19.2.0, SVG Export Plug-In . SVG Version: 6.00 Build 0)  -->
<svg version="1.1" id="Layer_1" xmlns="http://www.w3.org/2000/svg" xmlns:xlink="http://www.w3.org/1999/xlink" x="0px" y="0px"
	 viewBox="0 0 1260 1260" style="enable-background:new 0 0 1260 1260;" xml:space="preserve">
<style type="text/css">
	.st0{fill:#F1D2C3;}
	.st1{fill:#B59E92;}
	.st2{fill:#996600;}
	.st3{fill:#FF9999;}
	.st4{fill:#FCF69F;}
	.st5{fill:#FFFFCC;}
	.st6{fill:#FFFFFF;}
	.st7{fill:#33CCFF;}
</style>
<title>hor-jax_black</title>
<rect width="1260" height="1260"/>
<g>
	<g>
		<path class="st0" d="M743.1,557.4c-3.9-13.5,1.7-57,0-66.2c-3.7-7.7-10.6-10.6-19.2-10.9l-3.9,16.6
			c-14.4-21.5-32.8-31.6-53.6-34.9l8.3,35.3c-23.4-17.3-49.8-24.2-78.9-21.4l5.7,29.6l-26.6-7c-10.3,2.4-13.7,34.5-6.1,47.5
			c-8.4-4.7-19.5-24.3-17.6-2.9c0.4,4.5-1,20,1.9,28.6c-8.8-2-17-5.2-24-11.1s-13.5-5.4-21.4-3.4l-5.6,2.7c-8.2,5.5-7.4,19-2.5,27.9
			c6.2,11.1,28.2,19.7,38.5,18.4c0.6,1,1.3,2,2,2.9c0.7,1.3,1.3,2.6,1.9,4l0.3,0.6c7.8,36.7,33.3,44.3,73.6,58
			c17,7.6,38.9,11.1,57.2,2.4c20.7-9.1,39.1-22.7,55.8-39.6c8.6-6.3,15.2-14.8,19.2-24.7C751.8,594.9,748.2,579.4,743.1,557.4z"/>
		<path class="st1" d="M528.3,572c-7.2-3.4-14.4-2.9-21.7,1.5c-1.3,6.8,0.2,11,3.8,13c-1.1-7.1-1-11.1,1.7-8.3l5.3,3.4L528.3,572z"
			/>
		<path class="st2" d="M611,515.1c15.7-15.4,28.4-15.3,39.4-6.4C637.3,506.8,624.1,508.9,611,515.1z"/>
		<path class="st2" d="M728.2,522.9c-12.2-16.5-22-16.4-30.5-6.8C707.8,514,718,516.3,728.2,522.9z"/>
		<path class="st2" d="M669.4,613.4c3.5-2.1,7.9-2.1,11.4,0c0.4,0.2,1,0.1,1.2-0.4c0.2-0.4,0.1-1-0.4-1.2c-4.1-2.5-9.2-2.5-13.3,0
			c-0.4,0.2-0.6,0.8-0.4,1.2c0.2,0.4,0.8,0.6,1.2,0.4l0,0H669.4z"/>
		<path class="st3" d="M645.7,648.4l31.7,3.2c0.8,0,1.6,0.2,2.2,0.7c0.6,0.6,0.6,1.5,0.1,2.2c-0.5,0.7-1.2,1.2-2,1.6
			c-5.5,2.8-11.9,3.5-17.9,2.1c-5.8-1.3-10.8-4.8-14-9.8"/>
		<path class="st2" d="M640.2,637c14.3,3.8,29.4,4,43.8,0.5l-1.4-0.8c1.9,11.9-7.4,25.6-20.5,21.8c-10.3-3-17-13.4-20.6-22.9
			c-0.5-1.3-2.6-0.7-2.1,0.6c4.3,11.2,13.5,24.8,26.9,25.2s20.3-13.9,18.5-25.3c-0.1-0.6-0.7-1-1.3-0.8c0,0-0.1,0-0.1,0
			c-14,3.4-28.7,3.2-42.6-0.5c-0.6-0.1-1.2,0.3-1.3,0.9c-0.1,0.5,0.2,1,0.7,1.2l0,0L640.2,637z"/>
		<path class="st4" d="M553.1,579.4c-5.8-6.8-19.4-13.4-28-21c-4-3.6,6.6,2,0,0c0,0-22.9-5-29.2,14.4c-25.3-55.1,5.9-115.2,28-155.3
			c2.1,5.7,3.7,20.4,13.5,19c-6-4-9.4-29-7.8-38.7c7,10.9,10.9,33.9,11.3,34.6c-2.9-8.3,1.1-29.5,4.4-34c-0.8,10.5-3,31,2.6,31.7
			c4.6-2.7,8.5-6.5,12.2-10.6c6.3-6.8,12.1-14.5,19.7-19.1c13.4-8,33.3-13.6,44.8-12.2c22.3-1,32.5,13.4,50.5,14.5
			c3.4-8.7-1.1-23-6.2-32.5c11.4,6.6,20.6,16.6,26.3,28.5c10.1-8,14.7-20.6,13.4-38.1c24.8,22.5,35.7,46,23.2,71.2
			c13.3-4.8,23.1-14.8,29.9-29.1c2.8,19.9-1.9,36.5-15.1,49.4c12.4-1.9,21.9-6.9,27.9-15.6c-1.7,18.5-8.9,30.6-20.9,37.1
			c8.9,15.3,9,31.9,2.9,49.3c-1.9-15.3-10.7-31.6-28.6-33.4c-8.2,0.9-7.1,11.2-6.1,16.6c-7.2-16.9-23.8-26.8-40.5-32.5
			c6.9,12.2,0.2,25.5-9.6,32.5c-23.8-17-42.7-26.2-68-24.3c-3.5,4-3.5,14.8,0,32.1c-9.7-8.3-19.8-10.5-30.2-7.8
			c-9.7,13.2-7.9,29.8-1.7,47.6c-6.6-8.7-12.8-13.7-18.6-13.4C559.4,553.9,558.5,567.5,553.1,579.4z"/>
		<path class="st5" d="M611.5,402.8c24.2-4.9,41.7,2,56.6,13.3c-23.5-4.9-57.7-0.3-99.2,10.7L611.5,402.8z"/>
		<path class="st5" d="M495.2,515.8c0.4-19.4,7.7-31.4,17.7-40.6c-6.9,16.9-9.1,43.9-8,77.7L495.2,515.8z"/>
		<g>
			<ellipse class="st6" cx="711.5" cy="571.5" rx="26.1" ry="37.4"/>
			<path class="st1" d="M737.4,571.5c-0.2,14.9-7.7,37.2-26,37.2s-26-22.3-26-37.2s7.8-37.2,26-37.2S737.1,556.7,737.4,571.5
				c0,0.1,0.1,0.2,0.2,0.2c0.1,0,0.2-0.1,0.2-0.2c-0.2-13.3-5-29.6-18.1-35.7c-11.3-5.3-22.5,1.6-28.3,11.4
				c-7.6,12.8-8.3,30.1-2.5,43.7c4.5,10.6,14.6,20.7,27.1,17.6c15.7-3.8,21.6-22.9,21.8-37.1c0-0.1-0.1-0.2-0.2-0.1
				C737.4,571.3,737.4,571.4,737.4,571.5z"/>
		</g>
		<ellipse class="st7" cx="702.5" cy="581.2" rx="14.5" ry="21.8"/>
		<ellipse cx="700.4" cy="581.9" rx="6.5" ry="9"/>
		<ellipse class="st6" cx="706.8" cy="589.7" rx="2.2" ry="3.1"/>
		<ellipse class="st6" cx="695.5" cy="568.8" rx="3.8" ry="5.2"/>
		<g>
			<ellipse class="st6" cx="637.4" cy="570.6" rx="30.5" ry="46.9"/>
			<path class="st1" d="M667.7,570.6c-0.2,15.6-4.9,34.9-19.2,43.5s-28.2-1.7-34.8-14.4c-8.1-15.5-8.7-35.5-2.8-51.8
				c4.8-13.1,17-28.2,32.7-23C661.6,530.8,667.5,554,667.7,570.6c0,0.1,0.1,0.2,0.2,0.2c0.1,0,0.2-0.1,0.2-0.2
				c-0.2-16-5.3-36.6-20.9-44.6c-13.5-7-26.7,2.3-33.2,14.2c-9.1,16.6-9.7,38.6-2.4,55.9c5.1,12.2,16.5,24.8,31.1,20.9
				c18.9-5,25.2-29.5,25.4-46.4c0-0.1-0.1-0.2-0.2-0.2C667.8,570.4,667.7,570.5,667.7,570.6z"/>
		</g>
		<ellipse class="st7" cx="626.2" cy="582.7" rx="16.6" ry="27.3"/>
		<ellipse cx="623.9" cy="583.6" rx="8.4" ry="11.3"/>
		<ellipse class="st6" cx="631.6" cy="593.2" rx="2.9" ry="3.9"/>
		<ellipse class="st6" cx="616.2" cy="568.2" rx="4.4" ry="6.5"/>
		<path class="st1" d="M734.4,608.5c0.5,0,0.9-0.4,0.9-0.9s-0.4-0.9-0.9-0.9s-0.9,0.4-0.9,0.9S733.9,608.5,734.4,608.5L734.4,608.5z
			"/>
		<path class="st1" d="M737.5,618.1c0.5,0,0.9-0.4,0.9-0.9s-0.4-0.9-0.9-0.9s-0.9,0.4-0.9,0.9S737,618.1,737.5,618.1L737.5,618.1z"
			/>
		<path class="st1" d="M727.4,614.2c0.5,0,0.9-0.4,0.9-0.9s-0.4-0.9-0.9-0.9l0,0c-0.5,0-0.9,0.4-0.9,0.9S726.9,614.2,727.4,614.2
			L727.4,614.2z"/>
		<path class="st1" d="M607.2,621.1c0.5,0,0.9-0.4,0.9-0.9s-0.4-0.9-0.9-0.9s-0.9,0.4-0.9,0.9S606.7,621.1,607.2,621.1L607.2,621.1z
			"/>
		<path class="st1" d="M600.6,622.9c0.5,0,0.9-0.4,0.9-0.9s-0.4-0.9-0.9-0.9s-0.9,0.4-0.9,0.9S600.1,622.9,600.6,622.9L600.6,622.9z
			"/>
		<path class="st1" d="M588.9,626.8c0.5,0,0.9-0.4,0.9-0.9s-0.4-0.9-0.9-0.9s-0.9,0.4-0.9,0.9S588.4,626.8,588.9,626.8L588.9,626.8z
			"/>
		<path class="st1" d="M585.4,612.4c0.5,0,0.9-0.4,0.9-0.9s-0.4-0.9-0.9-0.9s-0.9,0.4-0.9,0.9S584.9,612.4,585.4,612.4L585.4,612.4z
			"/>
		<path class="st1" d="M593.2,616.3c0.5,0,0.9-0.4,0.9-0.9s-0.4-0.9-0.9-0.9s-0.9,0.4-0.9,0.9S592.7,616.3,593.2,616.3L593.2,616.3z
			"/>
		<path class="st1" d="M601.1,614.6c0.5,0,0.9-0.4,0.9-0.9s-0.4-0.9-0.9-0.9s-0.9,0.4-0.9,0.9S600.6,614.6,601.1,614.6L601.1,614.6z
			"/>
		<path class="st1" d="M597.6,609.8c0.5,0,0.9-0.4,0.9-0.9s-0.4-0.9-0.9-0.9s-0.9,0.4-0.9,0.9S597.1,609.8,597.6,609.8L597.6,609.8z
			"/>
	</g>
	<g>
		<path class="st6" d="M90.3,885.2c-0.3-9.2,6.9-16.8,16.1-17.1c0,0,0,0,0,0h1l6.2,1c2.4,0.9,5,1.4,7.6,1.4
			c8.3,0.3,15.4-5.9,16.2-14.2l14.7-67.4c2.3-9.9,12.3-16.1,22.3-13.8c9.8,2.3,15.9,12,13.8,21.9l-13.3,60.3
			c-7.1,32.3-21.8,47-50.8,47c-7.4,0-14.7-1.1-21.8-3.3C95.2,899,90.4,892.5,90.3,885.2z"/>
		<path class="st6" d="M282.6,903.7c-9.8,0-18-7.4-19-17.1v-3.3H217l-5.7,10.4c-4.9,9-16.2,12.2-25.1,7.3c-5.7-3.1-9.3-9-9.6-15.4
			c0.1-3.4,1.1-6.6,2.9-9.5l50.3-85.4c5.7-9.8,16.1-15.9,27.5-16.2c15.9,0.1,29.4,11.7,31.8,27.5l11.9,79.7
			c1.6,10.4-5.6,20-15.9,21.6L282.6,903.7z M260.8,851.9l-3.8-43.7l-23.3,43.7h27H260.8z"/>
		<path class="st6" d="M437.8,792.1c0.2,4.2-1.4,8.3-4.3,11.4l-36.1,35.6l22.8,37c8.1,13.3-3.8,27.5-17.6,27.5
			c-7.4-0.6-14.1-4.9-17.6-11.4l-17.1-27.1l-31.8,32.3c-3.6,3.9-8.5,6.1-13.8,6.2c-9.7,0.3-17.7-7.3-18-17c0,0,0-0.1,0-0.1V886
			c-0.2-4.2,1.3-8.4,4.3-11.4l39.9-38.9L327.6,802c-7.1-11.9,3.3-27.1,17.6-27.1c7.3,0.6,13.7,4.9,17.1,11.4l15.2,24.7l28.5-29.9
			c3.5-4,8.5-6.4,13.8-6.6c9.7-0.3,17.7,7.3,18,17c0,0,0,0.1,0,0.1C437.8,791.8,437.8,791.9,437.8,792.1z"/>
		<path class="st6" d="M435.4,879.9l19.9-90.7c2-8.3,9.4-14.2,18-14.2c10-0.3,18.3,7.4,18.7,17.4c0.1,1.8-0.1,3.6-0.6,5.4
			l-15.7,71.3h29c9.2,0,16.6,7.5,16.6,16.6c0,9.1-7.4,16.6-16.6,16.6h-51.8C438.8,901.8,432.1,893.7,435.4,879.9z"/>
		<path class="st6" d="M533.7,881.4l20.4-92.1c2.3-9.9,12.3-16.1,22.3-13.8c9.8,2.3,15.9,12,13.8,21.9l-20.5,92.1
			c-3,9.8-13.3,15.3-23.1,12.3C537.8,899.2,532.3,890.5,533.7,881.4z"/>
		<path class="st6" d="M668.1,774.5c23.3,0,38.9,8.6,48.9,20.4c6.3,8.1,4.8,19.8-3.3,26.1c-8.1,6.3-19.8,4.8-26.1-3.3
			c-4.9-6.5-12.7-10.3-20.9-10c-19.4,0.5-34.7,16.6-34.2,36c0,0,0,0.1,0,0.1l0,0c0,14.7,11.9,26.6,26.6,26.6l0,0h1.5
			c7-0.1,13.7-2.6,19-7.1c3.1-2.5,6.9-3.8,10.9-3.8c9.4,0.1,17.1,7.8,17,17.2c0,5.4-2.6,10.5-7,13.7c-12.1,8.9-26.8,13.7-41.8,13.8
			c-36.1,0-65.5-22.3-65.5-57.4C592.6,803,626.3,774.5,668.1,774.5z"/>
		<path class="st6" d="M717.5,881.4l20.4-92.1c2.3-9.9,12.3-16.1,22.3-13.8c9.8,2.3,15.9,12,13.8,21.9l-20.4,92.1
			c-2.3,9.9-12.3,16.1-22.3,13.8C721.6,900.9,715.4,891.2,717.5,881.4z"/>
		<path class="st6" d="M851.8,774.5c37,0,65,23.3,65,57s-31.8,72.6-75,72.6s-65.5-23.3-65.5-57.4S808.2,774.5,851.8,774.5z
			 M849.4,807.7c-19.9,0-33.7,17.1-33.7,36.1s11.4,26.6,28,26.6s33.7-17.1,33.7-36.1s-10.8-26.5-28-26.5V807.7z"/>
		<path class="st6" d="M926.4,850.5l13.8-61.3c2-8.6,9.7-14.7,18.5-14.7c10-0.3,18.3,7.4,18.7,17.4c0.1,1.8-0.1,3.6-0.6,5.4
			l-11.4,51.8c-0.3,1.5-0.5,3.1-0.5,4.7c0.2,9.7,8.2,17.4,17.9,17.2h1.5c14.2,0,21.8-9.5,24.2-21.8l13.3-60.4
			c2-8.6,9.7-14.7,18.5-14.7c10-0.3,18.3,7.4,18.7,17.4c0.1,1.8-0.1,3.6-0.6,5.4l-11.9,52.7c-6.6,30.4-23.3,54.1-62.7,54.1
			s-58.9-19-58.9-46.1C925.3,855.2,925.8,852.8,926.4,850.5z"/>
		<path class="st6" d="M1057.9,876.6c0-9.4,7.7-17.1,17.1-17.1l0,0l0,0c3.4,0,6.7,1,9.5,2.9c9.9,6.4,21.4,9.9,33.2,10
			c7.6,0,10.4-2.9,10.4-6.2s-6.2-7.1-15.7-10.4c-17.6-5.7-43.2-14.7-43.2-40.8c0-16.6,17.1-39.9,52.7-39.9
			c13.9-0.1,27.7,3.3,39.9,10c8.1,4.8,10.8,15.3,6,23.4c-3,5-8.3,8.2-14.1,8.4c-3,0-6-0.8-8.6-2.4c-8.2-5-17.5-7.7-27.1-8.1
			c-7.1,0-10,2.9-10,6.2s6.6,7.1,16.2,10c18,5.7,43.7,15.2,43.7,38.9s-19.9,42.7-52.2,42.7c-17.5,0.4-34.8-4.2-49.8-13.3
			C1061,887.8,1058,882.4,1057.9,876.6z"/>
	</g>
</g>
</svg>
