<svg xmlns="http://www.w3.org/2000/svg" width="73mm" height="8.8mm" viewBox="0 0 206.9 24.8">
  <defs>
    <style>
      .a {
        fill: #fff;
      }
    </style>
  </defs>
  <title>logo-text-jaxlicious</title>
  <g>
    <path class="a" d="M21.7,38.4a3.2,3.2,0,0,1,3.2-3.2l1.2,0.2,1.4,0.3A3,3,0,0,0,30.6,33l2.8-12.9a3.6,3.6,0,0,1,6.9,1.5L37.8,33.1c-1.4,6.2-4.2,9-9.8,9a13.9,13.9,0,0,1-4.1-.6A3.2,3.2,0,0,1,21.7,38.4Z" transform="translate(-21.7 -17.3)"/>
    <path class="a" d="M58.5,42a3.6,3.6,0,0,1-3.6-3.3V38.2H45.9l-1.1,2a3.5,3.5,0,0,1-6.6-1.6,3.7,3.7,0,0,1,.5-1.8l9.6-16.4a6.2,6.2,0,0,1,5.3-3.1,6.2,6.2,0,0,1,6.1,5.3l2.3,15.3A3.6,3.6,0,0,1,58.5,42Zm-4.2-9.9-0.8-8.4-4.4,8.4h5.2Z" transform="translate(-21.7 -17.3)"/>
    <path class="a" d="M88.2,20.7a3,3,0,0,1-.8,2.2l-6.9,6.8,4.4,7.1c1.5,2.5-.8,5.3-3.3,5.3a4.1,4.1,0,0,1-3.4-2.2l-3.3-5.2-6.1,6.2A3.6,3.6,0,0,1,66.1,42a3.4,3.4,0,0,1-3.4-3.3,2.9,2.9,0,0,1,.8-2.2L71.1,29l-4-6.5c-1.4-2.2.6-5.2,3.3-5.2a4.1,4.1,0,0,1,3.4,2.2l2.9,4.8,5.4-5.7a3.7,3.7,0,0,1,2.7-1.3A3.4,3.4,0,0,1,88.2,20.7Z" transform="translate(-21.7 -17.3)"/>
    <path class="a" d="M87.7,37.5l3.8-17.4A3.5,3.5,0,0,1,95,17.3a3.5,3.5,0,0,1,3.5,4.3l-3,13.7H101a3.2,3.2,0,1,1,0,6.3H91.1C88.4,41.7,87.2,40.1,87.7,37.5Z" transform="translate(-21.7 -17.3)"/>
    <path class="a" d="M106.6,37.7l3.9-17.6a3.6,3.6,0,0,1,6.9,1.5l-3.9,17.6A3.6,3.6,0,0,1,106.6,37.7Z" transform="translate(-21.7 -17.3)"/>
    <path class="a" d="M132.3,17.3c4.5,0,7.5,1.7,9.4,3.9a3.7,3.7,0,0,1,.8,2.3,3.6,3.6,0,0,1-6.5,2.1,4.8,4.8,0,0,0-4-1.9,6.7,6.7,0,0,0-6.6,6.9,5.1,5.1,0,0,0,5.4,5.1,5.8,5.8,0,0,0,3.6-1.4,3.4,3.4,0,0,1,2.1-.7,3.3,3.3,0,0,1,1.9,5.9,13.7,13.7,0,0,1-8,2.6c-6.9,0-12.5-4.2-12.5-11C117.9,22.8,124.4,17.3,132.3,17.3Z" transform="translate(-21.7 -17.3)"/>
    <path class="a" d="M141.8,37.7l3.9-17.6a3.6,3.6,0,0,1,6.9,1.5l-3.9,17.6A3.6,3.6,0,0,1,141.8,37.7Z" transform="translate(-21.7 -17.3)"/>
    <path class="a" d="M167.5,17.3c7.1,0,12.5,4.5,12.5,10.9s-6,13.9-14.4,13.9-12.5-4.5-12.5-11S159.2,17.3,167.5,17.3Zm-0.4,6.4a6.6,6.6,0,0,0-6.5,6.9,5,5,0,0,0,5.4,5.1,6.6,6.6,0,0,0,6.5-6.9A5,5,0,0,0,167.1,23.7Z" transform="translate(-21.7 -17.3)"/>
    <path class="a" d="M181.8,31.8l2.6-11.7a3.6,3.6,0,0,1,3.5-2.8,3.5,3.5,0,0,1,3.5,4.4l-2.2,9.9a4.8,4.8,0,0,0-.1.9,3.4,3.4,0,0,0,3.7,3.3c2.8,0,4.2-1.8,4.7-4.1l2.6-11.5a3.6,3.6,0,0,1,3.5-2.8,3.5,3.5,0,0,1,3.5,4.4l-2.2,10.1c-1.3,5.8-4.5,10.3-12,10.3s-11.2-3.6-11.2-8.8A12.2,12.2,0,0,1,181.8,31.8Z" transform="translate(-21.7 -17.3)"/>
    <path class="a" d="M207,36.8a3.3,3.3,0,0,1,3.3-3.3,3.2,3.2,0,0,1,1.8.5,11.9,11.9,0,0,0,6.4,1.9c1.5,0,2-.6,2-1.2s-1.2-1.4-3-2c-3.4-1.1-8.3-2.8-8.3-7.8,0-3.2,3.3-7.6,10.1-7.6a15.7,15.7,0,0,1,7.6,1.9,3.2,3.2,0,0,1-1.5,6.1,3.2,3.2,0,0,1-1.7-.5,10.8,10.8,0,0,0-5.2-1.5c-1.3,0-1.9.6-1.9,1.2s1.3,1.3,3.1,1.9c3.4,1.1,8.4,2.9,8.4,7.5s-3.9,8.2-10,8.2a17.8,17.8,0,0,1-9.5-2.5A3.3,3.3,0,0,1,207,36.8Z" transform="translate(-21.7 -17.3)"/>
  </g>
</svg>
