<svg xmlns="http://www.w3.org/2000/svg" width="6.2in" height="7.7in" viewBox="0 0 443.1 551.2">
  <defs>
    <style>
      .a {
        fill: #c68c6d;
      }

      .b {
        fill: #754c24;
      }

      .c {
        fill: #960;
      }

      .d {
        fill: #f99;
      }

      .e {
        fill: #fff;
      }

      .f {
        fill: #b59e92;
      }

      .g {
        fill: #42210b;
      }
    </style>
  </defs>
  <title>Head_Jen</title>
  <g>
    <path class="a" d="M4977.3,1655.4c-11.8-10.2-50.4,141.6-63.3,144.8l-9.2,4.3c-13.4,9-12.1,31-4,45.5,10.1,18.1,46,32.1,62.8,29.9,0.7,1.8,2.2,3.1,3.2,4.8a67.6,67.6,0,0,1,3.1,6.5l0.5,0.9c12.7,59.9,54.2,72.3,120,94.5,27.8,12.5,63.4,18.1,93.3,3.9,33.8-14.9,63.8-37.1,90.9-64.6a93.5,93.5,0,0,0,31.3-40.4c6.2-24.2.2-49.5-8.1-85.4-6.3-22,2.8-93,0-107.9-6-12.5-57.5-83.4-71.5-84" transform="translate(-4865.4 -1549.2)"/>
    <path class="b" d="M4951.6,1824q-17.6-8.4-35.3,2.4c-2.1,11.2.3,17.9,6.2,21.2-1.8-11.6-1.6-18,2.8-13.5l8.6,5.5Z" transform="translate(-4865.4 -1549.2)"/>
    <path class="b" d="M5086.4,1731.2c25.6-25.1,46.3-25,64.2-10.4Q5118.5,1716,5086.4,1731.2Z" transform="translate(-4865.4 -1549.2)"/>
    <path class="b" d="M5277.5,1744c-19.9-26.9-35.9-26.8-49.8-11.1Q5252.6,1727.8,5277.5,1744Z" transform="translate(-4865.4 -1549.2)"/>
    <path class="c" d="M5181.6,1891.5a17.9,17.9,0,0,1,18.7.1,1.5,1.5,0,0,0,1.5-2.6,20.9,20.9,0,0,0-21.7-.1,1.5,1.5,0,0,0,1.5,2.6h0Z" transform="translate(-4865.4 -1549.2)"/>
    <path class="d" d="M5142.9,1948.5l51.7,5.1a6.2,6.2,0,0,1,3.6,1.1,2.8,2.8,0,0,1,.2,3.6,8.7,8.7,0,0,1-3.3,2.6,43,43,0,0,1-29.2,3.4c-9.7-2.3-18.2-8.3-22.8-16" transform="translate(-4865.4 -1549.2)"/>
    <path class="b" d="M5133.9,1930c23.3,6.5,48,6.3,71.4.9l-2.2-1.3c3.3,18.4-11,40.9-31.5,36-17.7-4.2-29.5-21.9-35.5-37.8-0.8-2.2-4.3-1.2-3.5,1,6.9,18.3,21.6,39.6,43.1,41.1s34.2-22.5,30.9-41.2a1.8,1.8,0,0,0-2.2-1.3c-22.8,5.3-46.8,5.5-69.5-.9-2.2-.6-3.2,2.8-1,3.5h0Z" transform="translate(-4865.4 -1549.2)"/>
    <g>
      <ellipse class="e" cx="384.8" cy="274.1" rx="42.6" ry="61"/>
      <path class="f" d="M5292.5,1823.3c-0.2,21-7.6,46.1-27.4,56.8s-38.5-1.8-48-18.9c-11.3-20.2-12.2-46.4-3.8-67.8,7.1-18.1,24.5-36,45.7-29.6,24.1,7.3,33.3,37,33.6,59.4a0.3,0.3,0,0,0,.6,0c-0.2-21.4-8-47.5-28.7-57.9-18.4-9.2-37.1,1.7-46.8,17.9-12.6,20.9-13.7,49-4.3,71.4,7.3,17.6,24.2,34.3,44.8,28.9,25.1-6.6,34.9-37.3,35.1-60.3A0.3,0.3,0,0,0,5292.5,1823.3Z" transform="translate(-4865.4 -1549.2)"/>
    </g>
    <ellipse class="c" cx="370.1" cy="289.9" rx="23.6" ry="35.5"/>
    <ellipse cx="366.8" cy="290.9" rx="10.6" ry="14.8"/>
    <ellipse class="e" cx="377.3" cy="303.7" rx="3.6" ry="5"/>
    <ellipse class="e" cx="358.8" cy="269.6" rx="6.2" ry="8.5"/>
    <g>
      <ellipse class="e" cx="264" cy="272.6" rx="49.7" ry="76.5"/>
      <path class="f" d="M5178.8,1821.8c-0.2,25.4-8.2,57.1-31.7,71.1s-45.2-2.5-56.1-22.9c-13.7-25.8-14.7-59.1-4.5-86.3,7.9-21.1,27.5-44.5,52.8-36.6,29.4,9.3,39.3,47.6,39.5,74.6a0.3,0.3,0,0,0,.6,0c-0.2-26-8.6-59.1-33.4-72.4-22.1-11.9-44,3.2-54.8,22.7-14.9,26.8-15.8,62.4-4.2,90.6,8.4,20.4,27.6,41.7,52,34.5,30-8.9,40.3-48,40.4-75.4A0.3,0.3,0,0,0,5178.8,1821.8Z" transform="translate(-4865.4 -1549.2)"/>
    </g>
    <ellipse class="c" cx="245.8" cy="292.4" rx="27" ry="44.5"/>
    <ellipse cx="242" cy="293.7" rx="13.7" ry="18.5"/>
    <ellipse class="e" cx="254.5" cy="309.4" rx="4.7" ry="6.4"/>
    <ellipse class="e" cx="229.6" cy="268.7" rx="7.1" ry="10.7"/>
    <path class="g" d="M4933.5,2100.4c-144.5-296.7-38.8-527,126.5-547,151.1-18.3,226,20,248.4,167.6-144.4-32.6-248.9-56.1-291.4-26.6-18.1,40.2-65.4,227,67.7,290.4" transform="translate(-4865.4 -1549.2)"/>
    <path class="b" d="M4949.9,1643.8c9-46,83.2-64.1,97.6-67.3" transform="translate(-4865.4 -1549.2)"/>
  </g>
</svg>
