<?xml version="1.0" encoding="utf-8"?>
<!-- Generator: Adobe Illustrator 19.2.0, SVG Export Plug-In . SVG Version: 6.00 Build 0)  -->
<svg version="1.1" id="Layer_1" xmlns="http://www.w3.org/2000/svg" xmlns:xlink="http://www.w3.org/1999/xlink" x="0px" y="0px"
	 viewBox="0 0 207.2 12.2" style="enable-background:new 0 0 207.2 12.2;" xml:space="preserve">
<style type="text/css">
	.st0{enable-background:new    ;}
	.st1{fill:#FFFFFF;}
</style>
<title>00 Text__JAXLICIOUS</title>
<g class="st0">
	<path class="st1" d="M0,10.1v-8c0-1.2,0.7-1.9,1.9-1.9h5.3c2.4,0,3.5,1.6,3.5,3c0,1.5-0.9,2.5-2,2.7c1.3,0.2,2.2,1.4,2.2,2.9
		c0,1.6-1.1,3.2-3.5,3.2H1.9C0.7,12,0,11.3,0,10.1z M6.3,4.6C6.7,4.6,7,4.2,7,3.8c0-0.4-0.3-0.7-0.7-0.7H3.6v1.5H6.3z M6.4,9.1
		c0.5,0,0.8-0.4,0.8-0.8c0-0.4-0.3-0.8-0.8-0.8H3.6v1.6H6.4z"/>
	<path class="st1" d="M23.3,10.4c0,1-0.8,1.8-1.8,1.8c-0.8,0-1.5-0.5-1.7-1.3l-0.2-0.6h-4.4L15,10.9c-0.2,0.7-0.9,1.3-1.7,1.3
		c-1,0-1.8-0.8-1.8-1.8c0-0.2,0-0.4,0.1-0.6L14.5,2c0.4-1.2,1.6-2,2.9-2c1.3,0,2.5,0.8,2.9,2l2.8,7.7C23.3,9.9,23.3,10.1,23.3,10.4z
		 M18.7,7.3l-1.3-3.9l-1.3,3.9H18.7z"/>
	<path class="st1" d="M34.9,10.4V4.5l-2.5,6.9c-0.1,0.4-0.5,0.7-1,0.7c-0.4,0-0.8-0.3-1-0.7L28,4.5v5.8c0,1-0.8,1.8-1.8,1.8
		c-1,0-1.8-0.8-1.8-1.8V2.9c0-1.6,1.3-2.8,2.8-2.8c1.2,0,2.3,0.8,2.7,1.9l1.5,4.3l1.5-4.3C33.3,0.8,34.4,0,35.6,0
		c1.6,0,2.8,1.3,2.8,2.8v7.5c0,1-0.8,1.8-1.8,1.8S34.9,11.3,34.9,10.4z"/>
	<path class="st1" d="M41.9,8.4c1,0,1.9,0.9,1.9,1.9c0,1-0.8,1.9-1.9,1.9S40,11.3,40,10.3C40,9.3,40.8,8.4,41.9,8.4z M40.3,6.4
		l-0.3-4.4C40,0.9,40.8,0,41.8,0s1.8,0.9,1.8,1.9l-0.3,4.4c-0.1,0.8-0.7,1.4-1.5,1.4C41.1,7.8,40.4,7.1,40.3,6.4z"/>
	<path class="st1" d="M52.3,10.4V3.3h-1.8c-0.8,0-1.6-0.7-1.6-1.6s0.7-1.6,1.6-1.6h7.1c0.8,0,1.6,0.7,1.6,1.6s-0.7,1.6-1.6,1.6h-1.8
		v7.1c0,1-0.8,1.8-1.8,1.8S52.3,11.3,52.3,10.4z"/>
	<path class="st1" d="M68,10.4V7.5h-4.2v2.9c0,1-0.8,1.8-1.8,1.8c-1,0-1.8-0.8-1.8-1.8V1.8c0-1,0.8-1.8,1.8-1.8c1,0,1.8,0.8,1.8,1.8
		v2.6H68V1.8c0-1,0.8-1.8,1.8-1.8c1,0,1.8,0.8,1.8,1.8v8.6c0,1-0.8,1.8-1.8,1.8C68.8,12.1,68,11.3,68,10.4z"/>
</g>
<g class="st0">
	<path class="st1" d="M84.5,10.4c0,1-0.8,1.8-1.8,1.8c-0.8,0-1.5-0.5-1.7-1.3l-0.2-0.6h-4.4l-0.2,0.6c-0.2,0.7-0.9,1.3-1.7,1.3
		c-1,0-1.8-0.8-1.8-1.8c0-0.2,0-0.4,0.1-0.6L75.7,2c0.4-1.2,1.6-2,2.9-2c1.3,0,2.5,0.8,2.9,2l2.8,7.7C84.5,9.9,84.5,10.1,84.5,10.4z
		 M79.9,7.3l-1.3-3.9l-1.3,3.9H79.9z"/>
</g>
<g class="st0">
	<path class="st1" d="M86.6,10.4V3.3h-1.8c-0.8,0-1.6-0.7-1.6-1.6s0.7-1.6,1.6-1.6h7.1c0.8,0,1.6,0.7,1.6,1.6s-0.7,1.6-1.6,1.6h-1.8
		v7.1c0,1-0.8,1.8-1.8,1.8S86.6,11.3,86.6,10.4z"/>
	<path class="st1" d="M95.8,6.1c-0.4,0-0.8-0.4-0.8-0.8c0-0.2,0.1-0.5,0.3-0.6c0.4-0.4,0.8-0.8,1-1.3c-0.1,0-0.3,0.1-0.5,0.1
		c-0.8,0-1.5-0.7-1.5-1.6c0-1,0.8-1.9,1.8-1.9c1.1,0,2,0.8,2,2.3c0,1.4-0.6,2.6-1.8,3.6C96.2,6,96,6.1,95.8,6.1z"/>
	<path class="st1" d="M99.1,9.8c0-0.9,0.7-1.6,1.6-1.6c0.3,0,0.6,0.1,0.8,0.2c0.8,0.5,1.7,0.8,2.8,0.8c0.7,0,1.3-0.2,1.3-0.7
		c0-0.5-0.5-0.7-1.7-0.9C102,7.2,99,6.8,99,3.8c0-2,1.7-3.8,5.1-3.8c1.3,0,2.6,0.2,3.7,0.7c0.5,0.2,0.9,0.8,0.9,1.4
		c0,0.9-0.7,1.6-1.6,1.6c-0.2,0-0.5-0.1-0.7-0.1c-1-0.4-1.9-0.6-2.5-0.6c-1.1,0-1.3,0.3-1.3,0.6c0,0.5,0.5,0.6,1.7,0.8
		c1.9,0.3,4.8,0.9,4.8,3.6c0,2.6-1.9,4.1-5.1,4.1c-1.7,0-3-0.3-4.2-1C99.4,10.9,99.1,10.4,99.1,9.8z"/>
	<path class="st1" d="M114.8,10.1v-8c0-1.2,0.7-1.9,1.9-1.9h3.4c3.7,0,6.5,2.1,6.5,5.9s-2.8,5.9-6.4,5.9h-3.4
		C115.5,12,114.8,11.3,114.8,10.1z M120.1,8.9c1.8,0,2.8-1.3,2.8-2.8c0-1.6-0.9-2.8-2.8-2.8h-1.7v5.6H120.1z"/>
	<path class="st1" d="M127.8,10.1v-8c0-1.2,0.7-1.9,1.9-1.9h5.7c0.8,0,1.5,0.7,1.5,1.5s-0.7,1.5-1.5,1.5h-4.1v1.4h3.9
		c0.8,0,1.5,0.7,1.5,1.5s-0.7,1.5-1.5,1.5h-3.9V9h4.1c0.8,0,1.5,0.7,1.5,1.5s-0.7,1.5-1.5,1.5h-5.7C128.5,12,127.8,11.3,127.8,10.1z
		"/>
	<path class="st1" d="M138.3,10.1V1.8c0-1,0.8-1.8,1.8-1.8c1,0,1.8,0.8,1.8,1.8v7.1h3.1c0.8,0,1.6,0.7,1.6,1.6
		c0,0.9-0.7,1.6-1.6,1.6h-4.8C139,12,138.3,11.3,138.3,10.1z"/>
	<path class="st1" d="M147.8,10.4V1.8c0-1,0.8-1.8,1.8-1.8s1.8,0.8,1.8,1.8v8.6c0,1-0.8,1.8-1.8,1.8S147.8,11.3,147.8,10.4z"/>
	<path class="st1" d="M152.6,6.1c0-3.6,2.8-6.1,6.4-6.1c2,0,3.4,0.7,4.3,1.7c0.3,0.3,0.5,0.7,0.5,1.1c0,0.9-0.8,1.7-1.7,1.7
		c-0.5,0-1-0.2-1.3-0.6c-0.5-0.5-1.1-0.9-1.9-0.9c-1.6,0-2.8,1.3-2.8,2.9c0,1.6,1.1,2.9,2.8,2.9c0.7,0,1.4-0.3,1.9-0.9
		c0.3-0.4,0.8-0.6,1.3-0.6c0.9,0,1.7,0.8,1.7,1.7c0,0.4-0.2,0.8-0.4,1.1c-0.9,1-2.3,1.8-4.3,1.8C155.4,12.2,152.6,9.7,152.6,6.1z"/>
	<path class="st1" d="M165.4,10.4V1.8c0-1,0.8-1.8,1.8-1.8c1,0,1.8,0.8,1.8,1.8v8.6c0,1-0.8,1.8-1.8,1.8
		C166.2,12.1,165.4,11.3,165.4,10.4z"/>
	<path class="st1" d="M176.6,0c3.6,0,6.4,2.5,6.4,6.1c0,3.6-2.8,6.1-6.4,6.1c-3.6,0-6.4-2.5-6.4-6.1C170.2,2.5,173,0,176.6,0z
		 M176.6,3.1c-1.7,0-2.8,1.3-2.8,2.9c0,1.6,1.1,2.9,2.8,2.9s2.8-1.3,2.8-2.9C179.5,4.4,178.3,3.1,176.6,3.1z"/>
	<path class="st1" d="M184.3,1.8c0-1,0.8-1.8,1.8-1.8c1,0,1.8,0.8,1.8,1.8V7c0,1.1,0.6,2,2,2c1.4,0,2-0.9,2-2V1.8
		c0-1,0.8-1.8,1.8-1.8c1,0,1.8,0.8,1.8,1.8v5.3c0,2.9-1.7,5.1-5.6,5.1s-5.7-2.1-5.7-5V1.8z"/>
	<path class="st1" d="M197.1,9.8c0-0.9,0.7-1.6,1.6-1.6c0.3,0,0.6,0.1,0.8,0.2c0.8,0.5,1.7,0.8,2.8,0.8c0.7,0,1.3-0.2,1.3-0.7
		c0-0.5-0.5-0.7-1.7-0.9C200,7.2,197,6.8,197,3.8c0-2,1.7-3.8,5.1-3.8c1.3,0,2.6,0.2,3.7,0.7c0.5,0.2,0.9,0.8,0.9,1.4
		c0,0.9-0.7,1.6-1.6,1.6c-0.2,0-0.5-0.1-0.7-0.1c-1-0.4-1.9-0.6-2.5-0.6c-1.1,0-1.3,0.3-1.3,0.6c0,0.5,0.5,0.6,1.7,0.8
		c1.9,0.3,4.8,0.9,4.8,3.6c0,2.6-1.9,4.1-5.1,4.1c-1.7,0-3-0.3-4.2-1C197.4,10.9,197.1,10.4,197.1,9.8z"/>
</g>
</svg>
