<?xml version="1.0" encoding="utf-8"?>
<!-- Generator: Adobe Illustrator 19.2.0, SVG Export Plug-In . SVG Version: 6.00 Build 0)  -->
<svg version="1.1" id="Layer_1" xmlns="http://www.w3.org/2000/svg" xmlns:xlink="http://www.w3.org/1999/xlink" x="0px" y="0px"
	 viewBox="0 0 469.6 519.6" style="enable-background:new 0 0 469.6 519.6;" xml:space="preserve">
<style type="text/css">
	.st0{fill:#F1D2C3;}
	.st1{fill:#B59E92;}
	.st2{fill:#996600;}
	.st3{fill:#FF9999;}
	.st4{fill:#FCF69F;}
	.st5{fill:#FFFFCC;}
	.st6{fill:#FFFFFF;}
	.st7{fill:#33CCFF;}
</style>
<title>Jax+Tex__Logo__OUTLINES</title>
<path class="st0" d="M418.4,320.8c-6.3-22,2.8-93,0-107.9c-6-12.5-17.2-17.3-31.3-17.8l-6.4,27c-23.4-35.1-53.5-51.5-87.4-56.8
	l13.5,57.6c-38.2-28.3-81.2-39.4-128.6-34.8l9.2,48.3L144.1,225c-16.8,3.9-22.3,56.2-9.9,77.4c-13.7-7.7-31.8-39.7-28.7-4.7
	c0.7,7.4-1.6,32.7,3.1,46.6c-14.3-3.2-27.7-8.4-39.1-18s-22.1-8.7-35-5.5l-9.2,4.3c-13.4,9-12.1,31-4,45.5
	c10.1,18.1,46,32.1,62.8,29.9c0.7,1.8,2.2,3.1,3.2,4.8c1.1,2.1,2.2,4.3,3.1,6.5l0.5,0.9c12.7,59.9,54.2,72.3,120,94.5
	c27.8,12.5,63.4,18.1,93.3,3.9c33.8-14.9,63.8-37.1,90.9-64.6c14-10.3,24.8-24.3,31.3-40.4C432.7,382,426.7,356.7,418.4,320.8z"/>
<path class="st1" d="M68.2,344.6c-11.7-5.6-23.5-4.8-35.3,2.4c-2.1,11.2,0.3,17.9,6.2,21.2c-1.8-11.6-1.6-18,2.8-13.5l8.6,5.5
	L68.2,344.6z"/>
<path class="st2" d="M203,251.7c25.6-25.1,46.3-25,64.2-10.4C245.8,238.2,224.4,241.6,203,251.7z"/>
<path class="st2" d="M394.1,264.6c-19.9-26.9-35.9-26.8-49.8-11.1C360.9,250.1,377.5,253.8,394.1,264.6z"/>
<path class="st2" d="M298.2,412c5.8-3.5,13-3.4,18.7,0.1c0.7,0.4,1.6,0.2,2-0.5c0.4-0.7,0.2-1.6-0.5-2.1c-6.6-4.1-15-4.1-21.7-0.1
	c-0.7,0.4-1,1.3-0.5,2.1C296.6,412.2,297.5,412.4,298.2,412L298.2,412z"/>
<path class="st3" d="M259.5,469.1l51.7,5.1c1.3,0,2.5,0.4,3.6,1.1c0.9,1,1,2.5,0.2,3.6c-0.9,1.1-2,2-3.3,2.6
	c-9,4.5-19.4,5.7-29.2,3.4c-9.7-2.3-18.2-8.3-22.8-16"/>
<path class="st2" d="M250.5,450.6c23.3,6.5,48,6.3,71.4,0.9l-2.2-1.3c3.3,18.4-11,40.9-31.5,36c-17.7-4.2-29.5-21.9-35.5-37.8
	c-0.8-2.2-4.3-1.2-3.5,1c6.9,18.3,21.6,39.6,43.1,41.1s34.2-22.5,30.9-41.2c-0.2-1-1.2-1.5-2.2-1.3c0,0,0,0,0,0
	c-22.8,5.3-46.8,5.5-69.5-0.9C249.3,446.5,248.3,449.9,250.5,450.6L250.5,450.6L250.5,450.6z"/>
<path class="st4" d="M108.7,356.7C99.2,345.6,77,334.8,63,322.5c-6.6-5.8,10.7,3.3,0,0c0,0-37.4-8.2-47.7,23.5
	C-25.9,256.1,24.9,158.2,61,92.8c3.4,9.3,6.1,33.3,22,31c-9.8-6.4-15.3-47.2-12.8-63.2C81.6,78.3,88,115.9,88.7,117
	c-4.8-13.5,1.8-48,7.1-55.4c-1.3,17.1-4.9,50.5,4.3,51.6c7.4-4.4,13.8-10.6,19.9-17.2c10.2-11.2,19.7-23.6,32.1-31.1
	c21.9-13.1,54.3-22.2,73-19.9c36.4-1.6,52.9,21.8,82.4,23.7c5.5-14.2-1.8-37.6-10.1-53.1C316,26.5,330.3,41.9,340.2,62
	c16.5-13.1,23.9-33.6,21.8-62.1C402.4,36.5,420.2,75,399.9,116c21.7-7.8,37.6-24.2,48.8-47.4c4.5,32.4-3.1,59.5-24.6,80.5
	c20.2-3.1,35.7-11.2,45.4-25.4c-2.8,30.1-14.5,49.9-34.1,60.5c14.5,25,14.6,52,4.7,80.4c-3.1-24.9-17.4-51.5-46.7-54.4
	c-13.5,1.5-11.6,18.3-9.9,27c-11.8-27.5-38.8-43.8-66-53c11.2,19.9,0.3,41.6-15.7,53c-38.8-27.7-69.6-42.8-110.8-39.6
	c-5.7,6.5-5.6,24.2,0,52.4c-15.8-13.5-32.3-17-49.3-12.8c-15.8,21.6-12.9,48.6-2.8,77.7c-10.7-14.1-20.9-22.3-30.3-21.8
	C118.9,315,117.3,337.3,108.7,356.7z"/>
<path class="st5" d="M203.9,68.8c39.4-7.9,68,3.2,92.3,21.7C258,82.4,202.1,90,134.5,108L203.9,68.8z"/>
<path class="st5" d="M14.2,253c0.7-31.6,12.6-51.2,28.8-66.2c-11.3,27.6-14.8,71.6-13,126.6L14.2,253z"/>
<ellipse class="st6" cx="366.8" cy="343.9" rx="42.6" ry="61"/>
<path class="st1" d="M409.1,343.8c-0.2,21-7.6,46.1-27.4,56.8s-38.5-1.8-48-18.9c-11.3-20.2-12.2-46.4-3.8-67.8
	c7.1-18.1,24.5-36,45.7-29.6c24.1,7.3,33.3,37,33.6,59.4c0,0.2,0.1,0.3,0.3,0.3c0.2,0,0.3-0.1,0.3-0.3c-0.2-21.4-8-47.5-28.7-57.9
	c-18.4-9.2-37.1,1.7-46.8,17.9c-12.6,20.9-13.7,49-4.3,71.4c7.3,17.6,24.2,34.3,44.8,28.9c25.1-6.6,34.9-37.3,35.1-60.3
	c0-0.2-0.2-0.4-0.5-0.4C409.2,343.4,409.1,343.6,409.1,343.8z"/>
<ellipse class="st7" cx="352.1" cy="359.6" rx="23.6" ry="35.5"/>
<ellipse cx="348.8" cy="360.7" rx="10.6" ry="14.8"/>
<ellipse class="st6" cx="359.2" cy="373.4" rx="3.6" ry="5"/>
<ellipse class="st6" cx="340.8" cy="339.3" rx="6.2" ry="8.5"/>
<ellipse class="st6" cx="246" cy="342.4" rx="49.7" ry="76.5"/>
<path class="st1" d="M295.4,342.3c-0.2,25.4-8.2,57.1-31.7,71.1s-45.2-2.5-56.1-22.9c-13.7-25.8-14.7-59.1-4.5-86.3
	c7.9-21.1,27.5-44.5,52.8-36.6c29.4,9.3,39.3,47.6,39.5,74.6c0,0.2,0.1,0.3,0.3,0.3c0.2,0,0.3-0.1,0.3-0.3
	c-0.2-26-8.6-59.1-33.4-72.4c-22.1-11.9-44,3.2-54.8,22.7c-14.9,26.8-15.8,62.4-4.2,90.6c8.4,20.4,27.6,41.7,52,34.5
	c30-8.9,40.3-48,40.4-75.4c0-0.2-0.2-0.3-0.4-0.2C295.5,342,295.4,342.1,295.4,342.3z"/>
<ellipse class="st7" cx="227.8" cy="362.1" rx="27" ry="44.5"/>
<ellipse cx="224" cy="363.5" rx="13.7" ry="18.5"/>
<ellipse class="st6" cx="236.5" cy="379.1" rx="4.7" ry="6.4"/>
<ellipse class="st6" cx="211.5" cy="338.4" rx="7.1" ry="10.7"/>
<path class="st1" d="M404.2,404.1c0.8,0,1.5-0.7,1.5-1.5s-0.7-1.5-1.5-1.5s-1.5,0.7-1.5,1.5S403.4,404.1,404.2,404.1L404.2,404.1z"
	/>
<path class="st1" d="M409.2,419.7c0.8,0,1.5-0.7,1.5-1.5s-0.7-1.5-1.5-1.5s-1.5,0.7-1.5,1.5S408.4,419.7,409.2,419.7L409.2,419.7z"
	/>
<path class="st1" d="M392.9,413.3c0.8,0,1.5-0.7,1.5-1.5s-0.7-1.5-1.5-1.5s-1.5,0.7-1.5,1.5S392.1,413.3,392.9,413.3L392.9,413.3z"
	/>
<path class="st1" d="M196.8,424.7c0.8,0,1.5-0.7,1.5-1.5s-0.7-1.5-1.5-1.5s-1.5,0.7-1.5,1.5S196,424.7,196.8,424.7L196.8,424.7z"/>
<path class="st1" d="M186.1,427.5c0.8,0,1.5-0.7,1.5-1.5s-0.7-1.5-1.5-1.5s-1.5,0.7-1.5,1.5S185.3,427.5,186.1,427.5L186.1,427.5z"
	/>
<path class="st1" d="M166.9,433.9c0.8,0,1.5-0.7,1.5-1.5s-0.7-1.5-1.5-1.5s-1.5,0.7-1.5,1.5S166.1,433.9,166.9,433.9L166.9,433.9z"
	/>
<path class="st1" d="M161.2,410.5c0.8,0,1.5-0.7,1.5-1.5s-0.7-1.5-1.5-1.5s-1.5,0.7-1.5,1.5S160.4,410.5,161.2,410.5L161.2,410.5z"
	/>
<path class="st1" d="M174,416.9c0.8,0,1.5-0.7,1.5-1.5s-0.7-1.5-1.5-1.5s-1.5,0.7-1.5,1.5S173.2,416.9,174,416.9L174,416.9z"/>
<path class="st1" d="M186.8,414c0.8,0,1.5-0.7,1.5-1.5s-0.7-1.5-1.5-1.5s-1.5,0.7-1.5,1.5S186,414,186.8,414L186.8,414z"/>
<path class="st1" d="M181.1,406.2c0.8,0,1.5-0.7,1.5-1.5s-0.7-1.5-1.5-1.5s-1.5,0.7-1.5,1.5S180.3,406.2,181.1,406.2L181.1,406.2z"
	/>
</svg>
